<svg width="661" height="832" viewBox="0 0 661 832" fill="none" xmlns="http://www.w3.org/2000/svg">
<rect width="661" height="832" fill="#343434"/>
<path d="M298.392 47.1364C297.847 47.1364 297.365 46.9986 296.947 46.723C296.53 46.4446 296.203 46.0526 295.967 45.5469C295.732 45.0384 295.614 44.4375 295.614 43.7443C295.614 43.0568 295.732 42.4602 295.967 41.9545C296.203 41.4489 296.531 41.0582 296.952 40.7827C297.372 40.5071 297.858 40.3693 298.409 40.3693C298.835 40.3693 299.172 40.4403 299.419 40.5824C299.669 40.7216 299.859 40.8807 299.99 41.0597C300.124 41.2358 300.227 41.3807 300.301 41.4943H300.386V38.2727H301.392V47H300.42V45.9943H300.301C300.227 46.1136 300.122 46.2642 299.986 46.446C299.849 46.625 299.655 46.7855 299.402 46.9276C299.149 47.0668 298.813 47.1364 298.392 47.1364ZM298.528 46.233C298.932 46.233 299.273 46.1278 299.551 45.9176C299.83 45.7045 300.041 45.4105 300.186 45.0355C300.331 44.6577 300.403 44.2216 300.403 43.7273C300.403 43.2386 300.332 42.8111 300.19 42.4446C300.048 42.0753 299.838 41.7884 299.56 41.5838C299.281 41.3764 298.938 41.2727 298.528 41.2727C298.102 41.2727 297.747 41.3821 297.463 41.6009C297.182 41.8168 296.97 42.1108 296.828 42.483C296.689 42.8523 296.619 43.267 296.619 43.7273C296.619 44.1932 296.69 44.6165 296.832 44.9972C296.977 45.375 297.19 45.6761 297.472 45.9006C297.756 46.1222 298.108 46.233 298.528 46.233ZM303.374 47V40.4545H304.345V41.4432H304.413C304.533 41.1193 304.749 40.8565 305.061 40.6548C305.374 40.4531 305.726 40.3523 306.118 40.3523C306.192 40.3523 306.284 40.3537 306.395 40.3565C306.506 40.3594 306.589 40.3636 306.646 40.3693V41.392C306.612 41.3835 306.534 41.3707 306.412 41.3537C306.293 41.3338 306.166 41.3239 306.033 41.3239C305.714 41.3239 305.43 41.3906 305.18 41.5241C304.933 41.6548 304.737 41.8366 304.592 42.0696C304.45 42.2997 304.379 42.5625 304.379 42.858V47H303.374ZM307.838 47V40.4545H308.844V47H307.838ZM308.35 39.3636C308.154 39.3636 307.985 39.2969 307.843 39.1634C307.703 39.0298 307.634 38.8693 307.634 38.6818C307.634 38.4943 307.703 38.3338 307.843 38.2003C307.985 38.0668 308.154 38 308.35 38C308.546 38 308.713 38.0668 308.853 38.2003C308.995 38.3338 309.066 38.4943 309.066 38.6818C309.066 38.8693 308.995 39.0298 308.853 39.1634C308.713 39.2969 308.546 39.3636 308.35 39.3636ZM311.692 43.0625V47H310.686V40.4545H311.658V41.4773H311.743C311.896 41.1449 312.129 40.8778 312.442 40.6761C312.754 40.4716 313.158 40.3693 313.652 40.3693C314.095 40.3693 314.483 40.4602 314.815 40.642C315.148 40.821 315.406 41.0938 315.591 41.4602C315.776 41.8239 315.868 42.2841 315.868 42.8409V47H314.862V42.9091C314.862 42.3949 314.729 41.9943 314.462 41.7074C314.195 41.4176 313.828 41.2727 313.362 41.2727C313.041 41.2727 312.754 41.3423 312.501 41.4815C312.251 41.6207 312.054 41.8239 311.909 42.0909C311.764 42.358 311.692 42.6818 311.692 43.0625ZM318.643 44.6136L318.626 43.3693H318.831L321.694 40.4545H322.939L319.887 43.5398H319.802L318.643 44.6136ZM317.706 47V38.2727H318.711V47H317.706ZM321.865 47L319.308 43.7614L320.024 43.0625L323.143 47H321.865ZM330.08 47.1364C329.534 47.1364 329.053 46.9986 328.635 46.723C328.217 46.4446 327.891 46.0526 327.655 45.5469C327.419 45.0384 327.301 44.4375 327.301 43.7443C327.301 43.0568 327.419 42.4602 327.655 41.9545C327.891 41.4489 328.219 41.0582 328.639 40.7827C329.06 40.5071 329.545 40.3693 330.097 40.3693C330.523 40.3693 330.859 40.4403 331.107 40.5824C331.357 40.7216 331.547 40.8807 331.678 41.0597C331.811 41.2358 331.915 41.3807 331.989 41.4943H332.074V38.2727H333.08V47H332.108V45.9943H331.989C331.915 46.1136 331.81 46.2642 331.673 46.446C331.537 46.625 331.342 46.7855 331.089 46.9276C330.837 47.0668 330.5 47.1364 330.08 47.1364ZM330.216 46.233C330.619 46.233 330.96 46.1278 331.239 45.9176C331.517 45.7045 331.729 45.4105 331.874 45.0355C332.018 44.6577 332.091 44.2216 332.091 43.7273C332.091 43.2386 332.02 42.8111 331.878 42.4446C331.736 42.0753 331.526 41.7884 331.247 41.5838C330.969 41.3764 330.625 41.2727 330.216 41.2727C329.79 41.2727 329.435 41.3821 329.151 41.6009C328.869 41.8168 328.658 42.1108 328.516 42.483C328.376 42.8523 328.307 43.267 328.307 43.7273C328.307 44.1932 328.378 44.6165 328.52 44.9972C328.665 45.375 328.878 45.6761 329.159 45.9006C329.443 46.1222 329.795 46.233 330.216 46.233ZM337.805 47.1364C337.175 47.1364 336.631 46.9972 336.173 46.7188C335.719 46.4375 335.368 46.0455 335.121 45.5426C334.876 45.0369 334.754 44.4489 334.754 43.7784C334.754 43.108 334.876 42.517 335.121 42.0057C335.368 41.4915 335.712 41.0909 336.152 40.804C336.595 40.5142 337.112 40.3693 337.703 40.3693C338.044 40.3693 338.381 40.4261 338.713 40.5398C339.045 40.6534 339.348 40.8381 339.621 41.0938C339.893 41.3466 340.111 41.6818 340.273 42.0994C340.435 42.517 340.516 43.0312 340.516 43.642V44.0682H335.47V43.1989H339.493C339.493 42.8295 339.419 42.5 339.271 42.2102C339.126 41.9205 338.919 41.6918 338.649 41.5241C338.382 41.3565 338.067 41.2727 337.703 41.2727C337.303 41.2727 336.956 41.3722 336.663 41.571C336.374 41.767 336.151 42.0227 335.994 42.3381C335.838 42.6534 335.76 42.9915 335.76 43.3523V43.9318C335.76 44.4261 335.845 44.8452 336.016 45.1889C336.189 45.5298 336.429 45.7898 336.736 45.9688C337.043 46.1449 337.399 46.233 337.805 46.233C338.07 46.233 338.308 46.196 338.521 46.1222C338.737 46.0455 338.923 45.9318 339.08 45.7812C339.236 45.6278 339.357 45.4375 339.442 45.2102L340.413 45.483C340.311 45.8125 340.139 46.1023 339.898 46.3523C339.656 46.5994 339.358 46.7926 339.003 46.9318C338.648 47.0682 338.249 47.1364 337.805 47.1364ZM344.892 40.4545V41.3068H341.5V40.4545H344.892ZM342.489 38.8864H343.494V45.125C343.494 45.4091 343.536 45.6222 343.618 45.7642C343.703 45.9034 343.811 45.9972 343.942 46.0455C344.075 46.0909 344.216 46.1136 344.364 46.1136C344.474 46.1136 344.565 46.108 344.636 46.0966C344.707 46.0824 344.764 46.071 344.807 46.0625L345.011 46.9659C344.943 46.9915 344.848 47.017 344.726 47.0426C344.604 47.071 344.449 47.0852 344.261 47.0852C343.977 47.0852 343.699 47.0241 343.426 46.902C343.156 46.7798 342.932 46.5938 342.753 46.3438C342.577 46.0938 342.489 45.7784 342.489 45.3977V38.8864ZM348.331 47.1534C347.916 47.1534 347.54 47.0753 347.202 46.919C346.864 46.7599 346.595 46.5312 346.396 46.233C346.197 45.9318 346.098 45.5682 346.098 45.142C346.098 44.767 346.172 44.4631 346.32 44.2301C346.467 43.9943 346.665 43.8097 346.912 43.6761C347.159 43.5426 347.432 43.4432 347.73 43.3778C348.031 43.3097 348.334 43.2557 348.638 43.2159C349.036 43.1648 349.358 43.1264 349.605 43.1009C349.855 43.0724 350.037 43.0256 350.151 42.9602C350.267 42.8949 350.325 42.7812 350.325 42.6193V42.5852C350.325 42.1648 350.21 41.8381 349.98 41.6051C349.753 41.3722 349.408 41.2557 348.945 41.2557C348.464 41.2557 348.088 41.3608 347.815 41.571C347.543 41.7812 347.351 42.0057 347.24 42.2443L346.286 41.9034C346.456 41.5057 346.683 41.196 346.967 40.9744C347.254 40.75 347.567 40.5937 347.905 40.5057C348.246 40.4148 348.581 40.3693 348.911 40.3693C349.121 40.3693 349.362 40.3949 349.635 40.446C349.911 40.4943 350.176 40.5952 350.432 40.7486C350.69 40.902 350.905 41.1335 351.075 41.4432C351.246 41.7528 351.331 42.1676 351.331 42.6875V47H350.325V46.1136H350.274C350.206 46.2557 350.092 46.4077 349.933 46.5696C349.774 46.7315 349.563 46.8693 349.298 46.983C349.034 47.0966 348.712 47.1534 348.331 47.1534ZM348.484 46.25C348.882 46.25 349.217 46.1719 349.49 46.0156C349.766 45.8594 349.973 45.6577 350.112 45.4105C350.254 45.1634 350.325 44.9034 350.325 44.6307V43.7102C350.283 43.7614 350.189 43.8082 350.044 43.8509C349.902 43.8906 349.737 43.9261 349.55 43.9574C349.365 43.9858 349.185 44.0114 349.009 44.0341C348.835 44.054 348.695 44.071 348.587 44.0852C348.325 44.1193 348.081 44.1747 347.854 44.2514C347.629 44.3253 347.447 44.4375 347.308 44.5881C347.172 44.7358 347.104 44.9375 347.104 45.1932C347.104 45.5426 347.233 45.8068 347.491 45.9858C347.753 46.1619 348.084 46.25 348.484 46.25ZM353.167 47V40.4545H354.172V47H353.167ZM353.678 39.3636C353.482 39.3636 353.313 39.2969 353.171 39.1634C353.032 39.0298 352.962 38.8693 352.962 38.6818C352.962 38.4943 353.032 38.3338 353.171 38.2003C353.313 38.0668 353.482 38 353.678 38C353.874 38 354.042 38.0668 354.181 38.2003C354.323 38.3338 354.394 38.4943 354.394 38.6818C354.394 38.8693 354.323 39.0298 354.181 39.1634C354.042 39.2969 353.874 39.3636 353.678 39.3636ZM357.02 38.2727V47H356.014V38.2727H357.02ZM363.498 41.9205L362.595 42.1761C362.538 42.0256 362.454 41.8793 362.343 41.7372C362.235 41.5923 362.088 41.473 361.9 41.3793C361.713 41.2855 361.473 41.2386 361.18 41.2386C360.779 41.2386 360.446 41.331 360.179 41.5156C359.914 41.6974 359.782 41.929 359.782 42.2102C359.782 42.4602 359.873 42.6577 360.055 42.8026C360.237 42.9474 360.521 43.0682 360.907 43.1648L361.879 43.4034C362.464 43.5455 362.9 43.7628 363.187 44.0554C363.474 44.3452 363.618 44.7187 363.618 45.1761C363.618 45.5511 363.51 45.8864 363.294 46.1818C363.081 46.4773 362.782 46.7102 362.399 46.8807C362.015 47.0511 361.569 47.1364 361.061 47.1364C360.393 47.1364 359.841 46.9915 359.403 46.7017C358.966 46.4119 358.689 45.9886 358.572 45.4318L359.527 45.1932C359.618 45.5455 359.789 45.8097 360.042 45.9858C360.298 46.1619 360.632 46.25 361.044 46.25C361.512 46.25 361.885 46.1506 362.16 45.9517C362.439 45.75 362.578 45.5085 362.578 45.2273C362.578 45 362.498 44.8097 362.339 44.6562C362.18 44.5 361.936 44.3835 361.606 44.3068L360.515 44.0511C359.916 43.9091 359.475 43.6889 359.194 43.3906C358.916 43.0895 358.777 42.7131 358.777 42.2614C358.777 41.892 358.88 41.5653 359.088 41.2812C359.298 40.9972 359.583 40.7741 359.944 40.6122C360.308 40.4503 360.72 40.3693 361.18 40.3693C361.828 40.3693 362.336 40.5114 362.706 40.7955C363.078 41.0795 363.342 41.4545 363.498 41.9205Z" fill="white"/>
<rect x="510" y="736" width="102" height="66" fill="#FFD900"/>
<path d="M549.42 768.636C549.42 769.557 549.254 770.352 548.922 771.023C548.589 771.693 548.134 772.21 547.554 772.574C546.974 772.938 546.313 773.119 545.568 773.119C544.824 773.119 544.162 772.938 543.582 772.574C543.003 772.21 542.547 771.693 542.214 771.023C541.882 770.352 541.716 769.557 541.716 768.636C541.716 767.716 541.882 766.92 542.214 766.25C542.547 765.58 543.003 765.062 543.582 764.699C544.162 764.335 544.824 764.153 545.568 764.153C546.313 764.153 546.974 764.335 547.554 764.699C548.134 765.062 548.589 765.58 548.922 766.25C549.254 766.92 549.42 767.716 549.42 768.636ZM548.398 768.636C548.398 767.881 548.271 767.243 548.018 766.723C547.768 766.203 547.429 765.81 547 765.543C546.574 765.276 546.097 765.142 545.568 765.142C545.04 765.142 544.561 765.276 544.132 765.543C543.706 765.81 543.366 766.203 543.114 766.723C542.864 767.243 542.739 767.881 542.739 768.636C542.739 769.392 542.864 770.03 543.114 770.55C543.366 771.07 543.706 771.463 544.132 771.73C544.561 771.997 545.04 772.131 545.568 772.131C546.097 772.131 546.574 771.997 547 771.73C547.429 771.463 547.768 771.07 548.018 770.55C548.271 770.03 548.398 769.392 548.398 768.636ZM551.197 773V764.273H554.146C554.828 764.273 555.388 764.389 555.825 764.622C556.263 764.852 556.587 765.169 556.797 765.572C557.007 765.976 557.112 766.435 557.112 766.949C557.112 767.463 557.007 767.919 556.797 768.317C556.587 768.714 556.264 769.027 555.83 769.254C555.395 769.479 554.839 769.591 554.163 769.591H551.777V768.636H554.129C554.595 768.636 554.97 768.568 555.254 768.432C555.541 768.295 555.749 768.102 555.876 767.852C556.007 767.599 556.072 767.298 556.072 766.949C556.072 766.599 556.007 766.294 555.876 766.033C555.746 765.771 555.537 765.57 555.25 765.428C554.963 765.283 554.584 765.21 554.112 765.21H552.254V773H551.197ZM555.305 769.08L557.453 773H556.226L554.112 769.08H555.305ZM561.566 773H558.873V764.273H561.686C562.532 764.273 563.257 764.447 563.859 764.797C564.461 765.143 564.923 765.642 565.244 766.293C565.565 766.94 565.725 767.716 565.725 768.619C565.725 769.528 565.564 770.311 565.24 770.967C564.916 771.621 564.444 772.124 563.825 772.476C563.206 772.825 562.453 773 561.566 773ZM559.93 772.062H561.498C562.22 772.062 562.818 771.923 563.292 771.645C563.767 771.366 564.12 770.97 564.353 770.456C564.586 769.942 564.703 769.33 564.703 768.619C564.703 767.915 564.588 767.308 564.358 766.8C564.127 766.288 563.784 765.896 563.326 765.624C562.869 765.348 562.299 765.21 561.618 765.21H559.93V772.062ZM567.498 773V764.273H572.765V765.21H568.555V768.159H572.493V769.097H568.555V772.062H572.833V773H567.498ZM574.67 773V764.273H577.619C578.301 764.273 578.86 764.389 579.298 764.622C579.735 764.852 580.059 765.169 580.27 765.572C580.48 765.976 580.585 766.435 580.585 766.949C580.585 767.463 580.48 767.919 580.27 768.317C580.059 768.714 579.737 769.027 579.302 769.254C578.868 769.479 578.312 769.591 577.636 769.591H575.25V768.636H577.602C578.068 768.636 578.443 768.568 578.727 768.432C579.014 768.295 579.221 768.102 579.349 767.852C579.48 767.599 579.545 767.298 579.545 766.949C579.545 766.599 579.48 766.294 579.349 766.033C579.218 765.771 579.01 765.57 578.723 765.428C578.436 765.283 578.056 765.21 577.585 765.21H575.727V773H574.67ZM578.778 769.08L580.926 773H579.699L577.585 769.08H578.778Z" fill="#343434"/>
<rect x="42" y="35" width="102" height="66" fill="white"/>
<path d="M79.8295 65.4545C79.7784 65.0227 79.571 64.6875 79.2074 64.4489C78.8438 64.2102 78.3977 64.0909 77.8693 64.0909C77.483 64.0909 77.1449 64.1534 76.8551 64.2784C76.5682 64.4034 76.3438 64.5753 76.1818 64.794C76.0227 65.0128 75.9432 65.2614 75.9432 65.5398C75.9432 65.7727 75.9986 65.973 76.1094 66.1406C76.223 66.3054 76.3679 66.4432 76.544 66.554C76.7202 66.6619 76.9048 66.7514 77.098 66.8224C77.2912 66.8906 77.4688 66.946 77.6307 66.9886L78.517 67.2273C78.7443 67.2869 78.9972 67.3693 79.2756 67.4744C79.5568 67.5795 79.8253 67.723 80.081 67.9048C80.3395 68.0838 80.5526 68.3139 80.7202 68.5952C80.8878 68.8764 80.9716 69.2216 80.9716 69.6307C80.9716 70.1023 80.848 70.5284 80.6009 70.9091C80.3565 71.2898 79.9986 71.5923 79.527 71.8168C79.0582 72.0412 78.4886 72.1534 77.8182 72.1534C77.1932 72.1534 76.652 72.0526 76.1946 71.8509C75.7401 71.6491 75.3821 71.3679 75.1207 71.0071C74.8622 70.6463 74.7159 70.2273 74.6818 69.75H75.7727C75.8011 70.0795 75.9119 70.3523 76.1051 70.5682C76.3011 70.7812 76.5483 70.9403 76.8466 71.0455C77.1477 71.1477 77.4716 71.1989 77.8182 71.1989C78.2216 71.1989 78.5838 71.1335 78.9048 71.0028C79.2259 70.8693 79.4801 70.6847 79.6676 70.4489C79.8551 70.2102 79.9489 69.9318 79.9489 69.6136C79.9489 69.3239 79.8679 69.0881 79.706 68.9062C79.544 68.7244 79.331 68.5767 79.0668 68.4631C78.8026 68.3494 78.517 68.25 78.2102 68.1648L77.1364 67.858C76.4545 67.6619 75.9148 67.3821 75.517 67.0185C75.1193 66.6548 74.9205 66.179 74.9205 65.5909C74.9205 65.1023 75.0526 64.6761 75.3168 64.3125C75.5838 63.946 75.9418 63.6619 76.3906 63.4602C76.8423 63.2557 77.3466 63.1534 77.9034 63.1534C78.4659 63.1534 78.9659 63.2543 79.4034 63.456C79.8409 63.6548 80.1875 63.9276 80.4432 64.2741C80.7017 64.6207 80.8381 65.0142 80.8523 65.4545H79.8295ZM88.4364 63.2727H89.4933V69.0511C89.4933 69.6477 89.3526 70.1804 89.0714 70.6491C88.793 71.1151 88.3995 71.483 87.891 71.7528C87.3825 72.0199 86.7859 72.1534 86.1012 72.1534C85.4165 72.1534 84.82 72.0199 84.3114 71.7528C83.8029 71.483 83.408 71.1151 83.1268 70.6491C82.8484 70.1804 82.7092 69.6477 82.7092 69.0511V63.2727H83.766V68.9659C83.766 69.392 83.8597 69.7713 84.0472 70.1037C84.2347 70.4332 84.5018 70.6932 84.8484 70.8835C85.1978 71.071 85.6154 71.1648 86.1012 71.1648C86.587 71.1648 87.0046 71.071 87.354 70.8835C87.7035 70.6932 87.9705 70.4332 88.1552 70.1037C88.3427 69.7713 88.4364 69.392 88.4364 68.9659V63.2727ZM91.6037 72V63.2727H94.5526C95.2344 63.2727 95.794 63.3892 96.2315 63.6222C96.669 63.8523 96.9929 64.169 97.2031 64.5724C97.4134 64.9759 97.5185 65.4347 97.5185 65.9489C97.5185 66.4631 97.4134 66.919 97.2031 67.3168C96.9929 67.7145 96.6705 68.027 96.2358 68.2543C95.8011 68.4787 95.2457 68.5909 94.5696 68.5909H92.1832V67.6364H94.5355C95.0014 67.6364 95.3764 67.5682 95.6605 67.4318C95.9474 67.2955 96.1548 67.1023 96.2827 66.8523C96.4134 66.5994 96.4787 66.2983 96.4787 65.9489C96.4787 65.5994 96.4134 65.294 96.2827 65.0327C96.152 64.7713 95.9432 64.5696 95.6562 64.4276C95.3693 64.2827 94.9901 64.2102 94.5185 64.2102H92.6605V72H91.6037ZM95.7116 68.0795L97.8594 72H96.6321L94.5185 68.0795H95.7116ZM99.4382 63.2727L102.029 70.6193H102.131L104.722 63.2727H105.83L102.626 72H101.535L98.3303 63.2727H99.4382ZM107.19 72V63.2727H112.457V64.2102H108.246V67.1591H112.184V68.0966H108.246V71.0625H112.525V72H107.19ZM113.612 63.2727H114.822L117.242 67.3466H117.344L119.765 63.2727H120.975L117.822 68.4034V72H116.765V68.4034L113.612 63.2727Z" fill="#343434"/>
<rect x="42" y="736" width="102" height="66" fill="black"/>
<path d="M74.0568 764.273H75.3182L78.2841 771.517H78.3864L81.3523 764.273H82.6136V773H81.625V766.369H81.5398L78.8125 773H77.858L75.1307 766.369H75.0455V773H74.0568V764.273ZM84.7326 773V764.273H89.9996V765.21H85.7894V768.159H89.7269V769.097H85.7894V772.062H90.0678V773H84.7326ZM98.8249 764.273V773H97.8022L93.0465 766.148H92.9613V773H91.9045V764.273H92.9272L97.6999 771.142H97.7852V764.273H98.8249ZM106.667 764.273H107.724V770.051C107.724 770.648 107.583 771.18 107.302 771.649C107.023 772.115 106.63 772.483 106.121 772.753C105.613 773.02 105.016 773.153 104.332 773.153C103.647 773.153 103.05 773.02 102.542 772.753C102.033 772.483 101.638 772.115 101.357 771.649C101.079 771.18 100.94 770.648 100.94 770.051V764.273H101.996V769.966C101.996 770.392 102.09 770.771 102.278 771.104C102.465 771.433 102.732 771.693 103.079 771.884C103.428 772.071 103.846 772.165 104.332 772.165C104.817 772.165 105.235 772.071 105.585 771.884C105.934 771.693 106.201 771.433 106.386 771.104C106.573 770.771 106.667 770.392 106.667 769.966V764.273Z" fill="white"/>
</svg>
