<svg width="661" height="832" viewBox="0 0 661 832" fill="none" xmlns="http://www.w3.org/2000/svg">
<rect width="661" height="832" fill="black"/>
<path d="M314.057 57.2727H315.318L318.284 64.517H318.386L321.352 57.2727H322.614V66H321.625V59.3693H321.54L318.812 66H317.858L315.131 59.3693H315.045V66H314.057V57.2727ZM324.733 66V57.2727H330V58.2102H325.789V61.1591H329.727V62.0966H325.789V65.0625H330.068V66H324.733ZM338.825 57.2727V66H337.802L333.047 59.1477H332.961V66H331.904V57.2727H332.927L337.7 64.142H337.785V57.2727H338.825ZM346.667 57.2727H347.724V63.0511C347.724 63.6477 347.583 64.1804 347.302 64.6491C347.023 65.1151 346.63 65.483 346.121 65.7528C345.613 66.0199 345.016 66.1534 344.332 66.1534C343.647 66.1534 343.05 66.0199 342.542 65.7528C342.033 65.483 341.638 65.1151 341.357 64.6491C341.079 64.1804 340.94 63.6477 340.94 63.0511V57.2727H341.996V62.9659C341.996 63.392 342.09 63.7713 342.278 64.1037C342.465 64.4332 342.732 64.6932 343.079 64.8835C343.428 65.071 343.846 65.1648 344.332 65.1648C344.817 65.1648 345.235 65.071 345.585 64.8835C345.934 64.6932 346.201 64.4332 346.386 64.1037C346.573 63.7713 346.667 63.392 346.667 62.9659V57.2727Z" fill="white"/>
<path d="M45.8182 171.727H49.1818L57.0909 191.045H57.3636L65.2727 171.727H68.6364V195H66V177.318H65.7727L58.5 195H55.9545L48.6818 177.318H48.4545V195H45.8182V171.727ZM74.2869 195V171.727H88.3324V174.227H77.1051V182.091H87.6051V184.591H77.1051V192.5H88.5142V195H74.2869ZM111.866 171.727V195H109.139L96.4574 176.727H96.2301V195H93.4119V171.727H96.1392L108.866 190.045H109.094V171.727H111.866ZM132.778 171.727H135.597V187.136C135.597 188.727 135.222 190.148 134.472 191.398C133.729 192.64 132.68 193.621 131.324 194.341C129.968 195.053 128.377 195.409 126.551 195.409C124.725 195.409 123.134 195.053 121.778 194.341C120.422 193.621 119.369 192.64 118.619 191.398C117.877 190.148 117.506 188.727 117.506 187.136V171.727H120.324V186.909C120.324 188.045 120.574 189.057 121.074 189.943C121.574 190.822 122.286 191.515 123.21 192.023C124.142 192.523 125.256 192.773 126.551 192.773C127.847 192.773 128.96 192.523 129.892 192.023C130.824 191.515 131.536 190.822 132.028 189.943C132.528 189.057 132.778 188.045 132.778 186.909V171.727ZM153.043 171.727V195H150.224V171.727H153.043ZM157.42 174.227V171.727H174.875V174.227H167.557V195H164.739V174.227H157.42ZM179.224 195V171.727H193.27V174.227H182.043V182.091H192.543V184.591H182.043V192.5H193.452V195H179.224ZM198.349 171.727H201.713L209.622 191.045H209.895L217.804 171.727H221.168V195H218.531V177.318H218.304L211.031 195H208.486L201.213 177.318H200.986V195H198.349V171.727ZM243.591 171.727V195H240.773V174.682H240.636L234.955 178.455V175.591L240.773 171.727H243.591Z" fill="white"/>
<path d="M45.8182 294.727H49.1818L57.0909 314.045H57.3636L65.2727 294.727H68.6364V318H66V300.318H65.7727L58.5 318H55.9545L48.6818 300.318H48.4545V318H45.8182V294.727ZM74.2869 318V294.727H88.3324V297.227H77.1051V305.091H87.6051V307.591H77.1051V315.5H88.5142V318H74.2869ZM111.866 294.727V318H109.139L96.4574 299.727H96.2301V318H93.4119V294.727H96.1392L108.866 313.045H109.094V294.727H111.866ZM132.778 294.727H135.597V310.136C135.597 311.727 135.222 313.148 134.472 314.398C133.729 315.64 132.68 316.621 131.324 317.341C129.968 318.053 128.377 318.409 126.551 318.409C124.725 318.409 123.134 318.053 121.778 317.341C120.422 316.621 119.369 315.64 118.619 314.398C117.877 313.148 117.506 311.727 117.506 310.136V294.727H120.324V309.909C120.324 311.045 120.574 312.057 121.074 312.943C121.574 313.822 122.286 314.515 123.21 315.023C124.142 315.523 125.256 315.773 126.551 315.773C127.847 315.773 128.96 315.523 129.892 315.023C130.824 314.515 131.536 313.822 132.028 312.943C132.528 312.057 132.778 311.045 132.778 309.909V294.727ZM153.043 294.727V318H150.224V294.727H153.043ZM157.42 297.227V294.727H174.875V297.227H167.557V318H164.739V297.227H157.42ZM179.224 318V294.727H193.27V297.227H182.043V305.091H192.543V307.591H182.043V315.5H193.452V318H179.224ZM198.349 294.727H201.713L209.622 314.045H209.895L217.804 294.727H221.168V318H218.531V300.318H218.304L211.031 318H208.486L201.213 300.318H200.986V318H198.349V294.727ZM235.409 318V315.955L243.091 307.545C243.992 306.561 244.735 305.705 245.318 304.977C245.902 304.242 246.333 303.553 246.614 302.909C246.902 302.258 247.045 301.576 247.045 300.864C247.045 300.045 246.848 299.337 246.455 298.739C246.068 298.14 245.538 297.678 244.864 297.352C244.189 297.027 243.432 296.864 242.591 296.864C241.697 296.864 240.917 297.049 240.25 297.42C239.591 297.784 239.08 298.295 238.716 298.955C238.36 299.614 238.182 300.386 238.182 301.273H235.5C235.5 299.909 235.814 298.712 236.443 297.682C237.072 296.652 237.928 295.848 239.011 295.273C240.102 294.697 241.326 294.409 242.682 294.409C244.045 294.409 245.254 294.697 246.307 295.273C247.36 295.848 248.186 296.625 248.784 297.602C249.383 298.58 249.682 299.667 249.682 300.864C249.682 301.72 249.527 302.557 249.216 303.375C248.913 304.186 248.383 305.091 247.625 306.091C246.875 307.083 245.833 308.295 244.5 309.727L239.273 315.318V315.5H250.091V318H235.409Z" fill="white"/>
<path d="M45.8182 429.727H49.1818L57.0909 449.045H57.3636L65.2727 429.727H68.6364V453H66V435.318H65.7727L58.5 453H55.9545L48.6818 435.318H48.4545V453H45.8182V429.727ZM74.2869 453V429.727H88.3324V432.227H77.1051V440.091H87.6051V442.591H77.1051V450.5H88.5142V453H74.2869ZM111.866 429.727V453H109.139L96.4574 434.727H96.2301V453H93.4119V429.727H96.1392L108.866 448.045H109.094V429.727H111.866ZM132.778 429.727H135.597V445.136C135.597 446.727 135.222 448.148 134.472 449.398C133.729 450.64 132.68 451.621 131.324 452.341C129.968 453.053 128.377 453.409 126.551 453.409C124.725 453.409 123.134 453.053 121.778 452.341C120.422 451.621 119.369 450.64 118.619 449.398C117.877 448.148 117.506 446.727 117.506 445.136V429.727H120.324V444.909C120.324 446.045 120.574 447.057 121.074 447.943C121.574 448.822 122.286 449.515 123.21 450.023C124.142 450.523 125.256 450.773 126.551 450.773C127.847 450.773 128.96 450.523 129.892 450.023C130.824 449.515 131.536 448.822 132.028 447.943C132.528 447.057 132.778 446.045 132.778 444.909V429.727ZM153.043 429.727V453H150.224V429.727H153.043ZM157.42 432.227V429.727H174.875V432.227H167.557V453H164.739V432.227H157.42ZM179.224 453V429.727H193.27V432.227H182.043V440.091H192.543V442.591H182.043V450.5H193.452V453H179.224ZM198.349 429.727H201.713L209.622 449.045H209.895L217.804 429.727H221.168V453H218.531V435.318H218.304L211.031 453H208.486L201.213 435.318H200.986V453H198.349V429.727ZM243.273 453.318C241.773 453.318 240.436 453.061 239.261 452.545C238.095 452.03 237.167 451.314 236.477 450.398C235.795 449.473 235.424 448.402 235.364 447.182H238.227C238.288 447.932 238.545 448.58 239 449.125C239.455 449.663 240.049 450.08 240.784 450.375C241.519 450.67 242.333 450.818 243.227 450.818C244.227 450.818 245.114 450.644 245.886 450.295C246.659 449.947 247.265 449.462 247.705 448.841C248.144 448.22 248.364 447.5 248.364 446.682C248.364 445.826 248.152 445.072 247.727 444.42C247.303 443.761 246.682 443.246 245.864 442.875C245.045 442.504 244.045 442.318 242.864 442.318H241V439.818H242.864C243.788 439.818 244.598 439.652 245.295 439.318C246 438.985 246.549 438.515 246.943 437.909C247.345 437.303 247.545 436.591 247.545 435.773C247.545 434.985 247.371 434.299 247.023 433.716C246.674 433.133 246.182 432.678 245.545 432.352C244.917 432.027 244.174 431.864 243.318 431.864C242.515 431.864 241.758 432.011 241.045 432.307C240.341 432.595 239.765 433.015 239.318 433.568C238.871 434.114 238.629 434.773 238.591 435.545H235.864C235.909 434.326 236.277 433.258 236.966 432.341C237.655 431.417 238.557 430.697 239.67 430.182C240.792 429.667 242.023 429.409 243.364 429.409C244.803 429.409 246.038 429.701 247.068 430.284C248.098 430.86 248.89 431.621 249.443 432.568C249.996 433.515 250.273 434.538 250.273 435.636C250.273 436.947 249.928 438.064 249.239 438.989C248.557 439.913 247.629 440.553 246.455 440.909V441.091C247.924 441.333 249.072 441.958 249.898 442.966C250.723 443.966 251.136 445.205 251.136 446.682C251.136 447.947 250.792 449.083 250.102 450.091C249.42 451.091 248.489 451.879 247.307 452.455C246.125 453.03 244.78 453.318 243.273 453.318Z" fill="white"/>
<path d="M91.9972 235V227.909H93.0497V229.017H93.142C93.2898 228.638 93.5283 228.345 93.8576 228.135C94.1869 227.923 94.5824 227.817 95.044 227.817C95.5118 227.817 95.9012 227.923 96.212 228.135C96.5259 228.345 96.7706 228.638 96.946 229.017H97.0199C97.2015 228.651 97.4738 228.36 97.837 228.145C98.2002 227.926 98.6357 227.817 99.1435 227.817C99.7775 227.817 100.296 228.015 100.699 228.412C101.102 228.806 101.304 229.42 101.304 230.254V235H100.214V230.254C100.214 229.731 100.071 229.357 99.7852 229.132C99.4989 228.908 99.1619 228.795 98.7741 228.795C98.2756 228.795 97.8893 228.946 97.6154 229.248C97.3415 229.546 97.2045 229.925 97.2045 230.384V235H96.0966V230.143C96.0966 229.74 95.9658 229.416 95.7042 229.169C95.4426 228.92 95.1056 228.795 94.6932 228.795C94.41 228.795 94.1454 228.871 93.8991 229.022C93.656 229.172 93.459 229.382 93.3082 229.65C93.1605 229.914 93.0866 230.22 93.0866 230.568V235H91.9972ZM106.269 235.148C105.586 235.148 104.996 234.997 104.501 234.695C104.008 234.391 103.628 233.966 103.361 233.421C103.096 232.873 102.964 232.236 102.964 231.51C102.964 230.784 103.096 230.143 103.361 229.589C103.628 229.032 104.001 228.598 104.478 228.288C104.958 227.974 105.518 227.817 106.158 227.817C106.528 227.817 106.892 227.878 107.252 228.001C107.612 228.125 107.94 228.325 108.236 228.602C108.531 228.875 108.767 229.239 108.942 229.691C109.117 230.143 109.205 230.701 109.205 231.362V231.824H103.739V230.882H108.097C108.097 230.482 108.017 230.125 107.857 229.811C107.7 229.497 107.475 229.249 107.183 229.068C106.894 228.886 106.552 228.795 106.158 228.795C105.724 228.795 105.349 228.903 105.032 229.119C104.718 229.331 104.476 229.608 104.307 229.95C104.138 230.291 104.053 230.657 104.053 231.048V231.676C104.053 232.212 104.145 232.666 104.33 233.038C104.518 233.407 104.778 233.689 105.11 233.883C105.443 234.074 105.829 234.169 106.269 234.169C106.555 234.169 106.814 234.129 107.045 234.049C107.278 233.966 107.48 233.843 107.649 233.68C107.819 233.513 107.949 233.307 108.042 233.061L109.094 233.357C108.983 233.714 108.797 234.027 108.536 234.298C108.274 234.566 107.951 234.775 107.566 234.926C107.182 235.074 106.749 235.148 106.269 235.148ZM111.952 230.734V235H110.862V227.909H111.915V229.017H112.007C112.173 228.657 112.426 228.368 112.764 228.149C113.103 227.928 113.54 227.817 114.075 227.817C114.556 227.817 114.976 227.915 115.336 228.112C115.696 228.306 115.976 228.602 116.176 228.999C116.376 229.393 116.476 229.891 116.476 230.494V235H115.387V230.568C115.387 230.011 115.242 229.577 114.953 229.266C114.663 228.952 114.266 228.795 113.762 228.795C113.414 228.795 113.103 228.871 112.829 229.022C112.558 229.172 112.344 229.393 112.187 229.682C112.03 229.971 111.952 230.322 111.952 230.734ZM122.936 232.101V227.909H124.025V235H122.936V233.8H122.862C122.696 234.16 122.437 234.466 122.086 234.718C121.735 234.968 121.292 235.092 120.757 235.092C120.313 235.092 119.92 234.995 119.575 234.801C119.23 234.605 118.959 234.309 118.762 233.915C118.565 233.518 118.467 233.018 118.467 232.415V227.909H119.556V232.341C119.556 232.858 119.701 233.27 119.99 233.578C120.283 233.886 120.655 234.04 121.108 234.04C121.378 234.04 121.654 233.971 121.934 233.832C122.217 233.694 122.454 233.481 122.645 233.195C122.839 232.909 122.936 232.544 122.936 232.101ZM129.677 235V227.909H130.766V235H129.677ZM130.231 226.727C130.018 226.727 129.835 226.655 129.681 226.51C129.531 226.366 129.455 226.192 129.455 225.989C129.455 225.786 129.531 225.612 129.681 225.467C129.835 225.322 130.018 225.25 130.231 225.25C130.443 225.25 130.625 225.322 130.776 225.467C130.929 225.612 131.006 225.786 131.006 225.989C131.006 226.192 130.929 226.366 130.776 226.51C130.625 226.655 130.443 226.727 130.231 226.727ZM135.846 227.909V228.832H132.171V227.909H135.846ZM133.242 226.21H134.331V232.969C134.331 233.277 134.376 233.507 134.465 233.661C134.558 233.812 134.675 233.914 134.816 233.966C134.961 234.015 135.113 234.04 135.273 234.04C135.393 234.04 135.492 234.034 135.569 234.021C135.646 234.006 135.707 233.994 135.753 233.984L135.975 234.963C135.901 234.991 135.798 235.018 135.666 235.046C135.533 235.077 135.366 235.092 135.162 235.092C134.855 235.092 134.553 235.026 134.258 234.894C133.965 234.761 133.722 234.56 133.528 234.289C133.337 234.018 133.242 233.677 133.242 233.264V226.21ZM140.381 235.148C139.698 235.148 139.109 234.997 138.613 234.695C138.121 234.391 137.741 233.966 137.473 233.421C137.208 232.873 137.076 232.236 137.076 231.51C137.076 230.784 137.208 230.143 137.473 229.589C137.741 229.032 138.113 228.598 138.59 228.288C139.07 227.974 139.63 227.817 140.271 227.817C140.64 227.817 141.005 227.878 141.365 228.001C141.725 228.125 142.052 228.325 142.348 228.602C142.643 228.875 142.879 229.239 143.054 229.691C143.23 230.143 143.317 230.701 143.317 231.362V231.824H137.851V230.882H142.209C142.209 230.482 142.129 230.125 141.969 229.811C141.812 229.497 141.588 229.249 141.295 229.068C141.006 228.886 140.664 228.795 140.271 228.795C139.837 228.795 139.461 228.903 139.144 229.119C138.83 229.331 138.589 229.608 138.419 229.95C138.25 230.291 138.165 230.657 138.165 231.048V231.676C138.165 232.212 138.258 232.666 138.442 233.038C138.63 233.407 138.89 233.689 139.223 233.883C139.555 234.074 139.941 234.169 140.381 234.169C140.668 234.169 140.926 234.129 141.157 234.049C141.391 233.966 141.592 233.843 141.762 233.68C141.931 233.513 142.062 233.307 142.154 233.061L143.207 233.357C143.096 233.714 142.91 234.027 142.648 234.298C142.386 234.566 142.063 234.775 141.679 234.926C141.294 235.074 140.861 235.148 140.381 235.148ZM144.975 235V227.909H146.027V229.017H146.12C146.267 228.638 146.506 228.345 146.835 228.135C147.164 227.923 147.56 227.817 148.022 227.817C148.489 227.817 148.879 227.923 149.19 228.135C149.503 228.345 149.748 228.638 149.924 229.017H149.997C150.179 228.651 150.451 228.36 150.815 228.145C151.178 227.926 151.613 227.817 152.121 227.817C152.755 227.817 153.274 228.015 153.677 228.412C154.08 228.806 154.282 229.42 154.282 230.254V235H153.192V230.254C153.192 229.731 153.049 229.357 152.763 229.132C152.476 228.908 152.139 228.795 151.752 228.795C151.253 228.795 150.867 228.946 150.593 229.248C150.319 229.546 150.182 229.925 150.182 230.384V235H149.074V230.143C149.074 229.74 148.943 229.416 148.682 229.169C148.42 228.92 148.083 228.795 147.671 228.795C147.388 228.795 147.123 228.871 146.877 229.022C146.634 229.172 146.437 229.382 146.286 229.65C146.138 229.914 146.064 230.22 146.064 230.568V235H144.975ZM162.81 235.148C162.146 235.148 161.573 234.991 161.093 234.677C160.613 234.363 160.244 233.931 159.985 233.38C159.727 232.829 159.597 232.199 159.597 231.491C159.597 230.771 159.73 230.136 159.994 229.585C160.262 229.031 160.635 228.598 161.112 228.288C161.592 227.974 162.152 227.817 162.792 227.817C163.291 227.817 163.74 227.909 164.14 228.094C164.54 228.278 164.868 228.537 165.123 228.869C165.379 229.202 165.537 229.589 165.599 230.033H164.509C164.426 229.71 164.242 229.423 163.955 229.174C163.672 228.922 163.291 228.795 162.81 228.795C162.386 228.795 162.013 228.906 161.693 229.128C161.376 229.346 161.129 229.656 160.95 230.056C160.775 230.453 160.687 230.919 160.687 231.455C160.687 232.002 160.773 232.479 160.945 232.886C161.121 233.292 161.367 233.607 161.684 233.832C162.004 234.057 162.38 234.169 162.81 234.169C163.094 234.169 163.351 234.12 163.581 234.021C163.812 233.923 164.008 233.781 164.168 233.597C164.328 233.412 164.442 233.19 164.509 232.932H165.599C165.537 233.35 165.385 233.727 165.142 234.063C164.902 234.395 164.583 234.66 164.186 234.857C163.792 235.051 163.334 235.148 162.81 235.148ZM170.072 235.148C169.432 235.148 168.87 234.995 168.387 234.691C167.907 234.386 167.532 233.96 167.261 233.412C166.993 232.864 166.859 232.224 166.859 231.491C166.859 230.753 166.993 230.108 167.261 229.557C167.532 229.006 167.907 228.578 168.387 228.274C168.87 227.969 169.432 227.817 170.072 227.817C170.712 227.817 171.272 227.969 171.753 228.274C172.236 228.578 172.611 229.006 172.879 229.557C173.15 230.108 173.285 230.753 173.285 231.491C173.285 232.224 173.15 232.864 172.879 233.412C172.611 233.96 172.236 234.386 171.753 234.691C171.272 234.995 170.712 235.148 170.072 235.148ZM170.072 234.169C170.558 234.169 170.959 234.044 171.272 233.795C171.586 233.546 171.819 233.218 171.97 232.812C172.12 232.406 172.196 231.965 172.196 231.491C172.196 231.018 172.12 230.576 171.97 230.167C171.819 229.757 171.586 229.426 171.272 229.174C170.959 228.922 170.558 228.795 170.072 228.795C169.586 228.795 169.186 228.922 168.872 229.174C168.558 229.426 168.326 229.757 168.175 230.167C168.024 230.576 167.949 231.018 167.949 231.491C167.949 231.965 168.024 232.406 168.175 232.812C168.326 233.218 168.558 233.546 168.872 233.795C169.186 234.044 169.586 234.169 170.072 234.169ZM174.948 235V227.909H176.001V229.017H176.093C176.241 228.638 176.479 228.345 176.809 228.135C177.138 227.923 177.534 227.817 177.995 227.817C178.463 227.817 178.852 227.923 179.163 228.135C179.477 228.345 179.722 228.638 179.897 229.017H179.971C180.153 228.651 180.425 228.36 180.788 228.145C181.151 227.926 181.587 227.817 182.095 227.817C182.729 227.817 183.247 228.015 183.65 228.412C184.054 228.806 184.255 229.42 184.255 230.254V235H183.166V230.254C183.166 229.731 183.023 229.357 182.736 229.132C182.45 228.908 182.113 228.795 181.725 228.795C181.227 228.795 180.84 228.946 180.567 229.248C180.293 229.546 180.156 229.925 180.156 230.384V235H179.048V230.143C179.048 229.74 178.917 229.416 178.655 229.169C178.394 228.92 178.057 228.795 177.644 228.795C177.361 228.795 177.097 228.871 176.85 229.022C176.607 229.172 176.41 229.382 176.259 229.65C176.112 229.914 176.038 230.22 176.038 230.568V235H174.948ZM186.247 237.659V227.909H187.3V229.036H187.429C187.509 228.912 187.62 228.755 187.761 228.565C187.906 228.371 188.112 228.198 188.38 228.048C188.651 227.894 189.017 227.817 189.479 227.817C190.076 227.817 190.602 227.966 191.058 228.265C191.513 228.563 191.868 228.986 192.124 229.534C192.379 230.082 192.507 230.728 192.507 231.473C192.507 232.224 192.379 232.875 192.124 233.426C191.868 233.974 191.515 234.398 191.062 234.7C190.61 234.998 190.088 235.148 189.497 235.148C189.042 235.148 188.677 235.072 188.403 234.922C188.129 234.768 187.918 234.594 187.771 234.4C187.623 234.203 187.509 234.04 187.429 233.911H187.337V237.659H186.247ZM187.318 231.455C187.318 231.99 187.397 232.462 187.554 232.872C187.711 233.278 187.94 233.597 188.241 233.827C188.543 234.055 188.912 234.169 189.349 234.169C189.805 234.169 190.185 234.049 190.49 233.809C190.797 233.566 191.028 233.24 191.182 232.83C191.339 232.418 191.418 231.959 191.418 231.455C191.418 230.956 191.341 230.507 191.187 230.107C191.036 229.703 190.807 229.385 190.499 229.151C190.194 228.914 189.811 228.795 189.349 228.795C188.906 228.795 188.534 228.908 188.232 229.132C187.931 229.354 187.703 229.665 187.549 230.065C187.395 230.462 187.318 230.925 187.318 231.455ZM194.169 235V227.909H195.222V228.98H195.295C195.425 228.629 195.659 228.345 195.997 228.126C196.336 227.908 196.717 227.798 197.142 227.798C197.222 227.798 197.322 227.8 197.442 227.803C197.562 227.806 197.653 227.811 197.714 227.817V228.925C197.678 228.915 197.593 228.902 197.461 228.883C197.331 228.862 197.194 228.851 197.05 228.851C196.705 228.851 196.397 228.923 196.126 229.068C195.859 229.209 195.646 229.406 195.489 229.659C195.335 229.908 195.259 230.193 195.259 230.513V235H194.169ZM201.763 235.148C201.08 235.148 200.491 234.997 199.995 234.695C199.503 234.391 199.123 233.966 198.855 233.421C198.59 232.873 198.458 232.236 198.458 231.51C198.458 230.784 198.59 230.143 198.855 229.589C199.123 229.032 199.495 228.598 199.972 228.288C200.452 227.974 201.012 227.817 201.652 227.817C202.022 227.817 202.386 227.878 202.746 228.001C203.107 228.125 203.434 228.325 203.73 228.602C204.025 228.875 204.261 229.239 204.436 229.691C204.612 230.143 204.699 230.701 204.699 231.362V231.824H199.233V230.882H203.591C203.591 230.482 203.511 230.125 203.351 229.811C203.194 229.497 202.97 229.249 202.677 229.068C202.388 228.886 202.046 228.795 201.652 228.795C201.218 228.795 200.843 228.903 200.526 229.119C200.212 229.331 199.97 229.608 199.801 229.95C199.632 230.291 199.547 230.657 199.547 231.048V231.676C199.547 232.212 199.64 232.666 199.824 233.038C200.012 233.407 200.272 233.689 200.604 233.883C200.937 234.074 201.323 234.169 201.763 234.169C202.049 234.169 202.308 234.129 202.539 234.049C202.773 233.966 202.974 233.843 203.143 233.68C203.313 233.513 203.444 233.307 203.536 233.061L204.588 233.357C204.478 233.714 204.291 234.027 204.03 234.298C203.768 234.566 203.445 234.775 203.06 234.926C202.676 235.074 202.243 235.148 201.763 235.148ZM211.379 229.497L210.401 229.774C210.339 229.611 210.248 229.453 210.128 229.299C210.011 229.142 209.851 229.012 209.648 228.911C209.445 228.809 209.185 228.759 208.868 228.759C208.434 228.759 208.072 228.859 207.783 229.059C207.497 229.256 207.354 229.506 207.354 229.811C207.354 230.082 207.452 230.296 207.649 230.453C207.846 230.61 208.154 230.741 208.572 230.845L209.625 231.104C210.259 231.258 210.731 231.493 211.042 231.81C211.353 232.124 211.509 232.529 211.509 233.024C211.509 233.43 211.392 233.794 211.158 234.114C210.927 234.434 210.604 234.686 210.188 234.871C209.773 235.055 209.29 235.148 208.739 235.148C208.015 235.148 207.417 234.991 206.943 234.677C206.469 234.363 206.169 233.904 206.043 233.301L207.077 233.043C207.175 233.424 207.361 233.71 207.635 233.901C207.912 234.092 208.274 234.188 208.72 234.188C209.228 234.188 209.631 234.08 209.93 233.864C210.231 233.646 210.382 233.384 210.382 233.08C210.382 232.833 210.296 232.627 210.124 232.461C209.951 232.292 209.687 232.165 209.33 232.082L208.148 231.805C207.498 231.652 207.021 231.413 206.717 231.09C206.415 230.764 206.264 230.356 206.264 229.866C206.264 229.466 206.377 229.112 206.601 228.805C206.829 228.497 207.138 228.255 207.529 228.08C207.923 227.904 208.369 227.817 208.868 227.817C209.57 227.817 210.121 227.971 210.521 228.278C210.924 228.586 211.21 228.992 211.379 229.497ZM218.171 229.497L217.193 229.774C217.131 229.611 217.04 229.453 216.92 229.299C216.803 229.142 216.643 229.012 216.44 228.911C216.237 228.809 215.977 228.759 215.66 228.759C215.226 228.759 214.864 228.859 214.575 229.059C214.289 229.256 214.146 229.506 214.146 229.811C214.146 230.082 214.244 230.296 214.441 230.453C214.638 230.61 214.946 230.741 215.364 230.845L216.417 231.104C217.051 231.258 217.523 231.493 217.834 231.81C218.145 232.124 218.301 232.529 218.301 233.024C218.301 233.43 218.184 233.794 217.95 234.114C217.719 234.434 217.396 234.686 216.98 234.871C216.565 235.055 216.082 235.148 215.531 235.148C214.807 235.148 214.209 234.991 213.735 234.677C213.261 234.363 212.961 233.904 212.835 233.301L213.869 233.043C213.967 233.424 214.153 233.71 214.427 233.901C214.704 234.092 215.066 234.188 215.512 234.188C216.02 234.188 216.423 234.08 216.722 233.864C217.023 233.646 217.174 233.384 217.174 233.08C217.174 232.833 217.088 232.627 216.916 232.461C216.743 232.292 216.479 232.165 216.122 232.082L214.94 231.805C214.29 231.652 213.813 231.413 213.509 231.09C213.207 230.764 213.056 230.356 213.056 229.866C213.056 229.466 213.169 229.112 213.393 228.805C213.621 228.497 213.93 228.255 214.321 228.08C214.715 227.904 215.161 227.817 215.66 227.817C216.362 227.817 216.912 227.971 217.313 228.278C217.716 228.586 218.002 228.992 218.171 229.497ZM222.914 235.148C222.23 235.148 221.641 234.997 221.145 234.695C220.653 234.391 220.273 233.966 220.005 233.421C219.74 232.873 219.608 232.236 219.608 231.51C219.608 230.784 219.74 230.143 220.005 229.589C220.273 229.032 220.645 228.598 221.122 228.288C221.602 227.974 222.163 227.817 222.803 227.817C223.172 227.817 223.537 227.878 223.897 228.001C224.257 228.125 224.585 228.325 224.88 228.602C225.176 228.875 225.411 229.239 225.586 229.691C225.762 230.143 225.85 230.701 225.85 231.362V231.824H220.384V230.882H224.742C224.742 230.482 224.662 230.125 224.502 229.811C224.345 229.497 224.12 229.249 223.828 229.068C223.538 228.886 223.197 228.795 222.803 228.795C222.369 228.795 221.993 228.903 221.676 229.119C221.362 229.331 221.121 229.608 220.952 229.95C220.782 230.291 220.698 230.657 220.698 231.048V231.676C220.698 232.212 220.79 232.666 220.975 233.038C221.162 233.407 221.422 233.689 221.755 233.883C222.087 234.074 222.473 234.169 222.914 234.169C223.2 234.169 223.458 234.129 223.689 234.049C223.923 233.966 224.125 233.843 224.294 233.68C224.463 233.513 224.594 233.307 224.686 233.061L225.739 233.357C225.628 233.714 225.442 234.027 225.18 234.298C224.919 234.566 224.595 234.775 224.211 234.926C223.826 235.074 223.394 235.148 222.914 235.148ZM230.184 235.148C229.594 235.148 229.072 234.998 228.619 234.7C228.167 234.398 227.813 233.974 227.558 233.426C227.302 232.875 227.175 232.224 227.175 231.473C227.175 230.728 227.302 230.082 227.558 229.534C227.813 228.986 228.169 228.563 228.624 228.265C229.08 227.966 229.606 227.817 230.203 227.817C230.665 227.817 231.029 227.894 231.297 228.048C231.568 228.198 231.774 228.371 231.916 228.565C232.06 228.755 232.173 228.912 232.253 229.036H232.345V225.545H233.434V235H232.382V233.911H232.253C232.173 234.04 232.059 234.203 231.911 234.4C231.763 234.594 231.552 234.768 231.279 234.922C231.005 235.072 230.64 235.148 230.184 235.148ZM230.332 234.169C230.769 234.169 231.139 234.055 231.44 233.827C231.742 233.597 231.971 233.278 232.128 232.872C232.285 232.462 232.363 231.99 232.363 231.455C232.363 230.925 232.287 230.462 232.133 230.065C231.979 229.665 231.751 229.354 231.449 229.132C231.148 228.908 230.775 228.795 230.332 228.795C229.871 228.795 229.486 228.914 229.178 229.151C228.873 229.385 228.644 229.703 228.49 230.107C228.339 230.507 228.264 230.956 228.264 231.455C228.264 231.959 228.341 232.418 228.495 232.83C228.652 233.24 228.883 233.566 229.187 233.809C229.495 234.049 229.877 234.169 230.332 234.169ZM241.915 235.148C241.324 235.148 240.802 234.998 240.35 234.7C239.898 234.398 239.544 233.974 239.288 233.426C239.033 232.875 238.905 232.224 238.905 231.473C238.905 230.728 239.033 230.082 239.288 229.534C239.544 228.986 239.899 228.563 240.355 228.265C240.81 227.966 241.336 227.817 241.933 227.817C242.395 227.817 242.76 227.894 243.028 228.048C243.298 228.198 243.505 228.371 243.646 228.565C243.791 228.755 243.903 228.912 243.983 229.036H244.075V225.545H245.165V235H244.112V233.911H243.983C243.903 234.04 243.789 234.203 243.642 234.4C243.494 234.594 243.283 234.768 243.009 234.922C242.735 235.072 242.37 235.148 241.915 235.148ZM242.063 234.169C242.5 234.169 242.869 234.055 243.171 233.827C243.472 233.597 243.702 233.278 243.858 232.872C244.015 232.462 244.094 231.99 244.094 231.455C244.094 230.925 244.017 230.462 243.863 230.065C243.709 229.665 243.481 229.354 243.18 229.132C242.878 228.908 242.506 228.795 242.063 228.795C241.601 228.795 241.216 228.914 240.909 229.151C240.604 229.385 240.375 229.703 240.221 230.107C240.07 230.507 239.994 230.956 239.994 231.455C239.994 231.959 240.071 232.418 240.225 232.83C240.382 233.24 240.613 233.566 240.918 233.809C241.226 234.049 241.607 234.169 242.063 234.169ZM250.285 235.148C249.601 235.148 249.012 234.997 248.517 234.695C248.024 234.391 247.644 233.966 247.376 233.421C247.112 232.873 246.979 232.236 246.979 231.51C246.979 230.784 247.112 230.143 247.376 229.589C247.644 229.032 248.016 228.598 248.493 228.288C248.974 227.974 249.534 227.817 250.174 227.817C250.543 227.817 250.908 227.878 251.268 228.001C251.628 228.125 251.956 228.325 252.251 228.602C252.547 228.875 252.782 229.239 252.958 229.691C253.133 230.143 253.221 230.701 253.221 231.362V231.824H247.755V230.882H252.113C252.113 230.482 252.033 230.125 251.873 229.811C251.716 229.497 251.491 229.249 251.199 229.068C250.909 228.886 250.568 228.795 250.174 228.795C249.74 228.795 249.364 228.903 249.047 229.119C248.733 229.331 248.492 229.608 248.323 229.95C248.153 230.291 248.069 230.657 248.069 231.048V231.676C248.069 232.212 248.161 232.666 248.346 233.038C248.533 233.407 248.794 233.689 249.126 233.883C249.458 234.074 249.845 234.169 250.285 234.169C250.571 234.169 250.829 234.129 251.06 234.049C251.294 233.966 251.496 233.843 251.665 233.68C251.834 233.513 251.965 233.307 252.057 233.061L253.11 233.357C252.999 233.714 252.813 234.027 252.551 234.298C252.29 234.566 251.967 234.775 251.582 234.926C251.197 235.074 250.765 235.148 250.285 235.148ZM257.962 227.909V228.832H254.287V227.909H257.962ZM255.358 226.21H256.448V232.969C256.448 233.277 256.492 233.507 256.581 233.661C256.674 233.812 256.791 233.914 256.932 233.966C257.077 234.015 257.229 234.04 257.389 234.04C257.509 234.04 257.608 234.034 257.685 234.021C257.762 234.006 257.823 233.994 257.869 233.984L258.091 234.963C258.017 234.991 257.914 235.018 257.782 235.046C257.649 235.077 257.482 235.092 257.279 235.092C256.971 235.092 256.669 235.026 256.374 234.894C256.081 234.761 255.838 234.56 255.644 234.289C255.454 234.018 255.358 233.677 255.358 233.264V226.21ZM261.687 235.166C261.238 235.166 260.83 235.082 260.464 234.912C260.098 234.74 259.807 234.492 259.591 234.169C259.376 233.843 259.268 233.449 259.268 232.987C259.268 232.581 259.348 232.252 259.508 231.999C259.668 231.744 259.882 231.544 260.15 231.399C260.418 231.254 260.713 231.147 261.036 231.076C261.363 231.002 261.69 230.944 262.02 230.901C262.451 230.845 262.8 230.804 263.068 230.776C263.338 230.745 263.535 230.694 263.659 230.624C263.785 230.553 263.848 230.43 263.848 230.254V230.217C263.848 229.762 263.723 229.408 263.474 229.156C263.228 228.903 262.854 228.777 262.352 228.777C261.832 228.777 261.424 228.891 261.129 229.119C260.833 229.346 260.626 229.589 260.506 229.848L259.471 229.479C259.656 229.048 259.902 228.712 260.21 228.472C260.521 228.229 260.859 228.06 261.226 227.964C261.595 227.866 261.958 227.817 262.315 227.817C262.543 227.817 262.805 227.844 263.1 227.9C263.398 227.952 263.686 228.061 263.963 228.228C264.243 228.394 264.476 228.645 264.66 228.98C264.845 229.316 264.937 229.765 264.937 230.328V235H263.848V234.04H263.792C263.719 234.194 263.595 234.358 263.423 234.534C263.251 234.709 263.021 234.858 262.735 234.982C262.449 235.105 262.1 235.166 261.687 235.166ZM261.854 234.188C262.284 234.188 262.648 234.103 262.943 233.934C263.242 233.764 263.466 233.546 263.617 233.278C263.771 233.01 263.848 232.729 263.848 232.433V231.436C263.802 231.491 263.7 231.542 263.543 231.588C263.389 231.632 263.211 231.67 263.008 231.704C262.808 231.735 262.612 231.762 262.421 231.787C262.234 231.808 262.081 231.827 261.964 231.842C261.681 231.879 261.416 231.939 261.17 232.022C260.927 232.102 260.73 232.224 260.579 232.387C260.432 232.547 260.358 232.766 260.358 233.043C260.358 233.421 260.498 233.707 260.778 233.901C261.061 234.092 261.42 234.188 261.854 234.188ZM266.926 235V227.909H268.015V235H266.926ZM267.48 226.727C267.267 226.727 267.084 226.655 266.93 226.51C266.78 226.366 266.704 226.192 266.704 225.989C266.704 225.786 266.78 225.612 266.93 225.467C267.084 225.322 267.267 225.25 267.48 225.25C267.692 225.25 267.874 225.322 268.025 225.467C268.178 225.612 268.255 225.786 268.255 225.989C268.255 226.192 268.178 226.366 268.025 226.51C267.874 226.655 267.692 226.727 267.48 226.727ZM271.1 225.545V235H270.011V225.545H271.1ZM278.119 229.497L277.14 229.774C277.078 229.611 276.987 229.453 276.867 229.299C276.751 229.142 276.59 229.012 276.387 228.911C276.184 228.809 275.924 228.759 275.607 228.759C275.173 228.759 274.812 228.859 274.522 229.059C274.236 229.256 274.093 229.506 274.093 229.811C274.093 230.082 274.191 230.296 274.388 230.453C274.585 230.61 274.893 230.741 275.312 230.845L276.364 231.104C276.998 231.258 277.471 231.493 277.782 231.81C278.092 232.124 278.248 232.529 278.248 233.024C278.248 233.43 278.131 233.794 277.897 234.114C277.666 234.434 277.343 234.686 276.927 234.871C276.512 235.055 276.029 235.148 275.478 235.148C274.755 235.148 274.156 234.991 273.682 234.677C273.208 234.363 272.908 233.904 272.782 233.301L273.816 233.043C273.914 233.424 274.101 233.71 274.375 233.901C274.652 234.092 275.013 234.188 275.459 234.188C275.967 234.188 276.37 234.08 276.669 233.864C276.971 233.646 277.121 233.384 277.121 233.08C277.121 232.833 277.035 232.627 276.863 232.461C276.69 232.292 276.426 232.165 276.069 232.082L274.887 231.805C274.238 231.652 273.761 231.413 273.456 231.09C273.154 230.764 273.003 230.356 273.003 229.866C273.003 229.466 273.116 229.112 273.34 228.805C273.568 228.497 273.878 228.255 274.268 228.08C274.662 227.904 275.109 227.817 275.607 227.817C276.309 227.817 276.86 227.971 277.26 228.278C277.663 228.586 277.949 228.992 278.119 229.497Z" fill="white"/>
<path d="M91.9972 358V350.909H93.0497V352.017H93.142C93.2898 351.638 93.5283 351.345 93.8576 351.135C94.1869 350.923 94.5824 350.817 95.044 350.817C95.5118 350.817 95.9012 350.923 96.212 351.135C96.5259 351.345 96.7706 351.638 96.946 352.017H97.0199C97.2015 351.651 97.4738 351.36 97.837 351.145C98.2002 350.926 98.6357 350.817 99.1435 350.817C99.7775 350.817 100.296 351.015 100.699 351.412C101.102 351.806 101.304 352.42 101.304 353.254V358H100.214V353.254C100.214 352.731 100.071 352.357 99.7852 352.132C99.4989 351.908 99.1619 351.795 98.7741 351.795C98.2756 351.795 97.8893 351.946 97.6154 352.248C97.3415 352.546 97.2045 352.925 97.2045 353.384V358H96.0966V353.143C96.0966 352.74 95.9658 352.416 95.7042 352.169C95.4426 351.92 95.1056 351.795 94.6932 351.795C94.41 351.795 94.1454 351.871 93.8991 352.022C93.656 352.172 93.459 352.382 93.3082 352.65C93.1605 352.914 93.0866 353.22 93.0866 353.568V358H91.9972ZM106.269 358.148C105.586 358.148 104.996 357.997 104.501 357.695C104.008 357.391 103.628 356.966 103.361 356.421C103.096 355.873 102.964 355.236 102.964 354.51C102.964 353.784 103.096 353.143 103.361 352.589C103.628 352.032 104.001 351.598 104.478 351.288C104.958 350.974 105.518 350.817 106.158 350.817C106.528 350.817 106.892 350.878 107.252 351.001C107.612 351.125 107.94 351.325 108.236 351.602C108.531 351.875 108.767 352.239 108.942 352.691C109.117 353.143 109.205 353.701 109.205 354.362V354.824H103.739V353.882H108.097C108.097 353.482 108.017 353.125 107.857 352.811C107.7 352.497 107.475 352.249 107.183 352.068C106.894 351.886 106.552 351.795 106.158 351.795C105.724 351.795 105.349 351.903 105.032 352.119C104.718 352.331 104.476 352.608 104.307 352.95C104.138 353.291 104.053 353.657 104.053 354.048V354.676C104.053 355.212 104.145 355.666 104.33 356.038C104.518 356.407 104.778 356.689 105.11 356.883C105.443 357.074 105.829 357.169 106.269 357.169C106.555 357.169 106.814 357.129 107.045 357.049C107.278 356.966 107.48 356.843 107.649 356.68C107.819 356.513 107.949 356.307 108.042 356.061L109.094 356.357C108.983 356.714 108.797 357.027 108.536 357.298C108.274 357.566 107.951 357.775 107.566 357.926C107.182 358.074 106.749 358.148 106.269 358.148ZM111.952 353.734V358H110.862V350.909H111.915V352.017H112.007C112.173 351.657 112.426 351.368 112.764 351.149C113.103 350.928 113.54 350.817 114.075 350.817C114.556 350.817 114.976 350.915 115.336 351.112C115.696 351.306 115.976 351.602 116.176 351.999C116.376 352.393 116.476 352.891 116.476 353.494V358H115.387V353.568C115.387 353.011 115.242 352.577 114.953 352.266C114.663 351.952 114.266 351.795 113.762 351.795C113.414 351.795 113.103 351.871 112.829 352.022C112.558 352.172 112.344 352.393 112.187 352.682C112.03 352.971 111.952 353.322 111.952 353.734ZM122.936 355.101V350.909H124.025V358H122.936V356.8H122.862C122.696 357.16 122.437 357.466 122.086 357.718C121.735 357.968 121.292 358.092 120.757 358.092C120.313 358.092 119.92 357.995 119.575 357.801C119.23 357.605 118.959 357.309 118.762 356.915C118.565 356.518 118.467 356.018 118.467 355.415V350.909H119.556V355.341C119.556 355.858 119.701 356.27 119.99 356.578C120.283 356.886 120.655 357.04 121.108 357.04C121.378 357.04 121.654 356.971 121.934 356.832C122.217 356.694 122.454 356.481 122.645 356.195C122.839 355.909 122.936 355.544 122.936 355.101ZM129.677 358V350.909H130.766V358H129.677ZM130.231 349.727C130.018 349.727 129.835 349.655 129.681 349.51C129.531 349.366 129.455 349.192 129.455 348.989C129.455 348.786 129.531 348.612 129.681 348.467C129.835 348.322 130.018 348.25 130.231 348.25C130.443 348.25 130.625 348.322 130.776 348.467C130.929 348.612 131.006 348.786 131.006 348.989C131.006 349.192 130.929 349.366 130.776 349.51C130.625 349.655 130.443 349.727 130.231 349.727ZM135.846 350.909V351.832H132.171V350.909H135.846ZM133.242 349.21H134.331V355.969C134.331 356.277 134.376 356.507 134.465 356.661C134.558 356.812 134.675 356.914 134.816 356.966C134.961 357.015 135.113 357.04 135.273 357.04C135.393 357.04 135.492 357.034 135.569 357.021C135.646 357.006 135.707 356.994 135.753 356.984L135.975 357.963C135.901 357.991 135.798 358.018 135.666 358.046C135.533 358.077 135.366 358.092 135.162 358.092C134.855 358.092 134.553 358.026 134.258 357.894C133.965 357.761 133.722 357.56 133.528 357.289C133.337 357.018 133.242 356.677 133.242 356.264V349.21ZM140.381 358.148C139.698 358.148 139.109 357.997 138.613 357.695C138.121 357.391 137.741 356.966 137.473 356.421C137.208 355.873 137.076 355.236 137.076 354.51C137.076 353.784 137.208 353.143 137.473 352.589C137.741 352.032 138.113 351.598 138.59 351.288C139.07 350.974 139.63 350.817 140.271 350.817C140.64 350.817 141.005 350.878 141.365 351.001C141.725 351.125 142.052 351.325 142.348 351.602C142.643 351.875 142.879 352.239 143.054 352.691C143.23 353.143 143.317 353.701 143.317 354.362V354.824H137.851V353.882H142.209C142.209 353.482 142.129 353.125 141.969 352.811C141.812 352.497 141.588 352.249 141.295 352.068C141.006 351.886 140.664 351.795 140.271 351.795C139.837 351.795 139.461 351.903 139.144 352.119C138.83 352.331 138.589 352.608 138.419 352.95C138.25 353.291 138.165 353.657 138.165 354.048V354.676C138.165 355.212 138.258 355.666 138.442 356.038C138.63 356.407 138.89 356.689 139.223 356.883C139.555 357.074 139.941 357.169 140.381 357.169C140.668 357.169 140.926 357.129 141.157 357.049C141.391 356.966 141.592 356.843 141.762 356.68C141.931 356.513 142.062 356.307 142.154 356.061L143.207 356.357C143.096 356.714 142.91 357.027 142.648 357.298C142.386 357.566 142.063 357.775 141.679 357.926C141.294 358.074 140.861 358.148 140.381 358.148ZM144.975 358V350.909H146.027V352.017H146.12C146.267 351.638 146.506 351.345 146.835 351.135C147.164 350.923 147.56 350.817 148.022 350.817C148.489 350.817 148.879 350.923 149.19 351.135C149.503 351.345 149.748 351.638 149.924 352.017H149.997C150.179 351.651 150.451 351.36 150.815 351.145C151.178 350.926 151.613 350.817 152.121 350.817C152.755 350.817 153.274 351.015 153.677 351.412C154.08 351.806 154.282 352.42 154.282 353.254V358H153.192V353.254C153.192 352.731 153.049 352.357 152.763 352.132C152.476 351.908 152.139 351.795 151.752 351.795C151.253 351.795 150.867 351.946 150.593 352.248C150.319 352.546 150.182 352.925 150.182 353.384V358H149.074V353.143C149.074 352.74 148.943 352.416 148.682 352.169C148.42 351.92 148.083 351.795 147.671 351.795C147.388 351.795 147.123 351.871 146.877 352.022C146.634 352.172 146.437 352.382 146.286 352.65C146.138 352.914 146.064 353.22 146.064 353.568V358H144.975ZM162.81 358.148C162.146 358.148 161.573 357.991 161.093 357.677C160.613 357.363 160.244 356.931 159.985 356.38C159.727 355.829 159.597 355.199 159.597 354.491C159.597 353.771 159.73 353.136 159.994 352.585C160.262 352.031 160.635 351.598 161.112 351.288C161.592 350.974 162.152 350.817 162.792 350.817C163.291 350.817 163.74 350.909 164.14 351.094C164.54 351.278 164.868 351.537 165.123 351.869C165.379 352.202 165.537 352.589 165.599 353.033H164.509C164.426 352.71 164.242 352.423 163.955 352.174C163.672 351.922 163.291 351.795 162.81 351.795C162.386 351.795 162.013 351.906 161.693 352.128C161.376 352.346 161.129 352.656 160.95 353.056C160.775 353.453 160.687 353.919 160.687 354.455C160.687 355.002 160.773 355.479 160.945 355.886C161.121 356.292 161.367 356.607 161.684 356.832C162.004 357.057 162.38 357.169 162.81 357.169C163.094 357.169 163.351 357.12 163.581 357.021C163.812 356.923 164.008 356.781 164.168 356.597C164.328 356.412 164.442 356.19 164.509 355.932H165.599C165.537 356.35 165.385 356.727 165.142 357.063C164.902 357.395 164.583 357.66 164.186 357.857C163.792 358.051 163.334 358.148 162.81 358.148ZM170.072 358.148C169.432 358.148 168.87 357.995 168.387 357.691C167.907 357.386 167.532 356.96 167.261 356.412C166.993 355.864 166.859 355.224 166.859 354.491C166.859 353.753 166.993 353.108 167.261 352.557C167.532 352.006 167.907 351.578 168.387 351.274C168.87 350.969 169.432 350.817 170.072 350.817C170.712 350.817 171.272 350.969 171.753 351.274C172.236 351.578 172.611 352.006 172.879 352.557C173.15 353.108 173.285 353.753 173.285 354.491C173.285 355.224 173.15 355.864 172.879 356.412C172.611 356.96 172.236 357.386 171.753 357.691C171.272 357.995 170.712 358.148 170.072 358.148ZM170.072 357.169C170.558 357.169 170.959 357.044 171.272 356.795C171.586 356.546 171.819 356.218 171.97 355.812C172.12 355.406 172.196 354.965 172.196 354.491C172.196 354.018 172.12 353.576 171.97 353.167C171.819 352.757 171.586 352.426 171.272 352.174C170.959 351.922 170.558 351.795 170.072 351.795C169.586 351.795 169.186 351.922 168.872 352.174C168.558 352.426 168.326 352.757 168.175 353.167C168.024 353.576 167.949 354.018 167.949 354.491C167.949 354.965 168.024 355.406 168.175 355.812C168.326 356.218 168.558 356.546 168.872 356.795C169.186 357.044 169.586 357.169 170.072 357.169ZM174.948 358V350.909H176.001V352.017H176.093C176.241 351.638 176.479 351.345 176.809 351.135C177.138 350.923 177.534 350.817 177.995 350.817C178.463 350.817 178.852 350.923 179.163 351.135C179.477 351.345 179.722 351.638 179.897 352.017H179.971C180.153 351.651 180.425 351.36 180.788 351.145C181.151 350.926 181.587 350.817 182.095 350.817C182.729 350.817 183.247 351.015 183.65 351.412C184.054 351.806 184.255 352.42 184.255 353.254V358H183.166V353.254C183.166 352.731 183.023 352.357 182.736 352.132C182.45 351.908 182.113 351.795 181.725 351.795C181.227 351.795 180.84 351.946 180.567 352.248C180.293 352.546 180.156 352.925 180.156 353.384V358H179.048V353.143C179.048 352.74 178.917 352.416 178.655 352.169C178.394 351.92 178.057 351.795 177.644 351.795C177.361 351.795 177.097 351.871 176.85 352.022C176.607 352.172 176.41 352.382 176.259 352.65C176.112 352.914 176.038 353.22 176.038 353.568V358H174.948ZM186.247 360.659V350.909H187.3V352.036H187.429C187.509 351.912 187.62 351.755 187.761 351.565C187.906 351.371 188.112 351.198 188.38 351.048C188.651 350.894 189.017 350.817 189.479 350.817C190.076 350.817 190.602 350.966 191.058 351.265C191.513 351.563 191.868 351.986 192.124 352.534C192.379 353.082 192.507 353.728 192.507 354.473C192.507 355.224 192.379 355.875 192.124 356.426C191.868 356.974 191.515 357.398 191.062 357.7C190.61 357.998 190.088 358.148 189.497 358.148C189.042 358.148 188.677 358.072 188.403 357.922C188.129 357.768 187.918 357.594 187.771 357.4C187.623 357.203 187.509 357.04 187.429 356.911H187.337V360.659H186.247ZM187.318 354.455C187.318 354.99 187.397 355.462 187.554 355.872C187.711 356.278 187.94 356.597 188.241 356.827C188.543 357.055 188.912 357.169 189.349 357.169C189.805 357.169 190.185 357.049 190.49 356.809C190.797 356.566 191.028 356.24 191.182 355.83C191.339 355.418 191.418 354.959 191.418 354.455C191.418 353.956 191.341 353.507 191.187 353.107C191.036 352.703 190.807 352.385 190.499 352.151C190.194 351.914 189.811 351.795 189.349 351.795C188.906 351.795 188.534 351.908 188.232 352.132C187.931 352.354 187.703 352.665 187.549 353.065C187.395 353.462 187.318 353.925 187.318 354.455ZM194.169 358V350.909H195.222V351.98H195.295C195.425 351.629 195.659 351.345 195.997 351.126C196.336 350.908 196.717 350.798 197.142 350.798C197.222 350.798 197.322 350.8 197.442 350.803C197.562 350.806 197.653 350.811 197.714 350.817V351.925C197.678 351.915 197.593 351.902 197.461 351.883C197.331 351.862 197.194 351.851 197.05 351.851C196.705 351.851 196.397 351.923 196.126 352.068C195.859 352.209 195.646 352.406 195.489 352.659C195.335 352.908 195.259 353.193 195.259 353.513V358H194.169ZM201.763 358.148C201.08 358.148 200.491 357.997 199.995 357.695C199.503 357.391 199.123 356.966 198.855 356.421C198.59 355.873 198.458 355.236 198.458 354.51C198.458 353.784 198.59 353.143 198.855 352.589C199.123 352.032 199.495 351.598 199.972 351.288C200.452 350.974 201.012 350.817 201.652 350.817C202.022 350.817 202.386 350.878 202.746 351.001C203.107 351.125 203.434 351.325 203.73 351.602C204.025 351.875 204.261 352.239 204.436 352.691C204.612 353.143 204.699 353.701 204.699 354.362V354.824H199.233V353.882H203.591C203.591 353.482 203.511 353.125 203.351 352.811C203.194 352.497 202.97 352.249 202.677 352.068C202.388 351.886 202.046 351.795 201.652 351.795C201.218 351.795 200.843 351.903 200.526 352.119C200.212 352.331 199.97 352.608 199.801 352.95C199.632 353.291 199.547 353.657 199.547 354.048V354.676C199.547 355.212 199.64 355.666 199.824 356.038C200.012 356.407 200.272 356.689 200.604 356.883C200.937 357.074 201.323 357.169 201.763 357.169C202.049 357.169 202.308 357.129 202.539 357.049C202.773 356.966 202.974 356.843 203.143 356.68C203.313 356.513 203.444 356.307 203.536 356.061L204.588 356.357C204.478 356.714 204.291 357.027 204.03 357.298C203.768 357.566 203.445 357.775 203.06 357.926C202.676 358.074 202.243 358.148 201.763 358.148ZM211.379 352.497L210.401 352.774C210.339 352.611 210.248 352.453 210.128 352.299C210.011 352.142 209.851 352.012 209.648 351.911C209.445 351.809 209.185 351.759 208.868 351.759C208.434 351.759 208.072 351.859 207.783 352.059C207.497 352.256 207.354 352.506 207.354 352.811C207.354 353.082 207.452 353.296 207.649 353.453C207.846 353.61 208.154 353.741 208.572 353.845L209.625 354.104C210.259 354.258 210.731 354.493 211.042 354.81C211.353 355.124 211.509 355.529 211.509 356.024C211.509 356.43 211.392 356.794 211.158 357.114C210.927 357.434 210.604 357.686 210.188 357.871C209.773 358.055 209.29 358.148 208.739 358.148C208.015 358.148 207.417 357.991 206.943 357.677C206.469 357.363 206.169 356.904 206.043 356.301L207.077 356.043C207.175 356.424 207.361 356.71 207.635 356.901C207.912 357.092 208.274 357.188 208.72 357.188C209.228 357.188 209.631 357.08 209.93 356.864C210.231 356.646 210.382 356.384 210.382 356.08C210.382 355.833 210.296 355.627 210.124 355.461C209.951 355.292 209.687 355.165 209.33 355.082L208.148 354.805C207.498 354.652 207.021 354.413 206.717 354.09C206.415 353.764 206.264 353.356 206.264 352.866C206.264 352.466 206.377 352.112 206.601 351.805C206.829 351.497 207.138 351.255 207.529 351.08C207.923 350.904 208.369 350.817 208.868 350.817C209.57 350.817 210.121 350.971 210.521 351.278C210.924 351.586 211.21 351.992 211.379 352.497ZM218.171 352.497L217.193 352.774C217.131 352.611 217.04 352.453 216.92 352.299C216.803 352.142 216.643 352.012 216.44 351.911C216.237 351.809 215.977 351.759 215.66 351.759C215.226 351.759 214.864 351.859 214.575 352.059C214.289 352.256 214.146 352.506 214.146 352.811C214.146 353.082 214.244 353.296 214.441 353.453C214.638 353.61 214.946 353.741 215.364 353.845L216.417 354.104C217.051 354.258 217.523 354.493 217.834 354.81C218.145 355.124 218.301 355.529 218.301 356.024C218.301 356.43 218.184 356.794 217.95 357.114C217.719 357.434 217.396 357.686 216.98 357.871C216.565 358.055 216.082 358.148 215.531 358.148C214.807 358.148 214.209 357.991 213.735 357.677C213.261 357.363 212.961 356.904 212.835 356.301L213.869 356.043C213.967 356.424 214.153 356.71 214.427 356.901C214.704 357.092 215.066 357.188 215.512 357.188C216.02 357.188 216.423 357.08 216.722 356.864C217.023 356.646 217.174 356.384 217.174 356.08C217.174 355.833 217.088 355.627 216.916 355.461C216.743 355.292 216.479 355.165 216.122 355.082L214.94 354.805C214.29 354.652 213.813 354.413 213.509 354.09C213.207 353.764 213.056 353.356 213.056 352.866C213.056 352.466 213.169 352.112 213.393 351.805C213.621 351.497 213.93 351.255 214.321 351.08C214.715 350.904 215.161 350.817 215.66 350.817C216.362 350.817 216.912 350.971 217.313 351.278C217.716 351.586 218.002 351.992 218.171 352.497ZM222.914 358.148C222.23 358.148 221.641 357.997 221.145 357.695C220.653 357.391 220.273 356.966 220.005 356.421C219.74 355.873 219.608 355.236 219.608 354.51C219.608 353.784 219.74 353.143 220.005 352.589C220.273 352.032 220.645 351.598 221.122 351.288C221.602 350.974 222.163 350.817 222.803 350.817C223.172 350.817 223.537 350.878 223.897 351.001C224.257 351.125 224.585 351.325 224.88 351.602C225.176 351.875 225.411 352.239 225.586 352.691C225.762 353.143 225.85 353.701 225.85 354.362V354.824H220.384V353.882H224.742C224.742 353.482 224.662 353.125 224.502 352.811C224.345 352.497 224.12 352.249 223.828 352.068C223.538 351.886 223.197 351.795 222.803 351.795C222.369 351.795 221.993 351.903 221.676 352.119C221.362 352.331 221.121 352.608 220.952 352.95C220.782 353.291 220.698 353.657 220.698 354.048V354.676C220.698 355.212 220.79 355.666 220.975 356.038C221.162 356.407 221.422 356.689 221.755 356.883C222.087 357.074 222.473 357.169 222.914 357.169C223.2 357.169 223.458 357.129 223.689 357.049C223.923 356.966 224.125 356.843 224.294 356.68C224.463 356.513 224.594 356.307 224.686 356.061L225.739 356.357C225.628 356.714 225.442 357.027 225.18 357.298C224.919 357.566 224.595 357.775 224.211 357.926C223.826 358.074 223.394 358.148 222.914 358.148ZM230.184 358.148C229.594 358.148 229.072 357.998 228.619 357.7C228.167 357.398 227.813 356.974 227.558 356.426C227.302 355.875 227.175 355.224 227.175 354.473C227.175 353.728 227.302 353.082 227.558 352.534C227.813 351.986 228.169 351.563 228.624 351.265C229.08 350.966 229.606 350.817 230.203 350.817C230.665 350.817 231.029 350.894 231.297 351.048C231.568 351.198 231.774 351.371 231.916 351.565C232.06 351.755 232.173 351.912 232.253 352.036H232.345V348.545H233.434V358H232.382V356.911H232.253C232.173 357.04 232.059 357.203 231.911 357.4C231.763 357.594 231.552 357.768 231.279 357.922C231.005 358.072 230.64 358.148 230.184 358.148ZM230.332 357.169C230.769 357.169 231.139 357.055 231.44 356.827C231.742 356.597 231.971 356.278 232.128 355.872C232.285 355.462 232.363 354.99 232.363 354.455C232.363 353.925 232.287 353.462 232.133 353.065C231.979 352.665 231.751 352.354 231.449 352.132C231.148 351.908 230.775 351.795 230.332 351.795C229.871 351.795 229.486 351.914 229.178 352.151C228.873 352.385 228.644 352.703 228.49 353.107C228.339 353.507 228.264 353.956 228.264 354.455C228.264 354.959 228.341 355.418 228.495 355.83C228.652 356.24 228.883 356.566 229.187 356.809C229.495 357.049 229.877 357.169 230.332 357.169ZM241.915 358.148C241.324 358.148 240.802 357.998 240.35 357.7C239.898 357.398 239.544 356.974 239.288 356.426C239.033 355.875 238.905 355.224 238.905 354.473C238.905 353.728 239.033 353.082 239.288 352.534C239.544 351.986 239.899 351.563 240.355 351.265C240.81 350.966 241.336 350.817 241.933 350.817C242.395 350.817 242.76 350.894 243.028 351.048C243.298 351.198 243.505 351.371 243.646 351.565C243.791 351.755 243.903 351.912 243.983 352.036H244.075V348.545H245.165V358H244.112V356.911H243.983C243.903 357.04 243.789 357.203 243.642 357.4C243.494 357.594 243.283 357.768 243.009 357.922C242.735 358.072 242.37 358.148 241.915 358.148ZM242.063 357.169C242.5 357.169 242.869 357.055 243.171 356.827C243.472 356.597 243.702 356.278 243.858 355.872C244.015 355.462 244.094 354.99 244.094 354.455C244.094 353.925 244.017 353.462 243.863 353.065C243.709 352.665 243.481 352.354 243.18 352.132C242.878 351.908 242.506 351.795 242.063 351.795C241.601 351.795 241.216 351.914 240.909 352.151C240.604 352.385 240.375 352.703 240.221 353.107C240.07 353.507 239.994 353.956 239.994 354.455C239.994 354.959 240.071 355.418 240.225 355.83C240.382 356.24 240.613 356.566 240.918 356.809C241.226 357.049 241.607 357.169 242.063 357.169ZM250.285 358.148C249.601 358.148 249.012 357.997 248.517 357.695C248.024 357.391 247.644 356.966 247.376 356.421C247.112 355.873 246.979 355.236 246.979 354.51C246.979 353.784 247.112 353.143 247.376 352.589C247.644 352.032 248.016 351.598 248.493 351.288C248.974 350.974 249.534 350.817 250.174 350.817C250.543 350.817 250.908 350.878 251.268 351.001C251.628 351.125 251.956 351.325 252.251 351.602C252.547 351.875 252.782 352.239 252.958 352.691C253.133 353.143 253.221 353.701 253.221 354.362V354.824H247.755V353.882H252.113C252.113 353.482 252.033 353.125 251.873 352.811C251.716 352.497 251.491 352.249 251.199 352.068C250.909 351.886 250.568 351.795 250.174 351.795C249.74 351.795 249.364 351.903 249.047 352.119C248.733 352.331 248.492 352.608 248.323 352.95C248.153 353.291 248.069 353.657 248.069 354.048V354.676C248.069 355.212 248.161 355.666 248.346 356.038C248.533 356.407 248.794 356.689 249.126 356.883C249.458 357.074 249.845 357.169 250.285 357.169C250.571 357.169 250.829 357.129 251.06 357.049C251.294 356.966 251.496 356.843 251.665 356.68C251.834 356.513 251.965 356.307 252.057 356.061L253.11 356.357C252.999 356.714 252.813 357.027 252.551 357.298C252.29 357.566 251.967 357.775 251.582 357.926C251.197 358.074 250.765 358.148 250.285 358.148ZM257.962 350.909V351.832H254.287V350.909H257.962ZM255.358 349.21H256.448V355.969C256.448 356.277 256.492 356.507 256.581 356.661C256.674 356.812 256.791 356.914 256.932 356.966C257.077 357.015 257.229 357.04 257.389 357.04C257.509 357.04 257.608 357.034 257.685 357.021C257.762 357.006 257.823 356.994 257.869 356.984L258.091 357.963C258.017 357.991 257.914 358.018 257.782 358.046C257.649 358.077 257.482 358.092 257.279 358.092C256.971 358.092 256.669 358.026 256.374 357.894C256.081 357.761 255.838 357.56 255.644 357.289C255.454 357.018 255.358 356.677 255.358 356.264V349.21ZM261.687 358.166C261.238 358.166 260.83 358.082 260.464 357.912C260.098 357.74 259.807 357.492 259.591 357.169C259.376 356.843 259.268 356.449 259.268 355.987C259.268 355.581 259.348 355.252 259.508 354.999C259.668 354.744 259.882 354.544 260.15 354.399C260.418 354.254 260.713 354.147 261.036 354.076C261.363 354.002 261.69 353.944 262.02 353.901C262.451 353.845 262.8 353.804 263.068 353.776C263.338 353.745 263.535 353.694 263.659 353.624C263.785 353.553 263.848 353.43 263.848 353.254V353.217C263.848 352.762 263.723 352.408 263.474 352.156C263.228 351.903 262.854 351.777 262.352 351.777C261.832 351.777 261.424 351.891 261.129 352.119C260.833 352.346 260.626 352.589 260.506 352.848L259.471 352.479C259.656 352.048 259.902 351.712 260.21 351.472C260.521 351.229 260.859 351.06 261.226 350.964C261.595 350.866 261.958 350.817 262.315 350.817C262.543 350.817 262.805 350.844 263.1 350.9C263.398 350.952 263.686 351.061 263.963 351.228C264.243 351.394 264.476 351.645 264.66 351.98C264.845 352.316 264.937 352.765 264.937 353.328V358H263.848V357.04H263.792C263.719 357.194 263.595 357.358 263.423 357.534C263.251 357.709 263.021 357.858 262.735 357.982C262.449 358.105 262.1 358.166 261.687 358.166ZM261.854 357.188C262.284 357.188 262.648 357.103 262.943 356.934C263.242 356.764 263.466 356.546 263.617 356.278C263.771 356.01 263.848 355.729 263.848 355.433V354.436C263.802 354.491 263.7 354.542 263.543 354.588C263.389 354.632 263.211 354.67 263.008 354.704C262.808 354.735 262.612 354.762 262.421 354.787C262.234 354.808 262.081 354.827 261.964 354.842C261.681 354.879 261.416 354.939 261.17 355.022C260.927 355.102 260.73 355.224 260.579 355.387C260.432 355.547 260.358 355.766 260.358 356.043C260.358 356.421 260.498 356.707 260.778 356.901C261.061 357.092 261.42 357.188 261.854 357.188ZM266.926 358V350.909H268.015V358H266.926ZM267.48 349.727C267.267 349.727 267.084 349.655 266.93 349.51C266.78 349.366 266.704 349.192 266.704 348.989C266.704 348.786 266.78 348.612 266.93 348.467C267.084 348.322 267.267 348.25 267.48 348.25C267.692 348.25 267.874 348.322 268.025 348.467C268.178 348.612 268.255 348.786 268.255 348.989C268.255 349.192 268.178 349.366 268.025 349.51C267.874 349.655 267.692 349.727 267.48 349.727ZM271.1 348.545V358H270.011V348.545H271.1ZM278.119 352.497L277.14 352.774C277.078 352.611 276.987 352.453 276.867 352.299C276.751 352.142 276.59 352.012 276.387 351.911C276.184 351.809 275.924 351.759 275.607 351.759C275.173 351.759 274.812 351.859 274.522 352.059C274.236 352.256 274.093 352.506 274.093 352.811C274.093 353.082 274.191 353.296 274.388 353.453C274.585 353.61 274.893 353.741 275.312 353.845L276.364 354.104C276.998 354.258 277.471 354.493 277.782 354.81C278.092 355.124 278.248 355.529 278.248 356.024C278.248 356.43 278.131 356.794 277.897 357.114C277.666 357.434 277.343 357.686 276.927 357.871C276.512 358.055 276.029 358.148 275.478 358.148C274.755 358.148 274.156 357.991 273.682 357.677C273.208 357.363 272.908 356.904 272.782 356.301L273.816 356.043C273.914 356.424 274.101 356.71 274.375 356.901C274.652 357.092 275.013 357.188 275.459 357.188C275.967 357.188 276.37 357.08 276.669 356.864C276.971 356.646 277.121 356.384 277.121 356.08C277.121 355.833 277.035 355.627 276.863 355.461C276.69 355.292 276.426 355.165 276.069 355.082L274.887 354.805C274.238 354.652 273.761 354.413 273.456 354.09C273.154 353.764 273.003 353.356 273.003 352.866C273.003 352.466 273.116 352.112 273.34 351.805C273.568 351.497 273.878 351.255 274.268 351.08C274.662 350.904 275.109 350.817 275.607 350.817C276.309 350.817 276.86 350.971 277.26 351.278C277.663 351.586 277.949 351.992 278.119 352.497Z" fill="white"/>
<path d="M91.9972 493V485.909H93.0497V487.017H93.142C93.2898 486.638 93.5283 486.345 93.8576 486.135C94.1869 485.923 94.5824 485.817 95.044 485.817C95.5118 485.817 95.9012 485.923 96.212 486.135C96.5259 486.345 96.7706 486.638 96.946 487.017H97.0199C97.2015 486.651 97.4738 486.36 97.837 486.145C98.2002 485.926 98.6357 485.817 99.1435 485.817C99.7775 485.817 100.296 486.015 100.699 486.412C101.102 486.806 101.304 487.42 101.304 488.254V493H100.214V488.254C100.214 487.731 100.071 487.357 99.7852 487.132C99.4989 486.908 99.1619 486.795 98.7741 486.795C98.2756 486.795 97.8893 486.946 97.6154 487.248C97.3415 487.546 97.2045 487.925 97.2045 488.384V493H96.0966V488.143C96.0966 487.74 95.9658 487.416 95.7042 487.169C95.4426 486.92 95.1056 486.795 94.6932 486.795C94.41 486.795 94.1454 486.871 93.8991 487.022C93.656 487.172 93.459 487.382 93.3082 487.65C93.1605 487.914 93.0866 488.22 93.0866 488.568V493H91.9972ZM106.269 493.148C105.586 493.148 104.996 492.997 104.501 492.695C104.008 492.391 103.628 491.966 103.361 491.421C103.096 490.873 102.964 490.236 102.964 489.51C102.964 488.784 103.096 488.143 103.361 487.589C103.628 487.032 104.001 486.598 104.478 486.288C104.958 485.974 105.518 485.817 106.158 485.817C106.528 485.817 106.892 485.878 107.252 486.001C107.612 486.125 107.94 486.325 108.236 486.602C108.531 486.875 108.767 487.239 108.942 487.691C109.117 488.143 109.205 488.701 109.205 489.362V489.824H103.739V488.882H108.097C108.097 488.482 108.017 488.125 107.857 487.811C107.7 487.497 107.475 487.249 107.183 487.068C106.894 486.886 106.552 486.795 106.158 486.795C105.724 486.795 105.349 486.903 105.032 487.119C104.718 487.331 104.476 487.608 104.307 487.95C104.138 488.291 104.053 488.657 104.053 489.048V489.676C104.053 490.212 104.145 490.666 104.33 491.038C104.518 491.407 104.778 491.689 105.11 491.883C105.443 492.074 105.829 492.169 106.269 492.169C106.555 492.169 106.814 492.129 107.045 492.049C107.278 491.966 107.48 491.843 107.649 491.68C107.819 491.513 107.949 491.307 108.042 491.061L109.094 491.357C108.983 491.714 108.797 492.027 108.536 492.298C108.274 492.566 107.951 492.775 107.566 492.926C107.182 493.074 106.749 493.148 106.269 493.148ZM111.952 488.734V493H110.862V485.909H111.915V487.017H112.007C112.173 486.657 112.426 486.368 112.764 486.149C113.103 485.928 113.54 485.817 114.075 485.817C114.556 485.817 114.976 485.915 115.336 486.112C115.696 486.306 115.976 486.602 116.176 486.999C116.376 487.393 116.476 487.891 116.476 488.494V493H115.387V488.568C115.387 488.011 115.242 487.577 114.953 487.266C114.663 486.952 114.266 486.795 113.762 486.795C113.414 486.795 113.103 486.871 112.829 487.022C112.558 487.172 112.344 487.393 112.187 487.682C112.03 487.971 111.952 488.322 111.952 488.734ZM122.936 490.101V485.909H124.025V493H122.936V491.8H122.862C122.696 492.16 122.437 492.466 122.086 492.718C121.735 492.968 121.292 493.092 120.757 493.092C120.313 493.092 119.92 492.995 119.575 492.801C119.23 492.605 118.959 492.309 118.762 491.915C118.565 491.518 118.467 491.018 118.467 490.415V485.909H119.556V490.341C119.556 490.858 119.701 491.27 119.99 491.578C120.283 491.886 120.655 492.04 121.108 492.04C121.378 492.04 121.654 491.971 121.934 491.832C122.217 491.694 122.454 491.481 122.645 491.195C122.839 490.909 122.936 490.544 122.936 490.101ZM129.677 493V485.909H130.766V493H129.677ZM130.231 484.727C130.018 484.727 129.835 484.655 129.681 484.51C129.531 484.366 129.455 484.192 129.455 483.989C129.455 483.786 129.531 483.612 129.681 483.467C129.835 483.322 130.018 483.25 130.231 483.25C130.443 483.25 130.625 483.322 130.776 483.467C130.929 483.612 131.006 483.786 131.006 483.989C131.006 484.192 130.929 484.366 130.776 484.51C130.625 484.655 130.443 484.727 130.231 484.727ZM135.846 485.909V486.832H132.171V485.909H135.846ZM133.242 484.21H134.331V490.969C134.331 491.277 134.376 491.507 134.465 491.661C134.558 491.812 134.675 491.914 134.816 491.966C134.961 492.015 135.113 492.04 135.273 492.04C135.393 492.04 135.492 492.034 135.569 492.021C135.646 492.006 135.707 491.994 135.753 491.984L135.975 492.963C135.901 492.991 135.798 493.018 135.666 493.046C135.533 493.077 135.366 493.092 135.162 493.092C134.855 493.092 134.553 493.026 134.258 492.894C133.965 492.761 133.722 492.56 133.528 492.289C133.337 492.018 133.242 491.677 133.242 491.264V484.21ZM140.381 493.148C139.698 493.148 139.109 492.997 138.613 492.695C138.121 492.391 137.741 491.966 137.473 491.421C137.208 490.873 137.076 490.236 137.076 489.51C137.076 488.784 137.208 488.143 137.473 487.589C137.741 487.032 138.113 486.598 138.59 486.288C139.07 485.974 139.63 485.817 140.271 485.817C140.64 485.817 141.005 485.878 141.365 486.001C141.725 486.125 142.052 486.325 142.348 486.602C142.643 486.875 142.879 487.239 143.054 487.691C143.23 488.143 143.317 488.701 143.317 489.362V489.824H137.851V488.882H142.209C142.209 488.482 142.129 488.125 141.969 487.811C141.812 487.497 141.588 487.249 141.295 487.068C141.006 486.886 140.664 486.795 140.271 486.795C139.837 486.795 139.461 486.903 139.144 487.119C138.83 487.331 138.589 487.608 138.419 487.95C138.25 488.291 138.165 488.657 138.165 489.048V489.676C138.165 490.212 138.258 490.666 138.442 491.038C138.63 491.407 138.89 491.689 139.223 491.883C139.555 492.074 139.941 492.169 140.381 492.169C140.668 492.169 140.926 492.129 141.157 492.049C141.391 491.966 141.592 491.843 141.762 491.68C141.931 491.513 142.062 491.307 142.154 491.061L143.207 491.357C143.096 491.714 142.91 492.027 142.648 492.298C142.386 492.566 142.063 492.775 141.679 492.926C141.294 493.074 140.861 493.148 140.381 493.148ZM144.975 493V485.909H146.027V487.017H146.12C146.267 486.638 146.506 486.345 146.835 486.135C147.164 485.923 147.56 485.817 148.022 485.817C148.489 485.817 148.879 485.923 149.19 486.135C149.503 486.345 149.748 486.638 149.924 487.017H149.997C150.179 486.651 150.451 486.36 150.815 486.145C151.178 485.926 151.613 485.817 152.121 485.817C152.755 485.817 153.274 486.015 153.677 486.412C154.08 486.806 154.282 487.42 154.282 488.254V493H153.192V488.254C153.192 487.731 153.049 487.357 152.763 487.132C152.476 486.908 152.139 486.795 151.752 486.795C151.253 486.795 150.867 486.946 150.593 487.248C150.319 487.546 150.182 487.925 150.182 488.384V493H149.074V488.143C149.074 487.74 148.943 487.416 148.682 487.169C148.42 486.92 148.083 486.795 147.671 486.795C147.388 486.795 147.123 486.871 146.877 487.022C146.634 487.172 146.437 487.382 146.286 487.65C146.138 487.914 146.064 488.22 146.064 488.568V493H144.975ZM162.81 493.148C162.146 493.148 161.573 492.991 161.093 492.677C160.613 492.363 160.244 491.931 159.985 491.38C159.727 490.829 159.597 490.199 159.597 489.491C159.597 488.771 159.73 488.136 159.994 487.585C160.262 487.031 160.635 486.598 161.112 486.288C161.592 485.974 162.152 485.817 162.792 485.817C163.291 485.817 163.74 485.909 164.14 486.094C164.54 486.278 164.868 486.537 165.123 486.869C165.379 487.202 165.537 487.589 165.599 488.033H164.509C164.426 487.71 164.242 487.423 163.955 487.174C163.672 486.922 163.291 486.795 162.81 486.795C162.386 486.795 162.013 486.906 161.693 487.128C161.376 487.346 161.129 487.656 160.95 488.056C160.775 488.453 160.687 488.919 160.687 489.455C160.687 490.002 160.773 490.479 160.945 490.886C161.121 491.292 161.367 491.607 161.684 491.832C162.004 492.057 162.38 492.169 162.81 492.169C163.094 492.169 163.351 492.12 163.581 492.021C163.812 491.923 164.008 491.781 164.168 491.597C164.328 491.412 164.442 491.19 164.509 490.932H165.599C165.537 491.35 165.385 491.727 165.142 492.063C164.902 492.395 164.583 492.66 164.186 492.857C163.792 493.051 163.334 493.148 162.81 493.148ZM170.072 493.148C169.432 493.148 168.87 492.995 168.387 492.691C167.907 492.386 167.532 491.96 167.261 491.412C166.993 490.864 166.859 490.224 166.859 489.491C166.859 488.753 166.993 488.108 167.261 487.557C167.532 487.006 167.907 486.578 168.387 486.274C168.87 485.969 169.432 485.817 170.072 485.817C170.712 485.817 171.272 485.969 171.753 486.274C172.236 486.578 172.611 487.006 172.879 487.557C173.15 488.108 173.285 488.753 173.285 489.491C173.285 490.224 173.15 490.864 172.879 491.412C172.611 491.96 172.236 492.386 171.753 492.691C171.272 492.995 170.712 493.148 170.072 493.148ZM170.072 492.169C170.558 492.169 170.959 492.044 171.272 491.795C171.586 491.546 171.819 491.218 171.97 490.812C172.12 490.406 172.196 489.965 172.196 489.491C172.196 489.018 172.12 488.576 171.97 488.167C171.819 487.757 171.586 487.426 171.272 487.174C170.959 486.922 170.558 486.795 170.072 486.795C169.586 486.795 169.186 486.922 168.872 487.174C168.558 487.426 168.326 487.757 168.175 488.167C168.024 488.576 167.949 489.018 167.949 489.491C167.949 489.965 168.024 490.406 168.175 490.812C168.326 491.218 168.558 491.546 168.872 491.795C169.186 492.044 169.586 492.169 170.072 492.169ZM174.948 493V485.909H176.001V487.017H176.093C176.241 486.638 176.479 486.345 176.809 486.135C177.138 485.923 177.534 485.817 177.995 485.817C178.463 485.817 178.852 485.923 179.163 486.135C179.477 486.345 179.722 486.638 179.897 487.017H179.971C180.153 486.651 180.425 486.36 180.788 486.145C181.151 485.926 181.587 485.817 182.095 485.817C182.729 485.817 183.247 486.015 183.65 486.412C184.054 486.806 184.255 487.42 184.255 488.254V493H183.166V488.254C183.166 487.731 183.023 487.357 182.736 487.132C182.45 486.908 182.113 486.795 181.725 486.795C181.227 486.795 180.84 486.946 180.567 487.248C180.293 487.546 180.156 487.925 180.156 488.384V493H179.048V488.143C179.048 487.74 178.917 487.416 178.655 487.169C178.394 486.92 178.057 486.795 177.644 486.795C177.361 486.795 177.097 486.871 176.85 487.022C176.607 487.172 176.41 487.382 176.259 487.65C176.112 487.914 176.038 488.22 176.038 488.568V493H174.948ZM186.247 495.659V485.909H187.3V487.036H187.429C187.509 486.912 187.62 486.755 187.761 486.565C187.906 486.371 188.112 486.198 188.38 486.048C188.651 485.894 189.017 485.817 189.479 485.817C190.076 485.817 190.602 485.966 191.058 486.265C191.513 486.563 191.868 486.986 192.124 487.534C192.379 488.082 192.507 488.728 192.507 489.473C192.507 490.224 192.379 490.875 192.124 491.426C191.868 491.974 191.515 492.398 191.062 492.7C190.61 492.998 190.088 493.148 189.497 493.148C189.042 493.148 188.677 493.072 188.403 492.922C188.129 492.768 187.918 492.594 187.771 492.4C187.623 492.203 187.509 492.04 187.429 491.911H187.337V495.659H186.247ZM187.318 489.455C187.318 489.99 187.397 490.462 187.554 490.872C187.711 491.278 187.94 491.597 188.241 491.827C188.543 492.055 188.912 492.169 189.349 492.169C189.805 492.169 190.185 492.049 190.49 491.809C190.797 491.566 191.028 491.24 191.182 490.83C191.339 490.418 191.418 489.959 191.418 489.455C191.418 488.956 191.341 488.507 191.187 488.107C191.036 487.703 190.807 487.385 190.499 487.151C190.194 486.914 189.811 486.795 189.349 486.795C188.906 486.795 188.534 486.908 188.232 487.132C187.931 487.354 187.703 487.665 187.549 488.065C187.395 488.462 187.318 488.925 187.318 489.455ZM194.169 493V485.909H195.222V486.98H195.295C195.425 486.629 195.659 486.345 195.997 486.126C196.336 485.908 196.717 485.798 197.142 485.798C197.222 485.798 197.322 485.8 197.442 485.803C197.562 485.806 197.653 485.811 197.714 485.817V486.925C197.678 486.915 197.593 486.902 197.461 486.883C197.331 486.862 197.194 486.851 197.05 486.851C196.705 486.851 196.397 486.923 196.126 487.068C195.859 487.209 195.646 487.406 195.489 487.659C195.335 487.908 195.259 488.193 195.259 488.513V493H194.169ZM201.763 493.148C201.08 493.148 200.491 492.997 199.995 492.695C199.503 492.391 199.123 491.966 198.855 491.421C198.59 490.873 198.458 490.236 198.458 489.51C198.458 488.784 198.59 488.143 198.855 487.589C199.123 487.032 199.495 486.598 199.972 486.288C200.452 485.974 201.012 485.817 201.652 485.817C202.022 485.817 202.386 485.878 202.746 486.001C203.107 486.125 203.434 486.325 203.73 486.602C204.025 486.875 204.261 487.239 204.436 487.691C204.612 488.143 204.699 488.701 204.699 489.362V489.824H199.233V488.882H203.591C203.591 488.482 203.511 488.125 203.351 487.811C203.194 487.497 202.97 487.249 202.677 487.068C202.388 486.886 202.046 486.795 201.652 486.795C201.218 486.795 200.843 486.903 200.526 487.119C200.212 487.331 199.97 487.608 199.801 487.95C199.632 488.291 199.547 488.657 199.547 489.048V489.676C199.547 490.212 199.64 490.666 199.824 491.038C200.012 491.407 200.272 491.689 200.604 491.883C200.937 492.074 201.323 492.169 201.763 492.169C202.049 492.169 202.308 492.129 202.539 492.049C202.773 491.966 202.974 491.843 203.143 491.68C203.313 491.513 203.444 491.307 203.536 491.061L204.588 491.357C204.478 491.714 204.291 492.027 204.03 492.298C203.768 492.566 203.445 492.775 203.06 492.926C202.676 493.074 202.243 493.148 201.763 493.148ZM211.379 487.497L210.401 487.774C210.339 487.611 210.248 487.453 210.128 487.299C210.011 487.142 209.851 487.012 209.648 486.911C209.445 486.809 209.185 486.759 208.868 486.759C208.434 486.759 208.072 486.859 207.783 487.059C207.497 487.256 207.354 487.506 207.354 487.811C207.354 488.082 207.452 488.296 207.649 488.453C207.846 488.61 208.154 488.741 208.572 488.845L209.625 489.104C210.259 489.258 210.731 489.493 211.042 489.81C211.353 490.124 211.509 490.529 211.509 491.024C211.509 491.43 211.392 491.794 211.158 492.114C210.927 492.434 210.604 492.686 210.188 492.871C209.773 493.055 209.29 493.148 208.739 493.148C208.015 493.148 207.417 492.991 206.943 492.677C206.469 492.363 206.169 491.904 206.043 491.301L207.077 491.043C207.175 491.424 207.361 491.71 207.635 491.901C207.912 492.092 208.274 492.188 208.72 492.188C209.228 492.188 209.631 492.08 209.93 491.864C210.231 491.646 210.382 491.384 210.382 491.08C210.382 490.833 210.296 490.627 210.124 490.461C209.951 490.292 209.687 490.165 209.33 490.082L208.148 489.805C207.498 489.652 207.021 489.413 206.717 489.09C206.415 488.764 206.264 488.356 206.264 487.866C206.264 487.466 206.377 487.112 206.601 486.805C206.829 486.497 207.138 486.255 207.529 486.08C207.923 485.904 208.369 485.817 208.868 485.817C209.57 485.817 210.121 485.971 210.521 486.278C210.924 486.586 211.21 486.992 211.379 487.497ZM218.171 487.497L217.193 487.774C217.131 487.611 217.04 487.453 216.92 487.299C216.803 487.142 216.643 487.012 216.44 486.911C216.237 486.809 215.977 486.759 215.66 486.759C215.226 486.759 214.864 486.859 214.575 487.059C214.289 487.256 214.146 487.506 214.146 487.811C214.146 488.082 214.244 488.296 214.441 488.453C214.638 488.61 214.946 488.741 215.364 488.845L216.417 489.104C217.051 489.258 217.523 489.493 217.834 489.81C218.145 490.124 218.301 490.529 218.301 491.024C218.301 491.43 218.184 491.794 217.95 492.114C217.719 492.434 217.396 492.686 216.98 492.871C216.565 493.055 216.082 493.148 215.531 493.148C214.807 493.148 214.209 492.991 213.735 492.677C213.261 492.363 212.961 491.904 212.835 491.301L213.869 491.043C213.967 491.424 214.153 491.71 214.427 491.901C214.704 492.092 215.066 492.188 215.512 492.188C216.02 492.188 216.423 492.08 216.722 491.864C217.023 491.646 217.174 491.384 217.174 491.08C217.174 490.833 217.088 490.627 216.916 490.461C216.743 490.292 216.479 490.165 216.122 490.082L214.94 489.805C214.29 489.652 213.813 489.413 213.509 489.09C213.207 488.764 213.056 488.356 213.056 487.866C213.056 487.466 213.169 487.112 213.393 486.805C213.621 486.497 213.93 486.255 214.321 486.08C214.715 485.904 215.161 485.817 215.66 485.817C216.362 485.817 216.912 485.971 217.313 486.278C217.716 486.586 218.002 486.992 218.171 487.497ZM222.914 493.148C222.23 493.148 221.641 492.997 221.145 492.695C220.653 492.391 220.273 491.966 220.005 491.421C219.74 490.873 219.608 490.236 219.608 489.51C219.608 488.784 219.74 488.143 220.005 487.589C220.273 487.032 220.645 486.598 221.122 486.288C221.602 485.974 222.163 485.817 222.803 485.817C223.172 485.817 223.537 485.878 223.897 486.001C224.257 486.125 224.585 486.325 224.88 486.602C225.176 486.875 225.411 487.239 225.586 487.691C225.762 488.143 225.85 488.701 225.85 489.362V489.824H220.384V488.882H224.742C224.742 488.482 224.662 488.125 224.502 487.811C224.345 487.497 224.12 487.249 223.828 487.068C223.538 486.886 223.197 486.795 222.803 486.795C222.369 486.795 221.993 486.903 221.676 487.119C221.362 487.331 221.121 487.608 220.952 487.95C220.782 488.291 220.698 488.657 220.698 489.048V489.676C220.698 490.212 220.79 490.666 220.975 491.038C221.162 491.407 221.422 491.689 221.755 491.883C222.087 492.074 222.473 492.169 222.914 492.169C223.2 492.169 223.458 492.129 223.689 492.049C223.923 491.966 224.125 491.843 224.294 491.68C224.463 491.513 224.594 491.307 224.686 491.061L225.739 491.357C225.628 491.714 225.442 492.027 225.18 492.298C224.919 492.566 224.595 492.775 224.211 492.926C223.826 493.074 223.394 493.148 222.914 493.148ZM230.184 493.148C229.594 493.148 229.072 492.998 228.619 492.7C228.167 492.398 227.813 491.974 227.558 491.426C227.302 490.875 227.175 490.224 227.175 489.473C227.175 488.728 227.302 488.082 227.558 487.534C227.813 486.986 228.169 486.563 228.624 486.265C229.08 485.966 229.606 485.817 230.203 485.817C230.665 485.817 231.029 485.894 231.297 486.048C231.568 486.198 231.774 486.371 231.916 486.565C232.06 486.755 232.173 486.912 232.253 487.036H232.345V483.545H233.434V493H232.382V491.911H232.253C232.173 492.04 232.059 492.203 231.911 492.4C231.763 492.594 231.552 492.768 231.279 492.922C231.005 493.072 230.64 493.148 230.184 493.148ZM230.332 492.169C230.769 492.169 231.139 492.055 231.44 491.827C231.742 491.597 231.971 491.278 232.128 490.872C232.285 490.462 232.363 489.99 232.363 489.455C232.363 488.925 232.287 488.462 232.133 488.065C231.979 487.665 231.751 487.354 231.449 487.132C231.148 486.908 230.775 486.795 230.332 486.795C229.871 486.795 229.486 486.914 229.178 487.151C228.873 487.385 228.644 487.703 228.49 488.107C228.339 488.507 228.264 488.956 228.264 489.455C228.264 489.959 228.341 490.418 228.495 490.83C228.652 491.24 228.883 491.566 229.187 491.809C229.495 492.049 229.877 492.169 230.332 492.169ZM241.915 493.148C241.324 493.148 240.802 492.998 240.35 492.7C239.898 492.398 239.544 491.974 239.288 491.426C239.033 490.875 238.905 490.224 238.905 489.473C238.905 488.728 239.033 488.082 239.288 487.534C239.544 486.986 239.899 486.563 240.355 486.265C240.81 485.966 241.336 485.817 241.933 485.817C242.395 485.817 242.76 485.894 243.028 486.048C243.298 486.198 243.505 486.371 243.646 486.565C243.791 486.755 243.903 486.912 243.983 487.036H244.075V483.545H245.165V493H244.112V491.911H243.983C243.903 492.04 243.789 492.203 243.642 492.4C243.494 492.594 243.283 492.768 243.009 492.922C242.735 493.072 242.37 493.148 241.915 493.148ZM242.063 492.169C242.5 492.169 242.869 492.055 243.171 491.827C243.472 491.597 243.702 491.278 243.858 490.872C244.015 490.462 244.094 489.99 244.094 489.455C244.094 488.925 244.017 488.462 243.863 488.065C243.709 487.665 243.481 487.354 243.18 487.132C242.878 486.908 242.506 486.795 242.063 486.795C241.601 486.795 241.216 486.914 240.909 487.151C240.604 487.385 240.375 487.703 240.221 488.107C240.07 488.507 239.994 488.956 239.994 489.455C239.994 489.959 240.071 490.418 240.225 490.83C240.382 491.24 240.613 491.566 240.918 491.809C241.226 492.049 241.607 492.169 242.063 492.169ZM250.285 493.148C249.601 493.148 249.012 492.997 248.517 492.695C248.024 492.391 247.644 491.966 247.376 491.421C247.112 490.873 246.979 490.236 246.979 489.51C246.979 488.784 247.112 488.143 247.376 487.589C247.644 487.032 248.016 486.598 248.493 486.288C248.974 485.974 249.534 485.817 250.174 485.817C250.543 485.817 250.908 485.878 251.268 486.001C251.628 486.125 251.956 486.325 252.251 486.602C252.547 486.875 252.782 487.239 252.958 487.691C253.133 488.143 253.221 488.701 253.221 489.362V489.824H247.755V488.882H252.113C252.113 488.482 252.033 488.125 251.873 487.811C251.716 487.497 251.491 487.249 251.199 487.068C250.909 486.886 250.568 486.795 250.174 486.795C249.74 486.795 249.364 486.903 249.047 487.119C248.733 487.331 248.492 487.608 248.323 487.95C248.153 488.291 248.069 488.657 248.069 489.048V489.676C248.069 490.212 248.161 490.666 248.346 491.038C248.533 491.407 248.794 491.689 249.126 491.883C249.458 492.074 249.845 492.169 250.285 492.169C250.571 492.169 250.829 492.129 251.06 492.049C251.294 491.966 251.496 491.843 251.665 491.68C251.834 491.513 251.965 491.307 252.057 491.061L253.11 491.357C252.999 491.714 252.813 492.027 252.551 492.298C252.29 492.566 251.967 492.775 251.582 492.926C251.197 493.074 250.765 493.148 250.285 493.148ZM257.962 485.909V486.832H254.287V485.909H257.962ZM255.358 484.21H256.448V490.969C256.448 491.277 256.492 491.507 256.581 491.661C256.674 491.812 256.791 491.914 256.932 491.966C257.077 492.015 257.229 492.04 257.389 492.04C257.509 492.04 257.608 492.034 257.685 492.021C257.762 492.006 257.823 491.994 257.869 491.984L258.091 492.963C258.017 492.991 257.914 493.018 257.782 493.046C257.649 493.077 257.482 493.092 257.279 493.092C256.971 493.092 256.669 493.026 256.374 492.894C256.081 492.761 255.838 492.56 255.644 492.289C255.454 492.018 255.358 491.677 255.358 491.264V484.21ZM261.687 493.166C261.238 493.166 260.83 493.082 260.464 492.912C260.098 492.74 259.807 492.492 259.591 492.169C259.376 491.843 259.268 491.449 259.268 490.987C259.268 490.581 259.348 490.252 259.508 489.999C259.668 489.744 259.882 489.544 260.15 489.399C260.418 489.254 260.713 489.147 261.036 489.076C261.363 489.002 261.69 488.944 262.02 488.901C262.451 488.845 262.8 488.804 263.068 488.776C263.338 488.745 263.535 488.694 263.659 488.624C263.785 488.553 263.848 488.43 263.848 488.254V488.217C263.848 487.762 263.723 487.408 263.474 487.156C263.228 486.903 262.854 486.777 262.352 486.777C261.832 486.777 261.424 486.891 261.129 487.119C260.833 487.346 260.626 487.589 260.506 487.848L259.471 487.479C259.656 487.048 259.902 486.712 260.21 486.472C260.521 486.229 260.859 486.06 261.226 485.964C261.595 485.866 261.958 485.817 262.315 485.817C262.543 485.817 262.805 485.844 263.1 485.9C263.398 485.952 263.686 486.061 263.963 486.228C264.243 486.394 264.476 486.645 264.66 486.98C264.845 487.316 264.937 487.765 264.937 488.328V493H263.848V492.04H263.792C263.719 492.194 263.595 492.358 263.423 492.534C263.251 492.709 263.021 492.858 262.735 492.982C262.449 493.105 262.1 493.166 261.687 493.166ZM261.854 492.188C262.284 492.188 262.648 492.103 262.943 491.934C263.242 491.764 263.466 491.546 263.617 491.278C263.771 491.01 263.848 490.729 263.848 490.433V489.436C263.802 489.491 263.7 489.542 263.543 489.588C263.389 489.632 263.211 489.67 263.008 489.704C262.808 489.735 262.612 489.762 262.421 489.787C262.234 489.808 262.081 489.827 261.964 489.842C261.681 489.879 261.416 489.939 261.17 490.022C260.927 490.102 260.73 490.224 260.579 490.387C260.432 490.547 260.358 490.766 260.358 491.043C260.358 491.421 260.498 491.707 260.778 491.901C261.061 492.092 261.42 492.188 261.854 492.188ZM266.926 493V485.909H268.015V493H266.926ZM267.48 484.727C267.267 484.727 267.084 484.655 266.93 484.51C266.78 484.366 266.704 484.192 266.704 483.989C266.704 483.786 266.78 483.612 266.93 483.467C267.084 483.322 267.267 483.25 267.48 483.25C267.692 483.25 267.874 483.322 268.025 483.467C268.178 483.612 268.255 483.786 268.255 483.989C268.255 484.192 268.178 484.366 268.025 484.51C267.874 484.655 267.692 484.727 267.48 484.727ZM271.1 483.545V493H270.011V483.545H271.1ZM278.119 487.497L277.14 487.774C277.078 487.611 276.987 487.453 276.867 487.299C276.751 487.142 276.59 487.012 276.387 486.911C276.184 486.809 275.924 486.759 275.607 486.759C275.173 486.759 274.812 486.859 274.522 487.059C274.236 487.256 274.093 487.506 274.093 487.811C274.093 488.082 274.191 488.296 274.388 488.453C274.585 488.61 274.893 488.741 275.312 488.845L276.364 489.104C276.998 489.258 277.471 489.493 277.782 489.81C278.092 490.124 278.248 490.529 278.248 491.024C278.248 491.43 278.131 491.794 277.897 492.114C277.666 492.434 277.343 492.686 276.927 492.871C276.512 493.055 276.029 493.148 275.478 493.148C274.755 493.148 274.156 492.991 273.682 492.677C273.208 492.363 272.908 491.904 272.782 491.301L273.816 491.043C273.914 491.424 274.101 491.71 274.375 491.901C274.652 492.092 275.013 492.188 275.459 492.188C275.967 492.188 276.37 492.08 276.669 491.864C276.971 491.646 277.121 491.384 277.121 491.08C277.121 490.833 277.035 490.627 276.863 490.461C276.69 490.292 276.426 490.165 276.069 490.082L274.887 489.805C274.238 489.652 273.761 489.413 273.456 489.09C273.154 488.764 273.003 488.356 273.003 487.866C273.003 487.466 273.116 487.112 273.34 486.805C273.568 486.497 273.878 486.255 274.268 486.08C274.662 485.904 275.109 485.817 275.607 485.817C276.309 485.817 276.86 485.971 277.26 486.278C277.663 486.586 277.949 486.992 278.119 487.497Z" fill="white"/>
<rect x="527" y="732" width="102" height="66" fill="#26FF00"/>
<path d="M560.057 769V760.273H563.006C563.69 760.273 564.25 760.396 564.685 760.643C565.122 760.888 565.446 761.219 565.656 761.636C565.866 762.054 565.972 762.52 565.972 763.034C565.972 763.548 565.866 764.016 565.656 764.436C565.449 764.857 565.128 765.192 564.693 765.442C564.259 765.689 563.702 765.812 563.023 765.812H560.909V764.875H562.989C563.457 764.875 563.834 764.794 564.118 764.632C564.402 764.47 564.608 764.251 564.736 763.976C564.866 763.697 564.932 763.384 564.932 763.034C564.932 762.685 564.866 762.372 564.736 762.097C564.608 761.821 564.401 761.605 564.114 761.449C563.827 761.29 563.446 761.21 562.972 761.21H561.114V769H560.057ZM567.141 769H566.033L569.238 760.273H570.329L573.533 769H572.425L569.817 761.653H569.749L567.141 769ZM567.55 765.591H572.016V766.528H567.55V765.591ZM573.252 760.273H574.462L576.883 764.347H576.985L579.406 760.273H580.616L577.462 765.403V769H576.406V765.403L573.252 760.273Z" fill="black"/>
<rect x="22" y="32" width="102" height="66" fill="white"/>
<path d="M59.8295 62.4545C59.7784 62.0227 59.571 61.6875 59.2074 61.4489C58.8438 61.2102 58.3977 61.0909 57.8693 61.0909C57.483 61.0909 57.1449 61.1534 56.8551 61.2784C56.5682 61.4034 56.3438 61.5753 56.1818 61.794C56.0227 62.0128 55.9432 62.2614 55.9432 62.5398C55.9432 62.7727 55.9986 62.973 56.1094 63.1406C56.223 63.3054 56.3679 63.4432 56.544 63.554C56.7202 63.6619 56.9048 63.7514 57.098 63.8224C57.2912 63.8906 57.4688 63.946 57.6307 63.9886L58.517 64.2273C58.7443 64.2869 58.9972 64.3693 59.2756 64.4744C59.5568 64.5795 59.8253 64.723 60.081 64.9048C60.3395 65.0838 60.5526 65.3139 60.7202 65.5952C60.8878 65.8764 60.9716 66.2216 60.9716 66.6307C60.9716 67.1023 60.848 67.5284 60.6009 67.9091C60.3565 68.2898 59.9986 68.5923 59.527 68.8168C59.0582 69.0412 58.4886 69.1534 57.8182 69.1534C57.1932 69.1534 56.652 69.0526 56.1946 68.8509C55.7401 68.6491 55.3821 68.3679 55.1207 68.0071C54.8622 67.6463 54.7159 67.2273 54.6818 66.75H55.7727C55.8011 67.0795 55.9119 67.3523 56.1051 67.5682C56.3011 67.7812 56.5483 67.9403 56.8466 68.0455C57.1477 68.1477 57.4716 68.1989 57.8182 68.1989C58.2216 68.1989 58.5838 68.1335 58.9048 68.0028C59.2259 67.8693 59.4801 67.6847 59.6676 67.4489C59.8551 67.2102 59.9489 66.9318 59.9489 66.6136C59.9489 66.3239 59.8679 66.0881 59.706 65.9062C59.544 65.7244 59.331 65.5767 59.0668 65.4631C58.8026 65.3494 58.517 65.25 58.2102 65.1648L57.1364 64.858C56.4545 64.6619 55.9148 64.3821 55.517 64.0185C55.1193 63.6548 54.9205 63.179 54.9205 62.5909C54.9205 62.1023 55.0526 61.6761 55.3168 61.3125C55.5838 60.946 55.9418 60.6619 56.3906 60.4602C56.8423 60.2557 57.3466 60.1534 57.9034 60.1534C58.4659 60.1534 58.9659 60.2543 59.4034 60.456C59.8409 60.6548 60.1875 60.9276 60.4432 61.2741C60.7017 61.6207 60.8381 62.0142 60.8523 62.4545H59.8295ZM68.4364 60.2727H69.4933V66.0511C69.4933 66.6477 69.3526 67.1804 69.0714 67.6491C68.793 68.1151 68.3995 68.483 67.891 68.7528C67.3825 69.0199 66.7859 69.1534 66.1012 69.1534C65.4165 69.1534 64.82 69.0199 64.3114 68.7528C63.8029 68.483 63.408 68.1151 63.1268 67.6491C62.8484 67.1804 62.7092 66.6477 62.7092 66.0511V60.2727H63.766V65.9659C63.766 66.392 63.8597 66.7713 64.0472 67.1037C64.2347 67.4332 64.5018 67.6932 64.8484 67.8835C65.1978 68.071 65.6154 68.1648 66.1012 68.1648C66.587 68.1648 67.0046 68.071 67.354 67.8835C67.7035 67.6932 67.9705 67.4332 68.1552 67.1037C68.3427 66.7713 68.4364 66.392 68.4364 65.9659V60.2727ZM71.6037 69V60.2727H74.5526C75.2344 60.2727 75.794 60.3892 76.2315 60.6222C76.669 60.8523 76.9929 61.169 77.2031 61.5724C77.4134 61.9759 77.5185 62.4347 77.5185 62.9489C77.5185 63.4631 77.4134 63.919 77.2031 64.3168C76.9929 64.7145 76.6705 65.027 76.2358 65.2543C75.8011 65.4787 75.2457 65.5909 74.5696 65.5909H72.1832V64.6364H74.5355C75.0014 64.6364 75.3764 64.5682 75.6605 64.4318C75.9474 64.2955 76.1548 64.1023 76.2827 63.8523C76.4134 63.5994 76.4787 63.2983 76.4787 62.9489C76.4787 62.5994 76.4134 62.294 76.2827 62.0327C76.152 61.7713 75.9432 61.5696 75.6562 61.4276C75.3693 61.2827 74.9901 61.2102 74.5185 61.2102H72.6605V69H71.6037ZM75.7116 65.0795L77.8594 69H76.6321L74.5185 65.0795H75.7116ZM79.4382 60.2727L82.0291 67.6193H82.1314L84.7223 60.2727H85.8303L82.6257 69H81.5348L78.3303 60.2727H79.4382ZM87.1896 69V60.2727H92.4567V61.2102H88.2464V64.1591H92.1839V65.0966H88.2464V68.0625H92.5249V69H87.1896ZM93.6115 60.2727H94.8217L97.2422 64.3466H97.3445L99.7649 60.2727H100.975L97.8217 65.4034V69H96.7649V65.4034L93.6115 60.2727Z" fill="black"/>
</svg>
