<svg width="661" height="832" viewBox="0 0 661 832" fill="none" xmlns="http://www.w3.org/2000/svg">
<rect width="661" height="832" fill="#FFD900"/>
<path d="M312.136 416L315.955 392.727H318.227L314.409 416H312.136ZM301.545 409.545L301.909 407.273H319.273L318.909 409.545H301.545ZM303.955 416L307.773 392.727H310.045L306.227 416H303.955ZM302.909 401.455L303.273 399.182H320.636L320.273 401.455H302.909ZM323.597 416V413.955L331.278 405.545C332.18 404.561 332.922 403.705 333.506 402.977C334.089 402.242 334.521 401.553 334.801 400.909C335.089 400.258 335.233 399.576 335.233 398.864C335.233 398.045 335.036 397.337 334.642 396.739C334.256 396.14 333.725 395.678 333.051 395.352C332.377 395.027 331.619 394.864 330.778 394.864C329.884 394.864 329.104 395.049 328.438 395.42C327.778 395.784 327.267 396.295 326.903 396.955C326.547 397.614 326.369 398.386 326.369 399.273H323.688C323.688 397.909 324.002 396.712 324.631 395.682C325.259 394.652 326.116 393.848 327.199 393.273C328.29 392.697 329.513 392.409 330.869 392.409C332.233 392.409 333.441 392.697 334.494 393.273C335.547 393.848 336.373 394.625 336.972 395.602C337.57 396.58 337.869 397.667 337.869 398.864C337.869 399.72 337.714 400.557 337.403 401.375C337.1 402.186 336.57 403.091 335.812 404.091C335.062 405.083 334.021 406.295 332.688 407.727L327.46 413.318V413.5H338.278V416H323.597ZM350.835 416.318C349.335 416.318 347.998 416.061 346.824 415.545C345.657 415.03 344.729 414.314 344.04 413.398C343.358 412.473 342.987 411.402 342.926 410.182H345.79C345.85 410.932 346.108 411.58 346.562 412.125C347.017 412.663 347.612 413.08 348.347 413.375C349.081 413.67 349.896 413.818 350.79 413.818C351.79 413.818 352.676 413.644 353.449 413.295C354.222 412.947 354.828 412.462 355.267 411.841C355.706 411.22 355.926 410.5 355.926 409.682C355.926 408.826 355.714 408.072 355.29 407.42C354.866 406.761 354.244 406.246 353.426 405.875C352.608 405.504 351.608 405.318 350.426 405.318H348.562V402.818H350.426C351.35 402.818 352.161 402.652 352.858 402.318C353.563 401.985 354.112 401.515 354.506 400.909C354.907 400.303 355.108 399.591 355.108 398.773C355.108 397.985 354.934 397.299 354.585 396.716C354.237 396.133 353.744 395.678 353.108 395.352C352.479 395.027 351.737 394.864 350.881 394.864C350.078 394.864 349.32 395.011 348.608 395.307C347.903 395.595 347.328 396.015 346.881 396.568C346.434 397.114 346.191 397.773 346.153 398.545H343.426C343.472 397.326 343.839 396.258 344.528 395.341C345.218 394.417 346.119 393.697 347.233 393.182C348.354 392.667 349.585 392.409 350.926 392.409C352.366 392.409 353.6 392.701 354.631 393.284C355.661 393.86 356.453 394.621 357.006 395.568C357.559 396.515 357.835 397.538 357.835 398.636C357.835 399.947 357.491 401.064 356.801 401.989C356.119 402.913 355.191 403.553 354.017 403.909V404.091C355.487 404.333 356.634 404.958 357.46 405.966C358.286 406.966 358.699 408.205 358.699 409.682C358.699 410.947 358.354 412.083 357.665 413.091C356.983 414.091 356.051 414.879 354.869 415.455C353.688 416.03 352.343 416.318 350.835 416.318Z" fill="black"/>
<rect x="526" y="736" width="102" height="66" fill="#26FF00"/>
<path d="M567.42 773V764.273H570.369C571.054 764.273 571.613 764.396 572.048 764.643C572.485 764.888 572.809 765.219 573.019 765.636C573.23 766.054 573.335 766.52 573.335 767.034C573.335 767.548 573.23 768.016 573.019 768.436C572.812 768.857 572.491 769.192 572.056 769.442C571.622 769.689 571.065 769.812 570.386 769.812H568.272V768.875H570.352C570.821 768.875 571.197 768.794 571.481 768.632C571.765 768.47 571.971 768.251 572.099 767.976C572.23 767.697 572.295 767.384 572.295 767.034C572.295 766.685 572.23 766.372 572.099 766.097C571.971 765.821 571.764 765.605 571.477 765.449C571.19 765.29 570.809 765.21 570.335 765.21H568.477V773H567.42ZM574.505 773H573.397L576.601 764.273H577.692L580.897 773H579.789L577.181 765.653H577.112L574.505 773ZM574.914 769.591H579.38V770.528H574.914V769.591ZM580.615 764.273H581.826L584.246 768.347H584.348L586.769 764.273H587.979L584.826 769.403V773H583.769V769.403L580.615 764.273Z" fill="black"/>
<rect x="33" y="736" width="102" height="66" fill="black"/>
<path d="M65.0568 764.273H66.3182L69.2841 771.517H69.3864L72.3523 764.273H73.6136V773H72.625V766.369H72.5398L69.8125 773H68.858L66.1307 766.369H66.0455V773H65.0568V764.273ZM75.7326 773V764.273H80.9996V765.21H76.7894V768.159H80.7269V769.097H76.7894V772.062H81.0678V773H75.7326ZM89.8249 764.273V773H88.8022L84.0465 766.148H83.9613V773H82.9045V764.273H83.9272L88.6999 771.142H88.7852V764.273H89.8249ZM97.6669 764.273H98.7237V770.051C98.7237 770.648 98.5831 771.18 98.3018 771.649C98.0234 772.115 97.63 772.483 97.1214 772.753C96.6129 773.02 96.0163 773.153 95.3317 773.153C94.647 773.153 94.0504 773.02 93.5419 772.753C93.0334 772.483 92.6385 772.115 92.3572 771.649C92.0788 771.18 91.9396 770.648 91.9396 770.051V764.273H92.9964V769.966C92.9964 770.392 93.0902 770.771 93.2777 771.104C93.4652 771.433 93.7322 771.693 94.0788 771.884C94.4283 772.071 94.8459 772.165 95.3317 772.165C95.8175 772.165 96.2351 772.071 96.5845 771.884C96.9339 771.693 97.201 771.433 97.3857 771.104C97.5732 770.771 97.6669 770.392 97.6669 769.966V764.273Z" fill="white"/>
<path d="M293.42 75.6364C293.42 76.5568 293.254 77.3523 292.922 78.0227C292.589 78.6932 292.134 79.2102 291.554 79.5739C290.974 79.9375 290.313 80.1193 289.568 80.1193C288.824 80.1193 288.162 79.9375 287.582 79.5739C287.003 79.2102 286.547 78.6932 286.214 78.0227C285.882 77.3523 285.716 76.5568 285.716 75.6364C285.716 74.7159 285.882 73.9205 286.214 73.25C286.547 72.5795 287.003 72.0625 287.582 71.6989C288.162 71.3352 288.824 71.1534 289.568 71.1534C290.313 71.1534 290.974 71.3352 291.554 71.6989C292.134 72.0625 292.589 72.5795 292.922 73.25C293.254 73.9205 293.42 74.7159 293.42 75.6364ZM292.398 75.6364C292.398 74.8807 292.271 74.2429 292.018 73.723C291.768 73.2031 291.429 72.8097 291 72.5426C290.574 72.2756 290.097 72.142 289.568 72.142C289.04 72.142 288.561 72.2756 288.132 72.5426C287.706 72.8097 287.366 73.2031 287.114 73.723C286.864 74.2429 286.739 74.8807 286.739 75.6364C286.739 76.392 286.864 77.0298 287.114 77.5497C287.366 78.0696 287.706 78.4631 288.132 78.7301C288.561 78.9972 289.04 79.1307 289.568 79.1307C290.097 79.1307 290.574 78.9972 291 78.7301C291.429 78.4631 291.768 78.0696 292.018 77.5497C292.271 77.0298 292.398 76.392 292.398 75.6364ZM295.197 80V71.2727H298.146C298.828 71.2727 299.388 71.3892 299.825 71.6222C300.263 71.8523 300.587 72.169 300.797 72.5724C301.007 72.9759 301.112 73.4347 301.112 73.9489C301.112 74.4631 301.007 74.919 300.797 75.3168C300.587 75.7145 300.264 76.027 299.83 76.2543C299.395 76.4787 298.839 76.5909 298.163 76.5909H295.777V75.6364H298.129C298.595 75.6364 298.97 75.5682 299.254 75.4318C299.541 75.2955 299.749 75.1023 299.876 74.8523C300.007 74.5994 300.072 74.2983 300.072 73.9489C300.072 73.5994 300.007 73.294 299.876 73.0327C299.746 72.7713 299.537 72.5696 299.25 72.4276C298.963 72.2827 298.584 72.2102 298.112 72.2102H296.254V80H295.197ZM299.305 76.0795L301.453 80H300.226L298.112 76.0795H299.305ZM305.566 80H302.873V71.2727H305.686C306.532 71.2727 307.257 71.4474 307.859 71.7969C308.461 72.1435 308.923 72.642 309.244 73.2926C309.565 73.9403 309.725 74.7159 309.725 75.6193C309.725 76.5284 309.564 77.3111 309.24 77.9673C308.916 78.6207 308.444 79.1236 307.825 79.4759C307.206 79.8253 306.453 80 305.566 80ZM303.93 79.0625H305.498C306.22 79.0625 306.818 78.9233 307.292 78.6449C307.767 78.3665 308.12 77.9702 308.353 77.456C308.586 76.9418 308.703 76.3295 308.703 75.6193C308.703 74.9148 308.588 74.3082 308.358 73.7997C308.127 73.2884 307.784 72.8963 307.326 72.6236C306.869 72.348 306.299 72.2102 305.618 72.2102H303.93V79.0625ZM311.498 80V71.2727H316.765V72.2102H312.555V75.1591H316.493V76.0966H312.555V79.0625H316.833V80H311.498ZM318.67 80V71.2727H321.619C322.301 71.2727 322.86 71.3892 323.298 71.6222C323.735 71.8523 324.059 72.169 324.27 72.5724C324.48 72.9759 324.585 73.4347 324.585 73.9489C324.585 74.4631 324.48 74.919 324.27 75.3168C324.059 75.7145 323.737 76.027 323.302 76.2543C322.868 76.4787 322.312 76.5909 321.636 76.5909H319.25V75.6364H321.602C322.068 75.6364 322.443 75.5682 322.727 75.4318C323.014 75.2955 323.221 75.1023 323.349 74.8523C323.48 74.5994 323.545 74.2983 323.545 73.9489C323.545 73.5994 323.48 73.294 323.349 73.0327C323.218 72.7713 323.01 72.5696 322.723 72.4276C322.436 72.2827 322.056 72.2102 321.585 72.2102H319.727V80H318.67ZM322.778 76.0795L324.926 80H323.699L321.585 76.0795H322.778ZM332.414 80H329.721V71.2727H332.533C333.38 71.2727 334.104 71.4474 334.707 71.7969C335.309 72.1435 335.771 72.642 336.092 73.2926C336.413 73.9403 336.573 74.7159 336.573 75.6193C336.573 76.5284 336.411 77.3111 336.087 77.9673C335.763 78.6207 335.292 79.1236 334.673 79.4759C334.053 79.8253 333.3 80 332.414 80ZM330.778 79.0625H332.346C333.067 79.0625 333.665 78.9233 334.14 78.6449C334.614 78.3665 334.968 77.9702 335.201 77.456C335.434 76.9418 335.55 76.3295 335.55 75.6193C335.55 74.9148 335.435 74.3082 335.205 73.7997C334.975 73.2884 334.631 72.8963 334.174 72.6236C333.717 72.348 333.147 72.2102 332.465 72.2102H330.778V79.0625ZM338.346 80V71.2727H343.613V72.2102H339.403V75.1591H343.34V76.0966H339.403V79.0625H343.681V80H338.346ZM345.04 72.2102V71.2727H351.586V72.2102H348.842V80H347.785V72.2102H345.04ZM352.555 80H351.447L354.652 71.2727H355.743L358.947 80H357.839L355.232 72.6534H355.163L352.555 80ZM352.964 76.5909H357.43V77.5284H352.964V76.5909ZM361.364 71.2727V80H360.307V71.2727H361.364ZM363.483 80V71.2727H364.539V79.0625H368.596V80H363.483ZM375.005 73.4545C374.954 73.0227 374.747 72.6875 374.383 72.4489C374.02 72.2102 373.574 72.0909 373.045 72.0909C372.659 72.0909 372.321 72.1534 372.031 72.2784C371.744 72.4034 371.52 72.5753 371.358 72.794C371.199 73.0128 371.119 73.2614 371.119 73.5398C371.119 73.7727 371.174 73.973 371.285 74.1406C371.399 74.3054 371.544 74.4432 371.72 74.554C371.896 74.6619 372.081 74.7514 372.274 74.8224C372.467 74.8906 372.645 74.946 372.806 74.9886L373.693 75.2273C373.92 75.2869 374.173 75.3693 374.451 75.4744C374.733 75.5795 375.001 75.723 375.257 75.9048C375.515 76.0838 375.728 76.3139 375.896 76.5952C376.064 76.8764 376.147 77.2216 376.147 77.6307C376.147 78.1023 376.024 78.5284 375.777 78.9091C375.532 79.2898 375.174 79.5923 374.703 79.8168C374.234 80.0412 373.664 80.1534 372.994 80.1534C372.369 80.1534 371.828 80.0526 371.37 79.8509C370.916 79.6491 370.558 79.3679 370.297 79.0071C370.038 78.6463 369.892 78.2273 369.858 77.75H370.949C370.977 78.0795 371.088 78.3523 371.281 78.5682C371.477 78.7812 371.724 78.9403 372.022 79.0455C372.324 79.1477 372.647 79.1989 372.994 79.1989C373.397 79.1989 373.76 79.1335 374.081 79.0028C374.402 78.8693 374.656 78.6847 374.843 78.4489C375.031 78.2102 375.125 77.9318 375.125 77.6136C375.125 77.3239 375.044 77.0881 374.882 76.9062C374.72 76.7244 374.507 76.5767 374.243 76.4631C373.978 76.3494 373.693 76.25 373.386 76.1648L372.312 75.858C371.63 75.6619 371.091 75.3821 370.693 75.0185C370.295 74.6548 370.096 74.179 370.096 73.5909C370.096 73.1023 370.228 72.6761 370.493 72.3125C370.76 71.946 371.118 71.6619 371.566 71.4602C372.018 71.2557 372.522 71.1534 373.079 71.1534C373.642 71.1534 374.142 71.2543 374.579 71.456C375.017 71.6548 375.363 71.9276 375.619 72.2741C375.877 72.6207 376.014 73.0142 376.028 73.4545H375.005Z" fill="black"/>
<path d="M251.307 350.273H252.517L254.938 354.347H255.04L257.46 350.273H258.67L255.517 355.403V359H254.46V355.403L251.307 350.273ZM261.634 359.136C261.043 359.136 260.525 358.996 260.079 358.714C259.636 358.433 259.289 358.04 259.039 357.534C258.792 357.028 258.668 356.437 258.668 355.761C258.668 355.08 258.792 354.484 259.039 353.976C259.289 353.467 259.636 353.072 260.079 352.791C260.525 352.51 261.043 352.369 261.634 352.369C262.225 352.369 262.742 352.51 263.185 352.791C263.631 353.072 263.978 353.467 264.225 353.976C264.475 354.484 264.6 355.08 264.6 355.761C264.6 356.437 264.475 357.028 264.225 357.534C263.978 358.04 263.631 358.433 263.185 358.714C262.742 358.996 262.225 359.136 261.634 359.136ZM261.634 358.233C262.083 358.233 262.452 358.118 262.742 357.888C263.032 357.658 263.246 357.355 263.386 356.98C263.525 356.605 263.594 356.199 263.594 355.761C263.594 355.324 263.525 354.916 263.386 354.538C263.246 354.161 263.032 353.855 262.742 353.622C262.452 353.389 262.083 353.273 261.634 353.273C261.185 353.273 260.816 353.389 260.526 353.622C260.237 353.855 260.022 354.161 259.883 354.538C259.744 354.916 259.674 355.324 259.674 355.761C259.674 356.199 259.744 356.605 259.883 356.98C260.022 357.355 260.237 357.658 260.526 357.888C260.816 358.118 261.185 358.233 261.634 358.233ZM270.26 356.324V352.455H271.266V359H270.26V357.892H270.192C270.039 358.224 269.8 358.507 269.476 358.74C269.152 358.97 268.743 359.085 268.249 359.085C267.84 359.085 267.476 358.996 267.158 358.817C266.84 358.635 266.59 358.362 266.408 357.999C266.226 357.632 266.135 357.17 266.135 356.614V352.455H267.141V356.545C267.141 357.023 267.275 357.403 267.542 357.688C267.811 357.972 268.155 358.114 268.573 358.114C268.823 358.114 269.077 358.05 269.336 357.922C269.597 357.794 269.816 357.598 269.992 357.334C270.171 357.07 270.26 356.733 270.26 356.324ZM273.108 359V352.455H274.08V353.443H274.148C274.267 353.119 274.483 352.857 274.795 352.655C275.108 352.453 275.46 352.352 275.852 352.352C275.926 352.352 276.018 352.354 276.129 352.357C276.24 352.359 276.324 352.364 276.381 352.369V353.392C276.347 353.384 276.268 353.371 276.146 353.354C276.027 353.334 275.901 353.324 275.767 353.324C275.449 353.324 275.165 353.391 274.915 353.524C274.668 353.655 274.472 353.837 274.327 354.07C274.185 354.3 274.114 354.562 274.114 354.858V359H273.108ZM283.607 359.136C283.016 359.136 282.498 358.996 282.051 358.714C281.608 358.433 281.262 358.04 281.012 357.534C280.765 357.028 280.641 356.437 280.641 355.761C280.641 355.08 280.765 354.484 281.012 353.976C281.262 353.467 281.608 353.072 282.051 352.791C282.498 352.51 283.016 352.369 283.607 352.369C284.198 352.369 284.715 352.51 285.158 352.791C285.604 353.072 285.951 353.467 286.198 353.976C286.448 354.484 286.573 355.08 286.573 355.761C286.573 356.437 286.448 357.028 286.198 357.534C285.951 358.04 285.604 358.433 285.158 358.714C284.715 358.996 284.198 359.136 283.607 359.136ZM283.607 358.233C284.056 358.233 284.425 358.118 284.715 357.888C285.005 357.658 285.219 357.355 285.358 356.98C285.498 356.605 285.567 356.199 285.567 355.761C285.567 355.324 285.498 354.916 285.358 354.538C285.219 354.161 285.005 353.855 284.715 353.622C284.425 353.389 284.056 353.273 283.607 353.273C283.158 353.273 282.789 353.389 282.499 353.622C282.209 353.855 281.995 354.161 281.855 354.538C281.716 354.916 281.647 355.324 281.647 355.761C281.647 356.199 281.716 356.605 281.855 356.98C281.995 357.355 282.209 357.658 282.499 357.888C282.789 358.118 283.158 358.233 283.607 358.233ZM288.108 359V352.455H289.08V353.443H289.148C289.267 353.119 289.483 352.857 289.795 352.655C290.108 352.453 290.46 352.352 290.852 352.352C290.926 352.352 291.018 352.354 291.129 352.357C291.24 352.359 291.324 352.364 291.381 352.369V353.392C291.347 353.384 291.268 353.371 291.146 353.354C291.027 353.334 290.901 353.324 290.767 353.324C290.449 353.324 290.165 353.391 289.915 353.524C289.668 353.655 289.472 353.837 289.327 354.07C289.185 354.3 289.114 354.562 289.114 354.858V359H288.108ZM294.845 359.136C294.3 359.136 293.818 358.999 293.401 358.723C292.983 358.445 292.656 358.053 292.42 357.547C292.185 357.038 292.067 356.438 292.067 355.744C292.067 355.057 292.185 354.46 292.42 353.955C292.656 353.449 292.984 353.058 293.405 352.783C293.825 352.507 294.311 352.369 294.862 352.369C295.288 352.369 295.625 352.44 295.872 352.582C296.122 352.722 296.313 352.881 296.443 353.06C296.577 353.236 296.68 353.381 296.754 353.494H296.839V350.273H297.845V359H296.874V357.994H296.754C296.68 358.114 296.575 358.264 296.439 358.446C296.303 358.625 296.108 358.786 295.855 358.928C295.602 359.067 295.266 359.136 294.845 359.136ZM294.982 358.233C295.385 358.233 295.726 358.128 296.004 357.918C296.283 357.705 296.494 357.411 296.639 357.036C296.784 356.658 296.857 356.222 296.857 355.727C296.857 355.239 296.786 354.811 296.643 354.445C296.501 354.075 296.291 353.788 296.013 353.584C295.734 353.376 295.391 353.273 294.982 353.273C294.555 353.273 294.2 353.382 293.916 353.601C293.635 353.817 293.423 354.111 293.281 354.483C293.142 354.852 293.072 355.267 293.072 355.727C293.072 356.193 293.143 356.616 293.286 356.997C293.43 357.375 293.643 357.676 293.925 357.901C294.209 358.122 294.561 358.233 294.982 358.233ZM302.571 359.136C301.94 359.136 301.396 358.997 300.939 358.719C300.484 358.438 300.134 358.045 299.886 357.543C299.642 357.037 299.52 356.449 299.52 355.778C299.52 355.108 299.642 354.517 299.886 354.006C300.134 353.491 300.477 353.091 300.918 352.804C301.361 352.514 301.878 352.369 302.469 352.369C302.81 352.369 303.146 352.426 303.479 352.54C303.811 352.653 304.114 352.838 304.386 353.094C304.659 353.347 304.876 353.682 305.038 354.099C305.2 354.517 305.281 355.031 305.281 355.642V356.068H300.236V355.199H304.259C304.259 354.83 304.185 354.5 304.037 354.21C303.892 353.92 303.685 353.692 303.415 353.524C303.148 353.357 302.832 353.273 302.469 353.273C302.068 353.273 301.722 353.372 301.429 353.571C301.139 353.767 300.916 354.023 300.76 354.338C300.604 354.653 300.526 354.991 300.526 355.352V355.932C300.526 356.426 300.611 356.845 300.781 357.189C300.955 357.53 301.195 357.79 301.501 357.969C301.808 358.145 302.165 358.233 302.571 358.233C302.835 358.233 303.074 358.196 303.287 358.122C303.503 358.045 303.689 357.932 303.845 357.781C304.001 357.628 304.122 357.437 304.207 357.21L305.179 357.483C305.077 357.812 304.905 358.102 304.663 358.352C304.422 358.599 304.124 358.793 303.768 358.932C303.413 359.068 303.014 359.136 302.571 359.136ZM306.811 359V352.455H307.783V353.443H307.851C307.97 353.119 308.186 352.857 308.499 352.655C308.811 352.453 309.163 352.352 309.555 352.352C309.629 352.352 309.722 352.354 309.832 352.357C309.943 352.359 310.027 352.364 310.084 352.369V353.392C310.05 353.384 309.972 353.371 309.849 353.354C309.73 353.334 309.604 353.324 309.47 353.324C309.152 353.324 308.868 353.391 308.618 353.524C308.371 353.655 308.175 353.837 308.03 354.07C307.888 354.3 307.817 354.562 307.817 354.858V359H306.811ZM315.657 355.062V359H314.651V350.273H315.657V353.477H315.742C315.895 353.139 316.125 352.871 316.432 352.672C316.742 352.47 317.154 352.369 317.668 352.369C318.114 352.369 318.505 352.459 318.84 352.638C319.175 352.814 319.435 353.085 319.62 353.452C319.807 353.815 319.901 354.278 319.901 354.841V359H318.895V354.909C318.895 354.389 318.76 353.987 318.49 353.703C318.223 353.416 317.853 353.273 317.378 353.273C317.049 353.273 316.753 353.342 316.492 353.482C316.233 353.621 316.029 353.824 315.878 354.091C315.73 354.358 315.657 354.682 315.657 355.062ZM323.667 359.153C323.252 359.153 322.876 359.075 322.538 358.919C322.2 358.76 321.931 358.531 321.732 358.233C321.533 357.932 321.434 357.568 321.434 357.142C321.434 356.767 321.508 356.463 321.656 356.23C321.803 355.994 322.001 355.81 322.248 355.676C322.495 355.543 322.768 355.443 323.066 355.378C323.367 355.31 323.67 355.256 323.974 355.216C324.371 355.165 324.694 355.126 324.941 355.101C325.191 355.072 325.373 355.026 325.487 354.96C325.603 354.895 325.661 354.781 325.661 354.619V354.585C325.661 354.165 325.546 353.838 325.316 353.605C325.089 353.372 324.744 353.256 324.281 353.256C323.8 353.256 323.424 353.361 323.151 353.571C322.879 353.781 322.687 354.006 322.576 354.244L321.621 353.903C321.792 353.506 322.019 353.196 322.303 352.974C322.59 352.75 322.903 352.594 323.241 352.506C323.582 352.415 323.917 352.369 324.246 352.369C324.457 352.369 324.698 352.395 324.971 352.446C325.246 352.494 325.512 352.595 325.768 352.749C326.026 352.902 326.241 353.134 326.411 353.443C326.582 353.753 326.667 354.168 326.667 354.688V359H325.661V358.114H325.61C325.542 358.256 325.428 358.408 325.269 358.57C325.11 358.732 324.898 358.869 324.634 358.983C324.37 359.097 324.048 359.153 323.667 359.153ZM323.82 358.25C324.218 358.25 324.553 358.172 324.826 358.016C325.102 357.859 325.309 357.658 325.448 357.411C325.59 357.163 325.661 356.903 325.661 356.631V355.71C325.619 355.761 325.525 355.808 325.38 355.851C325.238 355.891 325.073 355.926 324.886 355.957C324.701 355.986 324.521 356.011 324.344 356.034C324.171 356.054 324.031 356.071 323.923 356.085C323.661 356.119 323.417 356.175 323.19 356.251C322.965 356.325 322.783 356.437 322.644 356.588C322.508 356.736 322.44 356.937 322.44 357.193C322.44 357.543 322.569 357.807 322.827 357.986C323.089 358.162 323.42 358.25 323.82 358.25ZM333.139 353.92L332.235 354.176C332.179 354.026 332.095 353.879 331.984 353.737C331.876 353.592 331.728 353.473 331.541 353.379C331.353 353.286 331.113 353.239 330.821 353.239C330.42 353.239 330.086 353.331 329.819 353.516C329.555 353.697 329.423 353.929 329.423 354.21C329.423 354.46 329.514 354.658 329.696 354.803C329.877 354.947 330.162 355.068 330.548 355.165L331.52 355.403C332.105 355.545 332.541 355.763 332.828 356.055C333.115 356.345 333.258 356.719 333.258 357.176C333.258 357.551 333.15 357.886 332.934 358.182C332.721 358.477 332.423 358.71 332.039 358.881C331.656 359.051 331.21 359.136 330.701 359.136C330.034 359.136 329.481 358.991 329.044 358.702C328.606 358.412 328.329 357.989 328.213 357.432L329.167 357.193C329.258 357.545 329.43 357.81 329.683 357.986C329.939 358.162 330.272 358.25 330.684 358.25C331.153 358.25 331.525 358.151 331.801 357.952C332.079 357.75 332.218 357.509 332.218 357.227C332.218 357 332.139 356.81 331.98 356.656C331.821 356.5 331.576 356.384 331.247 356.307L330.156 356.051C329.556 355.909 329.116 355.689 328.835 355.391C328.556 355.089 328.417 354.713 328.417 354.261C328.417 353.892 328.521 353.565 328.728 353.281C328.939 352.997 329.224 352.774 329.585 352.612C329.949 352.45 330.36 352.369 330.821 352.369C331.468 352.369 331.977 352.511 332.346 352.795C332.718 353.08 332.983 353.455 333.139 353.92ZM338.283 359V350.273H339.289V353.494H339.374C339.448 353.381 339.55 353.236 339.681 353.06C339.815 352.881 340.005 352.722 340.252 352.582C340.502 352.44 340.84 352.369 341.266 352.369C341.817 352.369 342.303 352.507 342.724 352.783C343.144 353.058 343.472 353.449 343.708 353.955C343.944 354.46 344.062 355.057 344.062 355.744C344.062 356.438 343.944 357.038 343.708 357.547C343.472 358.053 343.146 358.445 342.728 358.723C342.31 358.999 341.829 359.136 341.283 359.136C340.863 359.136 340.526 359.067 340.273 358.928C340.021 358.786 339.826 358.625 339.69 358.446C339.553 358.264 339.448 358.114 339.374 357.994H339.255V359H338.283ZM339.272 355.727C339.272 356.222 339.344 356.658 339.489 357.036C339.634 357.411 339.846 357.705 340.124 357.918C340.403 358.128 340.744 358.233 341.147 358.233C341.567 358.233 341.918 358.122 342.2 357.901C342.484 357.676 342.697 357.375 342.839 356.997C342.984 356.616 343.056 356.193 343.056 355.727C343.056 355.267 342.985 354.852 342.843 354.483C342.704 354.111 342.492 353.817 342.208 353.601C341.927 353.382 341.573 353.273 341.147 353.273C340.738 353.273 340.394 353.376 340.116 353.584C339.837 353.788 339.627 354.075 339.485 354.445C339.343 354.811 339.272 355.239 339.272 355.727ZM348.344 359.136C347.714 359.136 347.17 358.997 346.712 358.719C346.258 358.438 345.907 358.045 345.66 357.543C345.415 357.037 345.293 356.449 345.293 355.778C345.293 355.108 345.415 354.517 345.66 354.006C345.907 353.491 346.251 353.091 346.691 352.804C347.134 352.514 347.651 352.369 348.242 352.369C348.583 352.369 348.92 352.426 349.252 352.54C349.585 352.653 349.887 352.838 350.16 353.094C350.433 353.347 350.65 353.682 350.812 354.099C350.974 354.517 351.055 355.031 351.055 355.642V356.068H346.009V355.199H350.032C350.032 354.83 349.958 354.5 349.81 354.21C349.665 353.92 349.458 353.692 349.188 353.524C348.921 353.357 348.606 353.273 348.242 353.273C347.842 353.273 347.495 353.372 347.202 353.571C346.913 353.767 346.69 354.023 346.533 354.338C346.377 354.653 346.299 354.991 346.299 355.352V355.932C346.299 356.426 346.384 356.845 346.555 357.189C346.728 357.53 346.968 357.79 347.275 357.969C347.582 358.145 347.938 358.233 348.344 358.233C348.609 358.233 348.847 358.196 349.06 358.122C349.276 358.045 349.462 357.932 349.619 357.781C349.775 357.628 349.896 357.437 349.981 357.21L350.952 357.483C350.85 357.812 350.678 358.102 350.437 358.352C350.195 358.599 349.897 358.793 349.542 358.932C349.187 359.068 348.788 359.136 348.344 359.136ZM355.329 359.136C354.698 359.136 354.154 358.997 353.697 358.719C353.242 358.438 352.891 358.045 352.644 357.543C352.4 357.037 352.278 356.449 352.278 355.778C352.278 355.108 352.4 354.517 352.644 354.006C352.891 353.491 353.235 353.091 353.675 352.804C354.119 352.514 354.636 352.369 355.227 352.369C355.567 352.369 355.904 352.426 356.237 352.54C356.569 352.653 356.871 352.838 357.144 353.094C357.417 353.347 357.634 353.682 357.796 354.099C357.958 354.517 358.039 355.031 358.039 355.642V356.068H352.994V355.199H357.016C357.016 354.83 356.942 354.5 356.795 354.21C356.65 353.92 356.442 353.692 356.173 353.524C355.906 353.357 355.59 353.273 355.227 353.273C354.826 353.273 354.479 353.372 354.187 353.571C353.897 353.767 353.674 354.023 353.518 354.338C353.362 354.653 353.283 354.991 353.283 355.352V355.932C353.283 356.426 353.369 356.845 353.539 357.189C353.712 357.53 353.952 357.79 354.259 357.969C354.566 358.145 354.923 358.233 355.329 358.233C355.593 358.233 355.832 358.196 356.045 358.122C356.261 358.045 356.447 357.932 356.603 357.781C356.759 357.628 356.88 357.437 356.965 357.21L357.937 357.483C357.835 357.812 357.663 358.102 357.421 358.352C357.18 358.599 356.881 358.793 356.526 358.932C356.171 359.068 355.772 359.136 355.329 359.136ZM360.575 355.062V359H359.569V352.455H360.54V353.477H360.626C360.779 353.145 361.012 352.878 361.325 352.676C361.637 352.472 362.04 352.369 362.535 352.369C362.978 352.369 363.366 352.46 363.698 352.642C364.031 352.821 364.289 353.094 364.474 353.46C364.658 353.824 364.751 354.284 364.751 354.841V359H363.745V354.909C363.745 354.395 363.612 353.994 363.344 353.707C363.077 353.418 362.711 353.273 362.245 353.273C361.924 353.273 361.637 353.342 361.384 353.482C361.134 353.621 360.937 353.824 360.792 354.091C360.647 354.358 360.575 354.682 360.575 355.062ZM369.963 361.455V352.455H370.935V353.494H371.054C371.128 353.381 371.23 353.236 371.361 353.06C371.495 352.881 371.685 352.722 371.932 352.582C372.182 352.44 372.52 352.369 372.946 352.369C373.498 352.369 373.983 352.507 374.404 352.783C374.824 353.058 375.152 353.449 375.388 353.955C375.624 354.46 375.742 355.057 375.742 355.744C375.742 356.438 375.624 357.038 375.388 357.547C375.152 358.053 374.826 358.445 374.408 358.723C373.99 358.999 373.509 359.136 372.963 359.136C372.543 359.136 372.206 359.067 371.953 358.928C371.701 358.786 371.506 358.625 371.37 358.446C371.233 358.264 371.128 358.114 371.054 357.994H370.969V361.455H369.963ZM370.952 355.727C370.952 356.222 371.025 356.658 371.169 357.036C371.314 357.411 371.526 357.705 371.804 357.918C372.083 358.128 372.424 358.233 372.827 358.233C373.248 358.233 373.598 358.122 373.88 357.901C374.164 357.676 374.377 357.375 374.519 356.997C374.664 356.616 374.736 356.193 374.736 355.727C374.736 355.267 374.665 354.852 374.523 354.483C374.384 354.111 374.172 353.817 373.888 353.601C373.607 353.382 373.253 353.273 372.827 353.273C372.418 353.273 372.074 353.376 371.796 353.584C371.517 353.788 371.307 354.075 371.165 354.445C371.023 354.811 370.952 355.239 370.952 355.727ZM378.282 350.273V359H377.276V350.273H378.282ZM382.05 359.153C381.635 359.153 381.259 359.075 380.92 358.919C380.582 358.76 380.314 358.531 380.115 358.233C379.916 357.932 379.817 357.568 379.817 357.142C379.817 356.767 379.891 356.463 380.038 356.23C380.186 355.994 380.384 355.81 380.631 355.676C380.878 355.543 381.151 355.443 381.449 355.378C381.75 355.31 382.053 355.256 382.357 355.216C382.754 355.165 383.077 355.126 383.324 355.101C383.574 355.072 383.756 355.026 383.869 354.96C383.986 354.895 384.044 354.781 384.044 354.619V354.585C384.044 354.165 383.929 353.838 383.699 353.605C383.472 353.372 383.126 353.256 382.663 353.256C382.183 353.256 381.807 353.361 381.534 353.571C381.261 353.781 381.07 354.006 380.959 354.244L380.004 353.903C380.175 353.506 380.402 353.196 380.686 352.974C380.973 352.75 381.286 352.594 381.624 352.506C381.964 352.415 382.3 352.369 382.629 352.369C382.839 352.369 383.081 352.395 383.354 352.446C383.629 352.494 383.895 352.595 384.151 352.749C384.409 352.902 384.624 353.134 384.794 353.443C384.964 353.753 385.05 354.168 385.05 354.688V359H384.044V358.114H383.993C383.925 358.256 383.811 358.408 383.652 358.57C383.493 358.732 383.281 358.869 383.017 358.983C382.753 359.097 382.43 359.153 382.05 359.153ZM382.203 358.25C382.601 358.25 382.936 358.172 383.209 358.016C383.484 357.859 383.692 357.658 383.831 357.411C383.973 357.163 384.044 356.903 384.044 356.631V355.71C384.001 355.761 383.908 355.808 383.763 355.851C383.621 355.891 383.456 355.926 383.268 355.957C383.084 355.986 382.903 356.011 382.727 356.034C382.554 356.054 382.413 356.071 382.305 356.085C382.044 356.119 381.8 356.175 381.572 356.251C381.348 356.325 381.166 356.437 381.027 356.588C380.891 356.736 380.822 356.937 380.822 357.193C380.822 357.543 380.952 357.807 381.21 357.986C381.472 358.162 381.803 358.25 382.203 358.25ZM389.544 359.136C388.931 359.136 388.402 358.991 387.959 358.702C387.516 358.412 387.175 358.013 386.936 357.504C386.698 356.996 386.578 356.415 386.578 355.761C386.578 355.097 386.701 354.51 386.945 354.001C387.192 353.49 387.536 353.091 387.976 352.804C388.419 352.514 388.936 352.369 389.527 352.369C389.988 352.369 390.402 352.455 390.772 352.625C391.141 352.795 391.444 353.034 391.679 353.341C391.915 353.648 392.061 354.006 392.118 354.415H391.113C391.036 354.116 390.865 353.852 390.601 353.622C390.34 353.389 389.988 353.273 389.544 353.273C389.152 353.273 388.809 353.375 388.513 353.58C388.221 353.781 387.992 354.067 387.827 354.436C387.665 354.803 387.584 355.233 387.584 355.727C387.584 356.233 387.664 356.673 387.823 357.048C387.985 357.423 388.212 357.714 388.505 357.922C388.8 358.129 389.147 358.233 389.544 358.233C389.806 358.233 390.043 358.188 390.256 358.097C390.469 358.006 390.65 357.875 390.797 357.705C390.945 357.534 391.05 357.33 391.113 357.091H392.118C392.061 357.477 391.921 357.825 391.696 358.135C391.475 358.442 391.181 358.686 390.814 358.868C390.451 359.047 390.027 359.136 389.544 359.136ZM396.333 359.136C395.702 359.136 395.158 358.997 394.701 358.719C394.246 358.438 393.895 358.045 393.648 357.543C393.404 357.037 393.282 356.449 393.282 355.778C393.282 355.108 393.404 354.517 393.648 354.006C393.895 353.491 394.239 353.091 394.679 352.804C395.123 352.514 395.64 352.369 396.23 352.369C396.571 352.369 396.908 352.426 397.24 352.54C397.573 352.653 397.875 352.838 398.148 353.094C398.421 353.347 398.638 353.682 398.8 354.099C398.962 354.517 399.043 355.031 399.043 355.642V356.068H393.998V355.199H398.02C398.02 354.83 397.946 354.5 397.799 354.21C397.654 353.92 397.446 353.692 397.176 353.524C396.909 353.357 396.594 353.273 396.23 353.273C395.83 353.273 395.483 353.372 395.191 353.571C394.901 353.767 394.678 354.023 394.522 354.338C394.365 354.653 394.287 354.991 394.287 355.352V355.932C394.287 356.426 394.373 356.845 394.543 357.189C394.716 357.53 394.956 357.79 395.263 357.969C395.57 358.145 395.926 358.233 396.333 358.233C396.597 358.233 396.836 358.196 397.049 358.122C397.265 358.045 397.451 357.932 397.607 357.781C397.763 357.628 397.884 357.437 397.969 357.21L398.941 357.483C398.838 357.812 398.667 358.102 398.425 358.352C398.184 358.599 397.885 358.793 397.53 358.932C397.175 359.068 396.776 359.136 396.333 359.136ZM403.044 359.136C402.499 359.136 402.017 358.999 401.6 358.723C401.182 358.445 400.855 358.053 400.62 357.547C400.384 357.038 400.266 356.438 400.266 355.744C400.266 355.057 400.384 354.46 400.62 353.955C400.855 353.449 401.184 353.058 401.604 352.783C402.025 352.507 402.51 352.369 403.061 352.369C403.488 352.369 403.824 352.44 404.071 352.582C404.321 352.722 404.512 352.881 404.642 353.06C404.776 353.236 404.88 353.381 404.953 353.494H405.039V350.273H406.044V359H405.073V357.994H404.953C404.88 358.114 404.775 358.264 404.638 358.446C404.502 358.625 404.307 358.786 404.054 358.928C403.801 359.067 403.465 359.136 403.044 359.136ZM403.181 358.233C403.584 358.233 403.925 358.128 404.203 357.918C404.482 357.705 404.694 357.411 404.838 357.036C404.983 356.658 405.056 356.222 405.056 355.727C405.056 355.239 404.985 354.811 404.843 354.445C404.701 354.075 404.49 353.788 404.212 353.584C403.934 353.376 403.59 353.273 403.181 353.273C402.755 353.273 402.4 353.382 402.115 353.601C401.834 353.817 401.623 354.111 401.48 354.483C401.341 354.852 401.272 355.267 401.272 355.727C401.272 356.193 401.343 356.616 401.485 356.997C401.63 357.375 401.843 357.676 402.124 357.901C402.408 358.122 402.76 358.233 403.181 358.233ZM409.355 350.273L409.27 356.545H408.282L408.196 350.273H409.355ZM408.776 359.068C408.566 359.068 408.385 358.993 408.235 358.842C408.084 358.692 408.009 358.511 408.009 358.301C408.009 358.091 408.084 357.911 408.235 357.76C408.385 357.609 408.566 357.534 408.776 357.534C408.986 357.534 409.167 357.609 409.317 357.76C409.468 357.911 409.543 358.091 409.543 358.301C409.543 358.44 409.507 358.568 409.436 358.685C409.368 358.801 409.276 358.895 409.159 358.966C409.046 359.034 408.918 359.068 408.776 359.068Z" fill="black"/>
<rect x="268" y="477" width="127" height="66" fill="#FF0000"/>
<path d="M318.316 508H317.259C317.197 507.696 317.087 507.429 316.931 507.199C316.778 506.969 316.59 506.776 316.368 506.619C316.15 506.46 315.907 506.341 315.64 506.261C315.373 506.182 315.094 506.142 314.805 506.142C314.276 506.142 313.797 506.276 313.368 506.543C312.942 506.81 312.603 507.203 312.35 507.723C312.1 508.243 311.975 508.881 311.975 509.636C311.975 510.392 312.1 511.03 312.35 511.55C312.603 512.07 312.942 512.463 313.368 512.73C313.797 512.997 314.276 513.131 314.805 513.131C315.094 513.131 315.373 513.091 315.64 513.011C315.907 512.932 316.15 512.814 316.368 512.658C316.59 512.499 316.778 512.304 316.931 512.074C317.087 511.841 317.197 511.574 317.259 511.273H318.316C318.236 511.719 318.091 512.118 317.881 512.47C317.671 512.822 317.41 513.122 317.097 513.369C316.785 513.614 316.434 513.8 316.045 513.928C315.658 514.055 315.245 514.119 314.805 514.119C314.06 514.119 313.398 513.938 312.819 513.574C312.239 513.21 311.783 512.693 311.451 512.023C311.118 511.352 310.952 510.557 310.952 509.636C310.952 508.716 311.118 507.92 311.451 507.25C311.783 506.58 312.239 506.062 312.819 505.699C313.398 505.335 314.06 505.153 314.805 505.153C315.245 505.153 315.658 505.217 316.045 505.345C316.434 505.473 316.785 505.661 317.097 505.908C317.41 506.152 317.671 506.45 317.881 506.803C318.091 507.152 318.236 507.551 318.316 508ZM320.382 514H319.274L322.478 505.273H323.569L326.774 514H325.666L323.058 506.653H322.99L320.382 514ZM320.791 510.591H325.257V511.528H320.791V510.591ZM335.053 505.273V514H334.031L329.275 507.148H329.19V514H328.133V505.273H329.156L333.928 512.142H334.014V505.273H335.053ZM344.191 508H343.134C343.072 507.696 342.962 507.429 342.806 507.199C342.653 506.969 342.465 506.776 342.243 506.619C342.025 506.46 341.782 506.341 341.515 506.261C341.248 506.182 340.969 506.142 340.68 506.142C340.151 506.142 339.672 506.276 339.243 506.543C338.817 506.81 338.478 507.203 338.225 507.723C337.975 508.243 337.85 508.881 337.85 509.636C337.85 510.392 337.975 511.03 338.225 511.55C338.478 512.07 338.817 512.463 339.243 512.73C339.672 512.997 340.151 513.131 340.68 513.131C340.969 513.131 341.248 513.091 341.515 513.011C341.782 512.932 342.025 512.814 342.243 512.658C342.465 512.499 342.653 512.304 342.806 512.074C342.962 511.841 343.072 511.574 343.134 511.273H344.191C344.111 511.719 343.966 512.118 343.756 512.47C343.546 512.822 343.285 513.122 342.972 513.369C342.66 513.614 342.309 513.8 341.92 513.928C341.533 514.055 341.12 514.119 340.68 514.119C339.935 514.119 339.273 513.938 338.694 513.574C338.114 513.21 337.658 512.693 337.326 512.023C336.993 511.352 336.827 510.557 336.827 509.636C336.827 508.716 336.993 507.92 337.326 507.25C337.658 506.58 338.114 506.062 338.694 505.699C339.273 505.335 339.935 505.153 340.68 505.153C341.12 505.153 341.533 505.217 341.92 505.345C342.309 505.473 342.66 505.661 342.972 505.908C343.285 506.152 343.546 506.45 343.756 506.803C343.966 507.152 344.111 507.551 344.191 508ZM345.899 514V505.273H351.166V506.21H346.955V509.159H350.893V510.097H346.955V513.062H351.234V514H345.899ZM353.07 514V505.273H354.127V513.062H358.184V514H353.07Z" fill="white"/>
</svg>
