<svg width="661" height="832" viewBox="0 0 661 832" fill="none" xmlns="http://www.w3.org/2000/svg">
<rect width="661" height="832" fill="#26FF00"/>
<path d="M323.057 59V50.2727H326.006C326.688 50.2727 327.247 50.3892 327.685 50.6222C328.122 50.8523 328.446 51.169 328.656 51.5724C328.866 51.9759 328.972 52.4347 328.972 52.9489C328.972 53.4631 328.866 53.919 328.656 54.3168C328.446 54.7145 328.124 55.027 327.689 55.2543C327.254 55.4787 326.699 55.5909 326.023 55.5909H323.636V54.6364H325.989C326.455 54.6364 326.83 54.5682 327.114 54.4318C327.401 54.2955 327.608 54.1023 327.736 53.8523C327.866 53.5994 327.932 53.2983 327.932 52.9489C327.932 52.5994 327.866 52.294 327.736 52.0327C327.605 51.7713 327.396 51.5696 327.109 51.4276C326.822 51.2827 326.443 51.2102 325.972 51.2102H324.114V59H323.057ZM327.165 55.0795L329.312 59H328.085L325.972 55.0795H327.165ZM330.733 59V50.2727H336V51.2102H331.789V54.1591H335.727V55.0966H331.789V58.0625H336.068V59H330.733ZM344.927 53H343.87C343.808 52.696 343.699 52.429 343.542 52.1989C343.389 51.9688 343.201 51.7756 342.98 51.6193C342.761 51.4602 342.518 51.3409 342.251 51.2614C341.984 51.1818 341.706 51.142 341.416 51.142C340.887 51.142 340.409 51.2756 339.98 51.5426C339.554 51.8097 339.214 52.2031 338.961 52.723C338.711 53.2429 338.586 53.8807 338.586 54.6364C338.586 55.392 338.711 56.0298 338.961 56.5497C339.214 57.0696 339.554 57.4631 339.98 57.7301C340.409 57.9972 340.887 58.1307 341.416 58.1307C341.706 58.1307 341.984 58.0909 342.251 58.0114C342.518 57.9318 342.761 57.8139 342.98 57.6577C343.201 57.4986 343.389 57.304 343.542 57.0739C343.699 56.8409 343.808 56.5739 343.87 56.2727H344.927C344.848 56.7187 344.703 57.1179 344.493 57.4702C344.282 57.8224 344.021 58.1222 343.708 58.3693C343.396 58.6136 343.045 58.7997 342.656 58.9276C342.27 59.0554 341.856 59.1193 341.416 59.1193C340.672 59.1193 340.01 58.9375 339.43 58.5739C338.85 58.2102 338.395 57.6932 338.062 57.0227C337.73 56.3523 337.564 55.5568 337.564 54.6364C337.564 53.7159 337.73 52.9205 338.062 52.25C338.395 51.5795 338.85 51.0625 339.43 50.6989C340.01 50.3352 340.672 50.1534 341.416 50.1534C341.856 50.1534 342.27 50.2173 342.656 50.3452C343.045 50.473 343.396 50.6605 343.708 50.9077C344.021 51.152 344.282 51.4503 344.493 51.8026C344.703 52.152 344.848 52.5511 344.927 53ZM347.692 50.2727V59H346.635V50.2727H347.692ZM349.811 59V50.2727H355.078V51.2102H350.868V54.1591H354.805V55.0966H350.868V58.0625H355.146V59H349.811ZM356.983 59V50.2727H359.931C360.616 50.2727 361.176 50.3963 361.61 50.6435C362.048 50.8878 362.372 51.2188 362.582 51.6364C362.792 52.054 362.897 52.5199 362.897 53.0341C362.897 53.5483 362.792 54.0156 362.582 54.4361C362.375 54.8565 362.054 55.1918 361.619 55.4418C361.184 55.6889 360.627 55.8125 359.949 55.8125H357.835V54.875H359.914C360.383 54.875 360.76 54.794 361.044 54.6321C361.328 54.4702 361.534 54.2514 361.662 53.9759C361.792 53.6974 361.858 53.3835 361.858 53.0341C361.858 52.6847 361.792 52.3722 361.662 52.0966C361.534 51.821 361.326 51.6051 361.039 51.4489C360.752 51.2898 360.372 51.2102 359.897 51.2102H358.039V59H356.983ZM364.123 51.2102V50.2727H370.668V51.2102H367.924V59H366.867V51.2102H364.123Z" fill="black"/>
<path d="M95.1364 175L98.9545 151.727H101.227L97.4091 175H95.1364ZM84.5455 168.545L84.9091 166.273H102.273L101.909 168.545H84.5455ZM86.9545 175L90.7727 151.727H93.0455L89.2273 175H86.9545ZM85.9091 160.455L86.2727 158.182H103.636L103.273 160.455H85.9091ZM114.778 151.727V175H111.96V154.682H111.824L106.142 158.455V155.591L111.96 151.727H114.778Z" fill="black"/>
<path d="M95.1364 262L98.9545 238.727H101.227L97.4091 262H95.1364ZM84.5455 255.545L84.9091 253.273H102.273L101.909 255.545H84.5455ZM86.9545 262L90.7727 238.727H93.0455L89.2273 262H86.9545ZM85.9091 247.455L86.2727 245.182H103.636L103.273 247.455H85.9091ZM114.778 238.727V262H111.96V241.682H111.824L106.142 245.455V242.591L111.96 238.727H114.778Z" fill="black"/>
<path d="M95.1364 349L98.9545 325.727H101.227L97.4091 349H95.1364ZM84.5455 342.545L84.9091 340.273H102.273L101.909 342.545H84.5455ZM86.9545 349L90.7727 325.727H93.0455L89.2273 349H86.9545ZM85.9091 334.455L86.2727 332.182H103.636L103.273 334.455H85.9091ZM114.778 325.727V349H111.96V328.682H111.824L106.142 332.455V329.591L111.96 325.727H114.778Z" fill="black"/>
<path d="M221.545 658.227V655.727H239V658.227H231.682V679H228.864V658.227H221.545ZM262.017 667.364C262.017 669.818 261.574 671.939 260.688 673.727C259.801 675.515 258.585 676.894 257.04 677.864C255.494 678.833 253.729 679.318 251.744 679.318C249.759 679.318 247.994 678.833 246.449 677.864C244.903 676.894 243.688 675.515 242.801 673.727C241.915 671.939 241.472 669.818 241.472 667.364C241.472 664.909 241.915 662.788 242.801 661C243.688 659.212 244.903 657.833 246.449 656.864C247.994 655.894 249.759 655.409 251.744 655.409C253.729 655.409 255.494 655.894 257.04 656.864C258.585 657.833 259.801 659.212 260.688 661C261.574 662.788 262.017 664.909 262.017 667.364ZM259.29 667.364C259.29 665.348 258.953 663.648 258.278 662.261C257.612 660.875 256.706 659.826 255.562 659.114C254.426 658.402 253.153 658.045 251.744 658.045C250.335 658.045 249.059 658.402 247.915 659.114C246.778 659.826 245.873 660.875 245.199 662.261C244.532 663.648 244.199 665.348 244.199 667.364C244.199 669.379 244.532 671.08 245.199 672.466C245.873 673.852 246.778 674.902 247.915 675.614C249.059 676.326 250.335 676.682 251.744 676.682C253.153 676.682 254.426 676.326 255.562 675.614C256.706 674.902 257.612 673.852 258.278 672.466C258.953 671.08 259.29 669.379 259.29 667.364ZM264.514 658.227V655.727H281.969V658.227H274.651V679H271.832V658.227H264.514ZM284.554 679H281.599L290.145 655.727H293.054L301.599 679H298.645L291.69 659.409H291.509L284.554 679ZM285.645 669.909H297.554V672.409H285.645V669.909ZM305.224 679V655.727H308.043V676.5H318.861V679H305.224ZM324.815 676.023C324.255 676.023 323.774 675.822 323.372 675.42C322.971 675.019 322.77 674.538 322.77 673.977C322.77 673.417 322.971 672.936 323.372 672.534C323.774 672.133 324.255 671.932 324.815 671.932C325.376 671.932 325.857 672.133 326.259 672.534C326.66 672.936 326.861 673.417 326.861 673.977C326.861 674.348 326.766 674.689 326.577 675C326.395 675.311 326.149 675.561 325.838 675.75C325.535 675.932 325.194 676.023 324.815 676.023ZM324.815 664.25C324.255 664.25 323.774 664.049 323.372 663.648C322.971 663.246 322.77 662.765 322.77 662.205C322.77 661.644 322.971 661.163 323.372 660.761C323.774 660.36 324.255 660.159 324.815 660.159C325.376 660.159 325.857 660.36 326.259 660.761C326.66 661.163 326.861 661.644 326.861 662.205C326.861 662.576 326.766 662.917 326.577 663.227C326.395 663.538 326.149 663.788 325.838 663.977C325.535 664.159 325.194 664.25 324.815 664.25ZM347.491 681.909V652.818H349.355V681.909H347.491ZM353.764 661.545C353.628 660.394 353.075 659.5 352.105 658.864C351.135 658.227 349.946 657.909 348.537 657.909C347.507 657.909 346.605 658.076 345.832 658.409C345.067 658.742 344.469 659.201 344.037 659.784C343.613 660.367 343.401 661.03 343.401 661.773C343.401 662.394 343.548 662.928 343.844 663.375C344.147 663.814 344.533 664.182 345.003 664.477C345.473 664.765 345.965 665.004 346.48 665.193C346.995 665.375 347.469 665.523 347.901 665.636L350.264 666.273C350.87 666.432 351.545 666.652 352.287 666.932C353.037 667.212 353.753 667.595 354.435 668.08C355.124 668.557 355.692 669.17 356.139 669.92C356.586 670.67 356.81 671.591 356.81 672.682C356.81 673.939 356.48 675.076 355.821 676.091C355.17 677.106 354.215 677.913 352.957 678.511C351.707 679.11 350.188 679.409 348.401 679.409C346.734 679.409 345.291 679.14 344.071 678.602C342.859 678.064 341.904 677.314 341.207 676.352C340.518 675.39 340.128 674.273 340.037 673H342.946C343.022 673.879 343.317 674.606 343.832 675.182C344.355 675.75 345.014 676.174 345.81 676.455C346.613 676.727 347.476 676.864 348.401 676.864C349.476 676.864 350.442 676.689 351.298 676.341C352.154 675.985 352.832 675.492 353.332 674.864C353.832 674.227 354.082 673.485 354.082 672.636C354.082 671.864 353.866 671.235 353.435 670.75C353.003 670.265 352.435 669.871 351.73 669.568C351.026 669.265 350.264 669 349.446 668.773L346.582 667.955C344.764 667.432 343.325 666.686 342.264 665.716C341.204 664.746 340.673 663.477 340.673 661.909C340.673 660.606 341.026 659.47 341.73 658.5C342.442 657.523 343.397 656.765 344.594 656.227C345.798 655.682 347.143 655.409 348.628 655.409C350.128 655.409 351.461 655.678 352.628 656.216C353.795 656.746 354.719 657.473 355.401 658.398C356.09 659.322 356.454 660.371 356.491 661.545H353.764ZM369.216 655.727V679H366.398V658.682H366.261L360.58 662.455V659.591L366.398 655.727H369.216ZM383.5 679.318C381.788 679.318 380.33 678.852 379.125 677.92C377.92 676.981 377 675.621 376.364 673.841C375.727 672.053 375.409 669.894 375.409 667.364C375.409 664.848 375.727 662.701 376.364 660.92C377.008 659.133 377.932 657.769 379.136 656.83C380.348 655.883 381.803 655.409 383.5 655.409C385.197 655.409 386.648 655.883 387.852 656.83C389.064 657.769 389.989 659.133 390.625 660.92C391.269 662.701 391.591 664.848 391.591 667.364C391.591 669.894 391.273 672.053 390.636 673.841C390 675.621 389.08 676.981 387.875 677.92C386.67 678.852 385.212 679.318 383.5 679.318ZM383.5 676.818C385.197 676.818 386.515 676 387.455 674.364C388.394 672.727 388.864 670.394 388.864 667.364C388.864 665.348 388.648 663.633 388.216 662.216C387.792 660.799 387.178 659.72 386.375 658.977C385.58 658.235 384.621 657.864 383.5 657.864C381.818 657.864 380.504 658.693 379.557 660.352C378.61 662.004 378.136 664.341 378.136 667.364C378.136 669.379 378.348 671.091 378.773 672.5C379.197 673.909 379.807 674.981 380.602 675.716C381.405 676.451 382.371 676.818 383.5 676.818ZM397.097 679.182C396.536 679.182 396.055 678.981 395.653 678.58C395.252 678.178 395.051 677.697 395.051 677.136C395.051 676.576 395.252 676.095 395.653 675.693C396.055 675.292 396.536 675.091 397.097 675.091C397.657 675.091 398.138 675.292 398.54 675.693C398.941 676.095 399.142 676.576 399.142 677.136C399.142 677.508 399.047 677.848 398.858 678.159C398.676 678.47 398.43 678.72 398.119 678.909C397.816 679.091 397.475 679.182 397.097 679.182ZM410.713 679.318C409.38 679.318 408.179 679.053 407.111 678.523C406.043 677.992 405.187 677.265 404.543 676.341C403.899 675.417 403.546 674.364 403.486 673.182H406.213C406.319 674.235 406.796 675.106 407.645 675.795C408.501 676.477 409.524 676.818 410.713 676.818C411.668 676.818 412.516 676.595 413.259 676.148C414.009 675.701 414.596 675.087 415.02 674.307C415.452 673.519 415.668 672.629 415.668 671.636C415.668 670.621 415.444 669.716 414.997 668.92C414.558 668.117 413.952 667.485 413.179 667.023C412.406 666.561 411.524 666.326 410.531 666.318C409.819 666.311 409.088 666.42 408.338 666.648C407.588 666.867 406.971 667.152 406.486 667.5L403.849 667.182L405.259 655.727H417.349V658.227H407.622L406.804 665.091H406.94C407.418 664.712 408.016 664.398 408.736 664.148C409.455 663.898 410.205 663.773 410.986 663.773C412.41 663.773 413.679 664.114 414.793 664.795C415.914 665.47 416.793 666.394 417.429 667.568C418.073 668.742 418.395 670.083 418.395 671.591C418.395 673.076 418.062 674.402 417.395 675.568C416.736 676.727 415.827 677.644 414.668 678.318C413.509 678.985 412.19 679.318 410.713 679.318ZM430.773 679.318C429.273 679.318 427.936 679.061 426.761 678.545C425.595 678.03 424.667 677.314 423.977 676.398C423.295 675.473 422.924 674.402 422.864 673.182H425.727C425.788 673.932 426.045 674.58 426.5 675.125C426.955 675.663 427.549 676.08 428.284 676.375C429.019 676.67 429.833 676.818 430.727 676.818C431.727 676.818 432.614 676.644 433.386 676.295C434.159 675.947 434.765 675.462 435.205 674.841C435.644 674.22 435.864 673.5 435.864 672.682C435.864 671.826 435.652 671.072 435.227 670.42C434.803 669.761 434.182 669.246 433.364 668.875C432.545 668.504 431.545 668.318 430.364 668.318H428.5V665.818H430.364C431.288 665.818 432.098 665.652 432.795 665.318C433.5 664.985 434.049 664.515 434.443 663.909C434.845 663.303 435.045 662.591 435.045 661.773C435.045 660.985 434.871 660.299 434.523 659.716C434.174 659.133 433.682 658.678 433.045 658.352C432.417 658.027 431.674 657.864 430.818 657.864C430.015 657.864 429.258 658.011 428.545 658.307C427.841 658.595 427.265 659.015 426.818 659.568C426.371 660.114 426.129 660.773 426.091 661.545H423.364C423.409 660.326 423.777 659.258 424.466 658.341C425.155 657.417 426.057 656.697 427.17 656.182C428.292 655.667 429.523 655.409 430.864 655.409C432.303 655.409 433.538 655.701 434.568 656.284C435.598 656.86 436.39 657.621 436.943 658.568C437.496 659.515 437.773 660.538 437.773 661.636C437.773 662.947 437.428 664.064 436.739 664.989C436.057 665.913 435.129 666.553 433.955 666.909V667.091C435.424 667.333 436.572 667.958 437.398 668.966C438.223 669.966 438.636 671.205 438.636 672.682C438.636 673.947 438.292 675.083 437.602 676.091C436.92 677.091 435.989 677.879 434.807 678.455C433.625 679.03 432.28 679.318 430.773 679.318Z" fill="black"/>
<rect x="280" y="732" width="127" height="66" fill="black"/>
<path d="M336.594 769V760.273H339.543C340.227 760.273 340.787 760.396 341.222 760.643C341.659 760.888 341.983 761.219 342.193 761.636C342.404 762.054 342.509 762.52 342.509 763.034C342.509 763.548 342.404 764.016 342.193 764.436C341.986 764.857 341.665 765.192 341.23 765.442C340.796 765.689 340.239 765.812 339.56 765.812H337.446V764.875H339.526C339.994 764.875 340.371 764.794 340.655 764.632C340.939 764.47 341.145 764.251 341.273 763.976C341.404 763.697 341.469 763.384 341.469 763.034C341.469 762.685 341.404 762.372 341.273 762.097C341.145 761.821 340.938 761.605 340.651 761.449C340.364 761.29 339.983 761.21 339.509 761.21H337.651V769H336.594ZM343.678 769H342.57L345.775 760.273H346.866L350.07 769H348.963L346.355 761.653H346.286L343.678 769ZM344.088 765.591H348.553V766.528H344.088V765.591ZM349.789 760.273H350.999L353.42 764.347H353.522L355.943 760.273H357.153L353.999 765.403V769H352.943V765.403L349.789 760.273Z" fill="white"/>
</svg>
