<svg width="661" height="832" viewBox="0 0 661 832" fill="none" xmlns="http://www.w3.org/2000/svg">
<rect width="661" height="832" fill="white"/>
<path d="M238.057 159V150.273H241.006C241.688 150.273 242.247 150.389 242.685 150.622C243.122 150.852 243.446 151.169 243.656 151.572C243.866 151.976 243.972 152.435 243.972 152.949C243.972 153.463 243.866 153.919 243.656 154.317C243.446 154.714 243.124 155.027 242.689 155.254C242.254 155.479 241.699 155.591 241.023 155.591H238.636V154.636H240.989C241.455 154.636 241.83 154.568 242.114 154.432C242.401 154.295 242.608 154.102 242.736 153.852C242.866 153.599 242.932 153.298 242.932 152.949C242.932 152.599 242.866 152.294 242.736 152.033C242.605 151.771 242.396 151.57 242.109 151.428C241.822 151.283 241.443 151.21 240.972 151.21H239.114V159H238.057ZM242.165 155.08L244.312 159H243.085L240.972 155.08H242.165ZM245.733 159V150.273H251V151.21H246.789V154.159H250.727V155.097H246.789V158.062H251.068V159H245.733ZM257.677 152.455C257.626 152.023 257.419 151.688 257.055 151.449C256.691 151.21 256.245 151.091 255.717 151.091C255.331 151.091 254.993 151.153 254.703 151.278C254.416 151.403 254.191 151.575 254.029 151.794C253.87 152.013 253.791 152.261 253.791 152.54C253.791 152.773 253.846 152.973 253.957 153.141C254.071 153.305 254.216 153.443 254.392 153.554C254.568 153.662 254.752 153.751 254.946 153.822C255.139 153.891 255.316 153.946 255.478 153.989L256.365 154.227C256.592 154.287 256.845 154.369 257.123 154.474C257.404 154.58 257.673 154.723 257.929 154.905C258.187 155.084 258.4 155.314 258.568 155.595C258.735 155.876 258.819 156.222 258.819 156.631C258.819 157.102 258.696 157.528 258.449 157.909C258.204 158.29 257.846 158.592 257.375 158.817C256.906 159.041 256.336 159.153 255.666 159.153C255.041 159.153 254.5 159.053 254.042 158.851C253.588 158.649 253.23 158.368 252.968 158.007C252.71 157.646 252.564 157.227 252.529 156.75H253.62C253.649 157.08 253.76 157.352 253.953 157.568C254.149 157.781 254.396 157.94 254.694 158.045C254.995 158.148 255.319 158.199 255.666 158.199C256.069 158.199 256.431 158.134 256.752 158.003C257.074 157.869 257.328 157.685 257.515 157.449C257.703 157.21 257.797 156.932 257.797 156.614C257.797 156.324 257.716 156.088 257.554 155.906C257.392 155.724 257.179 155.577 256.914 155.463C256.65 155.349 256.365 155.25 256.058 155.165L254.984 154.858C254.302 154.662 253.762 154.382 253.365 154.018C252.967 153.655 252.768 153.179 252.768 152.591C252.768 152.102 252.9 151.676 253.164 151.312C253.431 150.946 253.789 150.662 254.238 150.46C254.69 150.256 255.194 150.153 255.751 150.153C256.314 150.153 256.814 150.254 257.251 150.456C257.689 150.655 258.035 150.928 258.291 151.274C258.549 151.621 258.686 152.014 258.7 152.455H257.677ZM260.557 159V150.273H263.506C264.19 150.273 264.75 150.396 265.185 150.643C265.622 150.888 265.946 151.219 266.156 151.636C266.366 152.054 266.472 152.52 266.472 153.034C266.472 153.548 266.366 154.016 266.156 154.436C265.949 154.857 265.628 155.192 265.193 155.442C264.759 155.689 264.202 155.812 263.523 155.812H261.409V154.875H263.489C263.957 154.875 264.334 154.794 264.618 154.632C264.902 154.47 265.108 154.251 265.236 153.976C265.366 153.697 265.432 153.384 265.432 153.034C265.432 152.685 265.366 152.372 265.236 152.097C265.108 151.821 264.901 151.605 264.614 151.449C264.327 151.29 263.946 151.21 263.472 151.21H261.614V159H260.557ZM275.538 154.636C275.538 155.557 275.371 156.352 275.039 157.023C274.707 157.693 274.251 158.21 273.671 158.574C273.092 158.938 272.43 159.119 271.685 159.119C270.941 159.119 270.279 158.938 269.7 158.574C269.12 158.21 268.664 157.693 268.332 157.023C267.999 156.352 267.833 155.557 267.833 154.636C267.833 153.716 267.999 152.92 268.332 152.25C268.664 151.58 269.12 151.062 269.7 150.699C270.279 150.335 270.941 150.153 271.685 150.153C272.43 150.153 273.092 150.335 273.671 150.699C274.251 151.062 274.707 151.58 275.039 152.25C275.371 152.92 275.538 153.716 275.538 154.636ZM274.515 154.636C274.515 153.881 274.388 153.243 274.136 152.723C273.886 152.203 273.546 151.81 273.117 151.543C272.691 151.276 272.214 151.142 271.685 151.142C271.157 151.142 270.678 151.276 270.249 151.543C269.823 151.81 269.484 152.203 269.231 152.723C268.981 153.243 268.856 153.881 268.856 154.636C268.856 155.392 268.981 156.03 269.231 156.55C269.484 157.07 269.823 157.463 270.249 157.73C270.678 157.997 271.157 158.131 271.685 158.131C272.214 158.131 272.691 157.997 273.117 157.73C273.546 157.463 273.886 157.07 274.136 156.55C274.388 156.03 274.515 155.392 274.515 154.636ZM284.235 150.273V159H283.212L278.457 152.148H278.371V159H277.315V150.273H278.337L283.11 157.142H283.195V150.273H284.235ZM291.123 152.455C291.071 152.023 290.864 151.688 290.5 151.449C290.137 151.21 289.691 151.091 289.162 151.091C288.776 151.091 288.438 151.153 288.148 151.278C287.861 151.403 287.637 151.575 287.475 151.794C287.316 152.013 287.236 152.261 287.236 152.54C287.236 152.773 287.292 152.973 287.402 153.141C287.516 153.305 287.661 153.443 287.837 153.554C288.013 153.662 288.198 153.751 288.391 153.822C288.584 153.891 288.762 153.946 288.924 153.989L289.81 154.227C290.037 154.287 290.29 154.369 290.569 154.474C290.85 154.58 291.118 154.723 291.374 154.905C291.632 155.084 291.846 155.314 292.013 155.595C292.181 155.876 292.265 156.222 292.265 156.631C292.265 157.102 292.141 157.528 291.894 157.909C291.65 158.29 291.292 158.592 290.82 158.817C290.351 159.041 289.782 159.153 289.111 159.153C288.486 159.153 287.945 159.053 287.488 158.851C287.033 158.649 286.675 158.368 286.414 158.007C286.155 157.646 286.009 157.227 285.975 156.75H287.066C287.094 157.08 287.205 157.352 287.398 157.568C287.594 157.781 287.841 157.94 288.14 158.045C288.441 158.148 288.765 158.199 289.111 158.199C289.515 158.199 289.877 158.134 290.198 158.003C290.519 157.869 290.773 157.685 290.961 157.449C291.148 157.21 291.242 156.932 291.242 156.614C291.242 156.324 291.161 156.088 290.999 155.906C290.837 155.724 290.624 155.577 290.36 155.463C290.096 155.349 289.81 155.25 289.503 155.165L288.429 154.858C287.748 154.662 287.208 154.382 286.81 154.018C286.412 153.655 286.213 153.179 286.213 152.591C286.213 152.102 286.346 151.676 286.61 151.312C286.877 150.946 287.235 150.662 287.684 150.46C288.135 150.256 288.64 150.153 289.196 150.153C289.759 150.153 290.259 150.254 290.696 150.456C291.134 150.655 291.48 150.928 291.736 151.274C291.995 151.621 292.131 152.014 292.145 152.455H291.123ZM294.002 159V150.273H299.269V151.21H295.059V154.159H298.996V155.097H295.059V158.062H299.337V159H294.002ZM304.123 149.864L301.31 160.312H300.39L303.202 149.864H304.123ZM310.412 159L308.025 150.273H309.099L310.923 157.381H311.008L312.866 150.273H314.059L315.917 157.381H316.002L317.826 150.273H318.9L316.514 159H315.423L313.497 152.045H313.429L311.502 159H310.412ZM320.217 159V150.273H325.484V151.21H321.274V154.159H325.211V155.097H321.274V158.062H325.552V159H320.217ZM327.389 159V150.273H328.446V158.062H332.502V159H327.389ZM340.822 153H339.765C339.702 152.696 339.593 152.429 339.437 152.199C339.283 151.969 339.096 151.776 338.874 151.619C338.656 151.46 338.413 151.341 338.146 151.261C337.879 151.182 337.6 151.142 337.31 151.142C336.782 151.142 336.303 151.276 335.874 151.543C335.448 151.81 335.109 152.203 334.856 152.723C334.606 153.243 334.481 153.881 334.481 154.636C334.481 155.392 334.606 156.03 334.856 156.55C335.109 157.07 335.448 157.463 335.874 157.73C336.303 157.997 336.782 158.131 337.31 158.131C337.6 158.131 337.879 158.091 338.146 158.011C338.413 157.932 338.656 157.814 338.874 157.658C339.096 157.499 339.283 157.304 339.437 157.074C339.593 156.841 339.702 156.574 339.765 156.273H340.822C340.742 156.719 340.597 157.118 340.387 157.47C340.177 157.822 339.915 158.122 339.603 158.369C339.29 158.614 338.94 158.8 338.55 158.928C338.164 159.055 337.751 159.119 337.31 159.119C336.566 159.119 335.904 158.938 335.325 158.574C334.745 158.21 334.289 157.693 333.957 157.023C333.624 156.352 333.458 155.557 333.458 154.636C333.458 153.716 333.624 152.92 333.957 152.25C334.289 151.58 334.745 151.062 335.325 150.699C335.904 150.335 336.566 150.153 337.31 150.153C337.751 150.153 338.164 150.217 338.55 150.345C338.94 150.473 339.29 150.661 339.603 150.908C339.915 151.152 340.177 151.45 340.387 151.803C340.597 152.152 340.742 152.551 340.822 153ZM349.893 154.636C349.893 155.557 349.727 156.352 349.395 157.023C349.062 157.693 348.606 158.21 348.027 158.574C347.447 158.938 346.785 159.119 346.041 159.119C345.297 159.119 344.635 158.938 344.055 158.574C343.475 158.21 343.02 157.693 342.687 157.023C342.355 156.352 342.189 155.557 342.189 154.636C342.189 153.716 342.355 152.92 342.687 152.25C343.02 151.58 343.475 151.062 344.055 150.699C344.635 150.335 345.297 150.153 346.041 150.153C346.785 150.153 347.447 150.335 348.027 150.699C348.606 151.062 349.062 151.58 349.395 152.25C349.727 152.92 349.893 153.716 349.893 154.636ZM348.87 154.636C348.87 153.881 348.744 153.243 348.491 152.723C348.241 152.203 347.902 151.81 347.473 151.543C347.047 151.276 346.569 151.142 346.041 151.142C345.512 151.142 345.034 151.276 344.605 151.543C344.179 151.81 343.839 152.203 343.586 152.723C343.336 153.243 343.211 153.881 343.211 154.636C343.211 155.392 343.336 156.03 343.586 156.55C343.839 157.07 344.179 157.463 344.605 157.73C345.034 157.997 345.512 158.131 346.041 158.131C346.569 158.131 347.047 157.997 347.473 157.73C347.902 157.463 348.241 157.07 348.491 156.55C348.744 156.03 348.87 155.392 348.87 154.636ZM351.67 150.273H352.931L355.897 157.517H356L358.966 150.273H360.227V159H359.238V152.369H359.153L356.426 159H355.471L352.744 152.369H352.659V159H351.67V150.273ZM362.346 159V150.273H367.613V151.21H363.403V154.159H367.34V155.097H363.403V158.062H367.681V159H362.346ZM372.893 150.273H374.154L377.12 157.517H377.222L380.188 150.273H381.45V159H380.461V152.369H380.376L377.648 159H376.694L373.967 152.369H373.881V159H372.893V150.273ZM383.569 159V150.273H388.836V151.21H384.625V154.159H388.563V155.097H384.625V158.062H388.904V159H383.569ZM395.513 152.455C395.462 152.023 395.255 151.688 394.891 151.449C394.527 151.21 394.081 151.091 393.553 151.091C393.167 151.091 392.828 151.153 392.539 151.278C392.252 151.403 392.027 151.575 391.865 151.794C391.706 152.013 391.627 152.261 391.627 152.54C391.627 152.773 391.682 152.973 391.793 153.141C391.907 153.305 392.051 153.443 392.228 153.554C392.404 153.662 392.588 153.751 392.782 153.822C392.975 153.891 393.152 153.946 393.314 153.989L394.201 154.227C394.428 154.287 394.681 154.369 394.959 154.474C395.24 154.58 395.509 154.723 395.765 154.905C396.023 155.084 396.236 155.314 396.404 155.595C396.571 155.876 396.655 156.222 396.655 156.631C396.655 157.102 396.532 157.528 396.284 157.909C396.04 158.29 395.682 158.592 395.211 158.817C394.742 159.041 394.172 159.153 393.502 159.153C392.877 159.153 392.336 159.053 391.878 158.851C391.424 158.649 391.066 158.368 390.804 158.007C390.546 157.646 390.4 157.227 390.365 156.75H391.456C391.485 157.08 391.596 157.352 391.789 157.568C391.985 157.781 392.232 157.94 392.53 158.045C392.831 158.148 393.155 158.199 393.502 158.199C393.905 158.199 394.267 158.134 394.588 158.003C394.909 157.869 395.164 157.685 395.351 157.449C395.539 157.21 395.632 156.932 395.632 156.614C395.632 156.324 395.551 156.088 395.39 155.906C395.228 155.724 395.015 155.577 394.75 155.463C394.486 155.349 394.201 155.25 393.894 155.165L392.82 154.858C392.138 154.662 391.598 154.382 391.201 154.018C390.803 153.655 390.604 153.179 390.604 152.591C390.604 152.102 390.736 151.676 391 151.312C391.267 150.946 391.625 150.662 392.074 150.46C392.526 150.256 393.03 150.153 393.587 150.153C394.15 150.153 394.65 150.254 395.087 150.456C395.525 150.655 395.871 150.928 396.127 151.274C396.385 151.621 396.522 152.014 396.536 152.455H395.513ZM403.165 152.455C403.114 152.023 402.907 151.688 402.543 151.449C402.18 151.21 401.734 151.091 401.205 151.091C400.819 151.091 400.481 151.153 400.191 151.278C399.904 151.403 399.68 151.575 399.518 151.794C399.359 152.013 399.279 152.261 399.279 152.54C399.279 152.773 399.335 152.973 399.445 153.141C399.559 153.305 399.704 153.443 399.88 153.554C400.056 153.662 400.241 153.751 400.434 153.822C400.627 153.891 400.805 153.946 400.967 153.989L401.853 154.227C402.08 154.287 402.333 154.369 402.612 154.474C402.893 154.58 403.161 154.723 403.417 154.905C403.675 155.084 403.888 155.314 404.056 155.595C404.224 155.876 404.308 156.222 404.308 156.631C404.308 157.102 404.184 157.528 403.937 157.909C403.692 158.29 403.335 158.592 402.863 158.817C402.394 159.041 401.825 159.153 401.154 159.153C400.529 159.153 399.988 159.053 399.531 158.851C399.076 158.649 398.718 158.368 398.457 158.007C398.198 157.646 398.052 157.227 398.018 156.75H399.109C399.137 157.08 399.248 157.352 399.441 157.568C399.637 157.781 399.884 157.94 400.183 158.045C400.484 158.148 400.808 158.199 401.154 158.199C401.558 158.199 401.92 158.134 402.241 158.003C402.562 157.869 402.816 157.685 403.004 157.449C403.191 157.21 403.285 156.932 403.285 156.614C403.285 156.324 403.204 156.088 403.042 155.906C402.88 155.724 402.667 155.577 402.403 155.463C402.138 155.349 401.853 155.25 401.546 155.165L400.472 154.858C399.79 154.662 399.251 154.382 398.853 154.018C398.455 153.655 398.256 153.179 398.256 152.591C398.256 152.102 398.388 151.676 398.653 151.312C398.92 150.946 399.278 150.662 399.727 150.46C400.178 150.256 400.683 150.153 401.239 150.153C401.802 150.153 402.302 150.254 402.739 150.456C403.177 150.655 403.523 150.928 403.779 151.274C404.038 151.621 404.174 152.014 404.188 152.455H403.165ZM406.403 159H405.295L408.5 150.273H409.591L412.795 159H411.687L409.079 151.653H409.011L406.403 159ZM406.812 155.591H411.278V156.528H406.812V155.591ZM419.71 153C419.616 152.713 419.493 152.456 419.339 152.229C419.189 151.999 419.009 151.803 418.798 151.641C418.591 151.479 418.355 151.355 418.091 151.27C417.827 151.185 417.537 151.142 417.222 151.142C416.705 151.142 416.234 151.276 415.811 151.543C415.388 151.81 415.051 152.203 414.801 152.723C414.551 153.243 414.426 153.881 414.426 154.636C414.426 155.392 414.553 156.03 414.805 156.55C415.058 157.07 415.401 157.463 415.832 157.73C416.264 157.997 416.75 158.131 417.29 158.131C417.79 158.131 418.23 158.024 418.611 157.811C418.994 157.595 419.293 157.291 419.506 156.899C419.722 156.504 419.83 156.04 419.83 155.506L420.153 155.574H417.528V154.636H420.852V155.574C420.852 156.293 420.699 156.918 420.392 157.449C420.088 157.98 419.668 158.392 419.131 158.685C418.597 158.974 417.983 159.119 417.29 159.119C416.517 159.119 415.838 158.938 415.253 158.574C414.67 158.21 414.216 157.693 413.889 157.023C413.565 156.352 413.403 155.557 413.403 154.636C413.403 153.946 413.496 153.325 413.68 152.774C413.868 152.22 414.132 151.749 414.473 151.359C414.814 150.97 415.217 150.672 415.683 150.464C416.149 150.257 416.662 150.153 417.222 150.153C417.682 150.153 418.111 150.223 418.509 150.362C418.909 150.499 419.266 150.693 419.578 150.946C419.893 151.196 420.156 151.496 420.366 151.845C420.577 152.192 420.722 152.577 420.801 153H419.71ZM422.662 159V150.273H427.929V151.21H423.719V154.159H427.657V155.097H423.719V158.062H427.998V159H422.662Z" fill="black"/>
<path d="M335.653 195.068C335.443 195.068 335.263 194.993 335.112 194.842C334.962 194.692 334.886 194.511 334.886 194.301C334.886 194.091 334.962 193.911 335.112 193.76C335.263 193.609 335.443 193.534 335.653 193.534C335.864 193.534 336.044 193.609 336.195 193.76C336.345 193.911 336.42 194.091 336.42 194.301C336.42 194.44 336.385 194.568 336.314 194.685C336.246 194.801 336.153 194.895 336.037 194.966C335.923 195.034 335.795 195.068 335.653 195.068ZM338.958 195.068C338.748 195.068 338.567 194.993 338.417 194.842C338.266 194.692 338.191 194.511 338.191 194.301C338.191 194.091 338.266 193.911 338.417 193.76C338.567 193.609 338.748 193.534 338.958 193.534C339.168 193.534 339.349 193.609 339.499 193.76C339.65 193.911 339.725 194.091 339.725 194.301C339.725 194.44 339.69 194.568 339.619 194.685C339.55 194.801 339.458 194.895 339.342 194.966C339.228 195.034 339.1 195.068 338.958 195.068ZM342.263 195.068C342.053 195.068 341.872 194.993 341.722 194.842C341.571 194.692 341.496 194.511 341.496 194.301C341.496 194.091 341.571 193.911 341.722 193.76C341.872 193.609 342.053 193.534 342.263 193.534C342.473 193.534 342.653 193.609 342.804 193.76C342.955 193.911 343.03 194.091 343.03 194.301C343.03 194.44 342.994 194.568 342.923 194.685C342.855 194.801 342.763 194.895 342.646 194.966C342.533 195.034 342.405 195.068 342.263 195.068ZM345.567 195.068C345.357 195.068 345.177 194.993 345.026 194.842C344.876 194.692 344.8 194.511 344.8 194.301C344.8 194.091 344.876 193.911 345.026 193.76C345.177 193.609 345.357 193.534 345.567 193.534C345.778 193.534 345.958 193.609 346.109 193.76C346.259 193.911 346.335 194.091 346.335 194.301C346.335 194.44 346.299 194.568 346.228 194.685C346.16 194.801 346.067 194.895 345.951 194.966C345.837 195.034 345.71 195.068 345.567 195.068Z" fill="black"/>
<rect x="143" y="275" width="374" height="66" fill="#D9D9D9"/>
<path d="M171.415 312H170.307L173.511 303.273H174.602L177.807 312H176.699L174.091 304.653H174.023L171.415 312ZM171.824 308.591H176.29V309.528H171.824V308.591ZM179.763 310.884C179.553 310.884 179.372 310.808 179.222 310.658C179.071 310.507 178.996 310.327 178.996 310.116C178.996 309.906 179.071 309.726 179.222 309.575C179.372 309.425 179.553 309.349 179.763 309.349C179.973 309.349 180.153 309.425 180.304 309.575C180.455 309.726 180.53 309.906 180.53 310.116C180.53 310.256 180.494 310.384 180.423 310.5C180.355 310.616 180.263 310.71 180.146 310.781C180.033 310.849 179.905 310.884 179.763 310.884ZM179.763 306.469C179.553 306.469 179.372 306.393 179.222 306.243C179.071 306.092 178.996 305.912 178.996 305.702C178.996 305.491 179.071 305.311 179.222 305.161C179.372 305.01 179.553 304.935 179.763 304.935C179.973 304.935 180.153 305.01 180.304 305.161C180.455 305.311 180.53 305.491 180.53 305.702C180.53 305.841 180.494 305.969 180.423 306.085C180.355 306.202 180.263 306.295 180.146 306.366C180.033 306.435 179.905 306.469 179.763 306.469ZM188.761 303.273V312H187.704V304.381H187.653L185.522 305.795V304.722L187.704 303.273H188.761Z" fill="black"/>
<rect x="143" y="376" width="374" height="66" fill="#D9D9D9"/>
<path d="M171.415 413H170.307L173.511 404.273H174.602L177.807 413H176.699L174.091 405.653H174.023L171.415 413ZM171.824 409.591H176.29V410.528H171.824V409.591ZM179.763 411.884C179.553 411.884 179.372 411.808 179.222 411.658C179.071 411.507 178.996 411.327 178.996 411.116C178.996 410.906 179.071 410.726 179.222 410.575C179.372 410.425 179.553 410.349 179.763 410.349C179.973 410.349 180.153 410.425 180.304 410.575C180.455 410.726 180.53 410.906 180.53 411.116C180.53 411.256 180.494 411.384 180.423 411.5C180.355 411.616 180.263 411.71 180.146 411.781C180.033 411.849 179.905 411.884 179.763 411.884ZM179.763 407.469C179.553 407.469 179.372 407.393 179.222 407.243C179.071 407.092 178.996 406.912 178.996 406.702C178.996 406.491 179.071 406.311 179.222 406.161C179.372 406.01 179.553 405.935 179.763 405.935C179.973 405.935 180.153 406.01 180.304 406.161C180.455 406.311 180.53 406.491 180.53 406.702C180.53 406.841 180.494 406.969 180.423 407.085C180.355 407.202 180.263 407.295 180.146 407.366C180.033 407.435 179.905 407.469 179.763 407.469ZM185.692 413V412.233L188.573 409.08C188.911 408.71 189.19 408.389 189.408 408.116C189.627 407.841 189.789 407.582 189.894 407.341C190.002 407.097 190.056 406.841 190.056 406.574C190.056 406.267 189.982 406.001 189.835 405.777C189.69 405.553 189.491 405.379 189.238 405.257C188.985 405.135 188.701 405.074 188.386 405.074C188.05 405.074 187.758 405.143 187.508 405.283C187.261 405.419 187.069 405.611 186.933 405.858C186.799 406.105 186.732 406.395 186.732 406.727H185.727C185.727 406.216 185.844 405.767 186.08 405.381C186.316 404.994 186.637 404.693 187.043 404.477C187.452 404.261 187.911 404.153 188.42 404.153C188.931 404.153 189.384 404.261 189.779 404.477C190.174 404.693 190.484 404.984 190.708 405.351C190.933 405.717 191.045 406.125 191.045 406.574C191.045 406.895 190.987 407.209 190.87 407.516C190.756 407.82 190.558 408.159 190.273 408.534C189.992 408.906 189.602 409.361 189.102 409.898L187.141 411.994V412.062H191.198V413H185.692Z" fill="black"/>
<rect x="143" y="477" width="374" height="66" fill="#D9D9D9"/>
<path d="M170.415 514H169.307L172.511 505.273H173.602L176.807 514H175.699L173.091 506.653H173.023L170.415 514ZM170.824 510.591H175.29V511.528H170.824V510.591ZM178.763 512.884C178.553 512.884 178.372 512.808 178.222 512.658C178.071 512.507 177.996 512.327 177.996 512.116C177.996 511.906 178.071 511.726 178.222 511.575C178.372 511.425 178.553 511.349 178.763 511.349C178.973 511.349 179.153 511.425 179.304 511.575C179.455 511.726 179.53 511.906 179.53 512.116C179.53 512.256 179.494 512.384 179.423 512.5C179.355 512.616 179.263 512.71 179.146 512.781C179.033 512.849 178.905 512.884 178.763 512.884ZM178.763 508.469C178.553 508.469 178.372 508.393 178.222 508.243C178.071 508.092 177.996 507.912 177.996 507.702C177.996 507.491 178.071 507.311 178.222 507.161C178.372 507.01 178.553 506.935 178.763 506.935C178.973 506.935 179.153 507.01 179.304 507.161C179.455 507.311 179.53 507.491 179.53 507.702C179.53 507.841 179.494 507.969 179.423 508.085C179.355 508.202 179.263 508.295 179.146 508.366C179.033 508.435 178.905 508.469 178.763 508.469ZM187.641 514.119C187.079 514.119 186.577 514.023 186.137 513.83C185.7 513.636 185.352 513.368 185.093 513.024C184.837 512.678 184.698 512.276 184.675 511.818H185.749C185.772 512.099 185.869 512.342 186.039 512.547C186.21 512.749 186.433 512.905 186.708 513.016C186.984 513.126 187.289 513.182 187.624 513.182C187.999 513.182 188.332 513.116 188.621 512.986C188.911 512.855 189.138 512.673 189.303 512.44C189.468 512.207 189.55 511.938 189.55 511.631C189.55 511.31 189.471 511.027 189.312 510.783C189.153 510.536 188.92 510.342 188.613 510.203C188.306 510.064 187.931 509.994 187.488 509.994H186.789V509.057H187.488C187.835 509.057 188.138 508.994 188.4 508.869C188.664 508.744 188.87 508.568 189.018 508.341C189.168 508.114 189.244 507.847 189.244 507.54C189.244 507.244 189.178 506.987 189.048 506.768C188.917 506.55 188.732 506.379 188.494 506.257C188.258 506.135 187.979 506.074 187.658 506.074C187.357 506.074 187.073 506.129 186.806 506.24C186.542 506.348 186.326 506.506 186.158 506.713C185.991 506.918 185.9 507.165 185.886 507.455H184.863C184.88 506.997 185.018 506.597 185.276 506.253C185.535 505.906 185.873 505.636 186.29 505.443C186.711 505.25 187.173 505.153 187.675 505.153C188.215 505.153 188.678 505.263 189.065 505.482C189.451 505.697 189.748 505.983 189.955 506.338C190.163 506.693 190.266 507.077 190.266 507.489C190.266 507.98 190.137 508.399 189.879 508.746C189.623 509.092 189.275 509.332 188.835 509.466V509.534C189.386 509.625 189.816 509.859 190.126 510.237C190.435 510.612 190.59 511.077 190.59 511.631C190.59 512.105 190.461 512.531 190.202 512.909C189.947 513.284 189.597 513.58 189.154 513.795C188.711 514.011 188.207 514.119 187.641 514.119Z" fill="black"/>
<rect x="45" y="717" width="384" height="66" fill="#D9D9D9"/>
<path d="M129.58 746.21V745.273H136.125V746.21H133.381V754H132.324V746.21H129.58ZM137.006 745.273H138.216L140.637 749.347H140.739L143.159 745.273H144.37L141.216 750.403V754H140.159V750.403L137.006 745.273ZM145.737 754V745.273H148.685C149.37 745.273 149.93 745.396 150.364 745.643C150.802 745.888 151.126 746.219 151.336 746.636C151.546 747.054 151.651 747.52 151.651 748.034C151.651 748.548 151.546 749.016 151.336 749.436C151.129 749.857 150.808 750.192 150.373 750.442C149.938 750.689 149.381 750.812 148.702 750.812H146.589V749.875H148.668C149.137 749.875 149.513 749.794 149.798 749.632C150.082 749.47 150.288 749.251 150.415 748.976C150.546 748.697 150.612 748.384 150.612 748.034C150.612 747.685 150.546 747.372 150.415 747.097C150.288 746.821 150.08 746.605 149.793 746.449C149.506 746.29 149.126 746.21 148.651 746.21H146.793V754H145.737ZM153.354 754V745.273H158.621V746.21H154.411V749.159H158.348V750.097H154.411V753.062H158.689V754H153.354ZM164.259 754H163.151L166.355 745.273H167.446L170.651 754H169.543L166.935 746.653H166.866L164.259 754ZM164.668 750.591H169.134V751.528H164.668V750.591ZM175.385 754V745.273H178.334C179.016 745.273 179.575 745.389 180.013 745.622C180.45 745.852 180.774 746.169 180.984 746.572C181.195 746.976 181.3 747.435 181.3 747.949C181.3 748.463 181.195 748.919 180.984 749.317C180.774 749.714 180.452 750.027 180.017 750.254C179.582 750.479 179.027 750.591 178.351 750.591H175.964V749.636H178.317C178.783 749.636 179.158 749.568 179.442 749.432C179.729 749.295 179.936 749.102 180.064 748.852C180.195 748.599 180.26 748.298 180.26 747.949C180.26 747.599 180.195 747.294 180.064 747.033C179.933 746.771 179.724 746.57 179.438 746.428C179.151 746.283 178.771 746.21 178.3 746.21H176.442V754H175.385ZM179.493 750.08L181.641 754H180.413L178.3 750.08H179.493ZM183.061 754V745.273H188.328V746.21H184.118V749.159H188.055V750.097H184.118V753.062H188.396V754H183.061ZM195.005 747.455C194.954 747.023 194.747 746.688 194.383 746.449C194.02 746.21 193.574 746.091 193.045 746.091C192.659 746.091 192.321 746.153 192.031 746.278C191.744 746.403 191.52 746.575 191.358 746.794C191.199 747.013 191.119 747.261 191.119 747.54C191.119 747.773 191.174 747.973 191.285 748.141C191.399 748.305 191.544 748.443 191.72 748.554C191.896 748.662 192.081 748.751 192.274 748.822C192.467 748.891 192.645 748.946 192.806 748.989L193.693 749.227C193.92 749.287 194.173 749.369 194.451 749.474C194.733 749.58 195.001 749.723 195.257 749.905C195.515 750.084 195.728 750.314 195.896 750.595C196.064 750.876 196.147 751.222 196.147 751.631C196.147 752.102 196.024 752.528 195.777 752.909C195.532 753.29 195.174 753.592 194.703 753.817C194.234 754.041 193.664 754.153 192.994 754.153C192.369 754.153 191.828 754.053 191.37 753.851C190.916 753.649 190.558 753.368 190.297 753.007C190.038 752.646 189.892 752.227 189.858 751.75H190.949C190.977 752.08 191.088 752.352 191.281 752.568C191.477 752.781 191.724 752.94 192.022 753.045C192.324 753.148 192.647 753.199 192.994 753.199C193.397 753.199 193.76 753.134 194.081 753.003C194.402 752.869 194.656 752.685 194.843 752.449C195.031 752.21 195.125 751.932 195.125 751.614C195.125 751.324 195.044 751.088 194.882 750.906C194.72 750.724 194.507 750.577 194.243 750.463C193.978 750.349 193.693 750.25 193.386 750.165L192.312 749.858C191.63 749.662 191.091 749.382 190.693 749.018C190.295 748.655 190.096 748.179 190.096 747.591C190.096 747.102 190.228 746.676 190.493 746.312C190.76 745.946 191.118 745.662 191.566 745.46C192.018 745.256 192.522 745.153 193.079 745.153C193.642 745.153 194.142 745.254 194.579 745.456C195.017 745.655 195.363 745.928 195.619 746.274C195.877 746.621 196.014 747.014 196.028 747.455H195.005ZM197.885 754V745.273H200.834C201.518 745.273 202.078 745.396 202.513 745.643C202.95 745.888 203.274 746.219 203.484 746.636C203.695 747.054 203.8 747.52 203.8 748.034C203.8 748.548 203.695 749.016 203.484 749.436C203.277 749.857 202.956 750.192 202.521 750.442C202.087 750.689 201.53 750.812 200.851 750.812H198.737V749.875H200.817C201.286 749.875 201.662 749.794 201.946 749.632C202.23 749.47 202.436 749.251 202.564 748.976C202.695 748.697 202.76 748.384 202.76 748.034C202.76 747.685 202.695 747.372 202.564 747.097C202.436 746.821 202.229 746.605 201.942 746.449C201.655 746.29 201.274 746.21 200.8 746.21H198.942V754H197.885ZM212.866 749.636C212.866 750.557 212.7 751.352 212.367 752.023C212.035 752.693 211.579 753.21 210.999 753.574C210.42 753.938 209.758 754.119 209.013 754.119C208.269 754.119 207.607 753.938 207.028 753.574C206.448 753.21 205.992 752.693 205.66 752.023C205.327 751.352 205.161 750.557 205.161 749.636C205.161 748.716 205.327 747.92 205.66 747.25C205.992 746.58 206.448 746.062 207.028 745.699C207.607 745.335 208.269 745.153 209.013 745.153C209.758 745.153 210.42 745.335 210.999 745.699C211.579 746.062 212.035 746.58 212.367 747.25C212.7 747.92 212.866 748.716 212.866 749.636ZM211.843 749.636C211.843 748.881 211.717 748.243 211.464 747.723C211.214 747.203 210.874 746.81 210.445 746.543C210.019 746.276 209.542 746.142 209.013 746.142C208.485 746.142 208.006 746.276 207.577 746.543C207.151 746.81 206.812 747.203 206.559 747.723C206.309 748.243 206.184 748.881 206.184 749.636C206.184 750.392 206.309 751.03 206.559 751.55C206.812 752.07 207.151 752.463 207.577 752.73C208.006 752.997 208.485 753.131 209.013 753.131C209.542 753.131 210.019 752.997 210.445 752.73C210.874 752.463 211.214 752.07 211.464 751.55C211.717 751.03 211.843 750.392 211.843 749.636ZM221.563 745.273V754H220.54L215.785 747.148H215.7V754H214.643V745.273H215.665L220.438 752.142H220.523V745.273H221.563ZM228.451 747.455C228.4 747.023 228.192 746.688 227.828 746.449C227.465 746.21 227.019 746.091 226.49 746.091C226.104 746.091 225.766 746.153 225.476 746.278C225.189 746.403 224.965 746.575 224.803 746.794C224.644 747.013 224.564 747.261 224.564 747.54C224.564 747.773 224.62 747.973 224.73 748.141C224.844 748.305 224.989 748.443 225.165 748.554C225.341 748.662 225.526 748.751 225.719 748.822C225.912 748.891 226.09 748.946 226.252 748.989L227.138 749.227C227.365 749.287 227.618 749.369 227.897 749.474C228.178 749.58 228.446 749.723 228.702 749.905C228.961 750.084 229.174 750.314 229.341 750.595C229.509 750.876 229.593 751.222 229.593 751.631C229.593 752.102 229.469 752.528 229.222 752.909C228.978 753.29 228.62 753.592 228.148 753.817C227.679 754.041 227.11 754.153 226.439 754.153C225.814 754.153 225.273 754.053 224.816 753.851C224.361 753.649 224.003 753.368 223.742 753.007C223.483 752.646 223.337 752.227 223.303 751.75H224.394C224.422 752.08 224.533 752.352 224.726 752.568C224.922 752.781 225.169 752.94 225.468 753.045C225.769 753.148 226.093 753.199 226.439 753.199C226.843 753.199 227.205 753.134 227.526 753.003C227.847 752.869 228.101 752.685 228.289 752.449C228.476 752.21 228.57 751.932 228.57 751.614C228.57 751.324 228.489 751.088 228.327 750.906C228.165 750.724 227.952 750.577 227.688 750.463C227.424 750.349 227.138 750.25 226.831 750.165L225.757 749.858C225.076 749.662 224.536 749.382 224.138 749.018C223.74 748.655 223.542 748.179 223.542 747.591C223.542 747.102 223.674 746.676 223.938 746.312C224.205 745.946 224.563 745.662 225.012 745.46C225.463 745.256 225.968 745.153 226.525 745.153C227.087 745.153 227.587 745.254 228.025 745.456C228.462 745.655 228.809 745.928 229.064 746.274C229.323 746.621 229.459 747.014 229.473 747.455H228.451ZM231.33 754V745.273H236.597V746.21H232.387V749.159H236.325V750.097H232.387V753.062H236.665V754H231.33ZM244.826 744.864L242.013 755.312H241.093L243.906 744.864H244.826ZM256.552 748H255.495C255.433 747.696 255.324 747.429 255.167 747.199C255.014 746.969 254.826 746.776 254.605 746.619C254.386 746.46 254.143 746.341 253.876 746.261C253.609 746.182 253.331 746.142 253.041 746.142C252.512 746.142 252.034 746.276 251.605 746.543C251.179 746.81 250.839 747.203 250.586 747.723C250.336 748.243 250.211 748.881 250.211 749.636C250.211 750.392 250.336 751.03 250.586 751.55C250.839 752.07 251.179 752.463 251.605 752.73C252.034 752.997 252.512 753.131 253.041 753.131C253.331 753.131 253.609 753.091 253.876 753.011C254.143 752.932 254.386 752.814 254.605 752.658C254.826 752.499 255.014 752.304 255.167 752.074C255.324 751.841 255.433 751.574 255.495 751.273H256.552C256.473 751.719 256.328 752.118 256.118 752.47C255.907 752.822 255.646 753.122 255.333 753.369C255.021 753.614 254.67 753.8 254.281 753.928C253.895 754.055 253.481 754.119 253.041 754.119C252.297 754.119 251.635 753.938 251.055 753.574C250.475 753.21 250.02 752.693 249.687 752.023C249.355 751.352 249.189 750.557 249.189 749.636C249.189 748.716 249.355 747.92 249.687 747.25C250.02 746.58 250.475 746.062 251.055 745.699C251.635 745.335 252.297 745.153 253.041 745.153C253.481 745.153 253.895 745.217 254.281 745.345C254.67 745.473 255.021 745.661 255.333 745.908C255.646 746.152 255.907 746.45 256.118 746.803C256.328 747.152 256.473 747.551 256.552 748ZM258.26 754V745.273H259.317V753.062H263.374V754H258.26ZM265.01 754V745.273H270.277V746.21H266.067V749.159H270.004V750.097H266.067V753.062H270.345V754H265.01ZM272.54 754H271.432L274.636 745.273H275.727L278.932 754H277.824L275.216 746.653H275.148L272.54 754ZM272.949 750.591H277.415V751.528H272.949V750.591ZM280.291 754V745.273H283.24C283.922 745.273 284.482 745.389 284.919 745.622C285.357 745.852 285.68 746.169 285.891 746.572C286.101 746.976 286.206 747.435 286.206 747.949C286.206 748.463 286.101 748.919 285.891 749.317C285.68 749.714 285.358 750.027 284.923 750.254C284.489 750.479 283.933 750.591 283.257 750.591H280.871V749.636H283.223C283.689 749.636 284.064 749.568 284.348 749.432C284.635 749.295 284.842 749.102 284.97 748.852C285.101 748.599 285.166 748.298 285.166 747.949C285.166 747.599 285.101 747.294 284.97 747.033C284.839 746.771 284.631 746.57 284.344 746.428C284.057 746.283 283.678 746.21 283.206 746.21H281.348V754H280.291ZM284.399 750.08L286.547 754H285.32L283.206 750.08H284.399ZM291.7 754H290.592L293.797 745.273H294.887L298.092 754H296.984L294.376 746.653H294.308L291.7 754ZM292.109 750.591H296.575V751.528H292.109V750.591ZM306.372 745.273V754H305.349L300.593 747.148H300.508V754H299.451V745.273H300.474L305.247 752.142H305.332V745.273H306.372ZM313.259 747.455C313.208 747.023 313.001 746.688 312.637 746.449C312.273 746.21 311.827 746.091 311.299 746.091C310.913 746.091 310.575 746.153 310.285 746.278C309.998 746.403 309.773 746.575 309.612 746.794C309.452 747.013 309.373 747.261 309.373 747.54C309.373 747.773 309.428 747.973 309.539 748.141C309.653 748.305 309.798 748.443 309.974 748.554C310.15 748.662 310.335 748.751 310.528 748.822C310.721 748.891 310.898 748.946 311.06 748.989L311.947 749.227C312.174 749.287 312.427 749.369 312.705 749.474C312.987 749.58 313.255 749.723 313.511 749.905C313.769 750.084 313.982 750.314 314.15 750.595C314.317 750.876 314.401 751.222 314.401 751.631C314.401 752.102 314.278 752.528 314.031 752.909C313.786 753.29 313.428 753.592 312.957 753.817C312.488 754.041 311.918 754.153 311.248 754.153C310.623 754.153 310.082 754.053 309.624 753.851C309.17 753.649 308.812 753.368 308.55 753.007C308.292 752.646 308.146 752.227 308.112 751.75H309.202C309.231 752.08 309.342 752.352 309.535 752.568C309.731 752.781 309.978 752.94 310.276 753.045C310.577 753.148 310.901 753.199 311.248 753.199C311.651 753.199 312.013 753.134 312.335 753.003C312.656 752.869 312.91 752.685 313.097 752.449C313.285 752.21 313.379 751.932 313.379 751.614C313.379 751.324 313.298 751.088 313.136 750.906C312.974 750.724 312.761 750.577 312.496 750.463C312.232 750.349 311.947 750.25 311.64 750.165L310.566 749.858C309.884 749.662 309.344 749.382 308.947 749.018C308.549 748.655 308.35 748.179 308.35 747.591C308.35 747.102 308.482 746.676 308.746 746.312C309.013 745.946 309.371 745.662 309.82 745.46C310.272 745.256 310.776 745.153 311.333 745.153C311.896 745.153 312.396 745.254 312.833 745.456C313.271 745.655 313.617 745.928 313.873 746.274C314.131 746.621 314.268 747.014 314.282 747.455H313.259ZM317.724 754L315.338 745.273H316.412L318.235 752.381H318.321L320.179 745.273H321.372L323.23 752.381H323.315L325.139 745.273H326.213L323.826 754H322.735L320.809 747.045H320.741L318.815 754H317.724ZM327.529 754V745.273H332.797V746.21H328.586V749.159H332.524V750.097H328.586V753.062H332.865V754H327.529ZM334.701 754V745.273H337.65C338.332 745.273 338.892 745.389 339.329 745.622C339.767 745.852 340.091 746.169 340.301 746.572C340.511 746.976 340.616 747.435 340.616 747.949C340.616 748.463 340.511 748.919 340.301 749.317C340.091 749.714 339.768 750.027 339.333 750.254C338.899 750.479 338.343 750.591 337.667 750.591H335.281V749.636H337.633C338.099 749.636 338.474 749.568 338.758 749.432C339.045 749.295 339.252 749.102 339.38 748.852C339.511 748.599 339.576 748.298 339.576 747.949C339.576 747.599 339.511 747.294 339.38 747.033C339.25 746.771 339.041 746.57 338.754 746.428C338.467 746.283 338.088 746.21 337.616 746.21H335.758V754H334.701ZM338.809 750.08L340.957 754H339.73L337.616 750.08H338.809Z" fill="black"/>
<rect x="467" y="717" width="151" height="66" fill="#D9D9D9"/>
<path d="M532.977 745.273V754H531.955L527.199 747.148H527.114V754H526.057V745.273H527.08L531.852 752.142H531.938V745.273H532.977ZM535.092 754V745.273H540.359V746.21H536.149V749.159H540.086V750.097H536.149V753.062H540.427V754H535.092ZM542.775 745.273L545.025 748.903H545.093L547.343 745.273H548.588L545.843 749.636L548.588 754H547.343L545.093 750.438H545.025L542.775 754H541.531L544.343 749.636L541.531 745.273H542.775ZM549.486 746.21V745.273H556.031V746.21H553.287V754H552.23V746.21H549.486Z" fill="black"/>
<rect x="47" y="26" width="176" height="66" fill="#D9D9D9"/>
<path d="M111.057 63V54.2727H114.006C114.688 54.2727 115.247 54.3892 115.685 54.6222C116.122 54.8523 116.446 55.169 116.656 55.5724C116.866 55.9759 116.972 56.4347 116.972 56.9489C116.972 57.4631 116.866 57.919 116.656 58.3168C116.446 58.7145 116.124 59.027 115.689 59.2543C115.254 59.4787 114.699 59.5909 114.023 59.5909H111.636V58.6364H113.989C114.455 58.6364 114.83 58.5682 115.114 58.4318C115.401 58.2955 115.608 58.1023 115.736 57.8523C115.866 57.5994 115.932 57.2983 115.932 56.9489C115.932 56.5994 115.866 56.294 115.736 56.0327C115.605 55.7713 115.396 55.5696 115.109 55.4276C114.822 55.2827 114.443 55.2102 113.972 55.2102H112.114V63H111.057ZM115.165 59.0795L117.312 63H116.085L113.972 59.0795H115.165ZM118.733 63V54.2727H124V55.2102H119.789V58.1591H123.727V59.0966H119.789V62.0625H124.068V63H118.733ZM130.677 56.4545C130.626 56.0227 130.419 55.6875 130.055 55.4489C129.691 55.2102 129.245 55.0909 128.717 55.0909C128.331 55.0909 127.993 55.1534 127.703 55.2784C127.416 55.4034 127.191 55.5753 127.029 55.794C126.87 56.0128 126.791 56.2614 126.791 56.5398C126.791 56.7727 126.846 56.973 126.957 57.1406C127.071 57.3054 127.216 57.4432 127.392 57.554C127.568 57.6619 127.752 57.7514 127.946 57.8224C128.139 57.8906 128.316 57.946 128.478 57.9886L129.365 58.2273C129.592 58.2869 129.845 58.3693 130.123 58.4744C130.404 58.5795 130.673 58.723 130.929 58.9048C131.187 59.0838 131.4 59.3139 131.568 59.5952C131.735 59.8764 131.819 60.2216 131.819 60.6307C131.819 61.1023 131.696 61.5284 131.449 61.9091C131.204 62.2898 130.846 62.5923 130.375 62.8168C129.906 63.0412 129.336 63.1534 128.666 63.1534C128.041 63.1534 127.5 63.0526 127.042 62.8509C126.588 62.6491 126.23 62.3679 125.968 62.0071C125.71 61.6463 125.564 61.2273 125.529 60.75H126.62C126.649 61.0795 126.76 61.3523 126.953 61.5682C127.149 61.7812 127.396 61.9403 127.694 62.0455C127.995 62.1477 128.319 62.1989 128.666 62.1989C129.069 62.1989 129.431 62.1335 129.752 62.0028C130.074 61.8693 130.328 61.6847 130.515 61.4489C130.703 61.2102 130.797 60.9318 130.797 60.6136C130.797 60.3239 130.716 60.0881 130.554 59.9062C130.392 59.7244 130.179 59.5767 129.914 59.4631C129.65 59.3494 129.365 59.25 129.058 59.1648L127.984 58.858C127.302 58.6619 126.762 58.3821 126.365 58.0185C125.967 57.6548 125.768 57.179 125.768 56.5909C125.768 56.1023 125.9 55.6761 126.164 55.3125C126.431 54.946 126.789 54.6619 127.238 54.4602C127.69 54.2557 128.194 54.1534 128.751 54.1534C129.314 54.1534 129.814 54.2543 130.251 54.456C130.689 54.6548 131.035 54.9276 131.291 55.2741C131.549 55.6207 131.686 56.0142 131.7 56.4545H130.677ZM133.557 63V54.2727H138.824V55.2102H134.614V58.1591H138.551V59.0966H134.614V62.0625H138.892V63H133.557ZM140.251 55.2102V54.2727H146.797V55.2102H144.053V63H142.996V55.2102H140.251Z" fill="black"/>
<rect x="528" y="26" width="102" height="66" fill="#D9D9D9"/>
<path d="M564.057 54.2727H565.318L568.284 61.517H568.386L571.352 54.2727H572.614V63H571.625V56.3693H571.54L568.812 63H567.858L565.131 56.3693H565.045V63H564.057V54.2727ZM574.733 63V54.2727H580V55.2102H575.789V58.1591H579.727V59.0966H575.789V62.0625H580.068V63H574.733ZM588.825 54.2727V63H587.802L583.047 56.1477H582.961V63H581.904V54.2727H582.927L587.7 61.142H587.785V54.2727H588.825ZM596.667 54.2727H597.724V60.0511C597.724 60.6477 597.583 61.1804 597.302 61.6491C597.023 62.1151 596.63 62.483 596.121 62.7528C595.613 63.0199 595.016 63.1534 594.332 63.1534C593.647 63.1534 593.05 63.0199 592.542 62.7528C592.033 62.483 591.638 62.1151 591.357 61.6491C591.079 61.1804 590.94 60.6477 590.94 60.0511V54.2727H591.996V59.9659C591.996 60.392 592.09 60.7713 592.278 61.1037C592.465 61.4332 592.732 61.6932 593.079 61.8835C593.428 62.071 593.846 62.1648 594.332 62.1648C594.817 62.1648 595.235 62.071 595.585 61.8835C595.934 61.6932 596.201 61.4332 596.386 61.1037C596.573 60.7713 596.667 60.392 596.667 59.9659V54.2727Z" fill="black"/>
<path d="M310.227 232.273H311.386L312.358 233.551L312.614 233.892L314.062 235.818H312.903L311.949 234.54L311.71 234.216L310.227 232.273ZM314.42 230.636C314.42 231.557 314.254 232.352 313.922 233.023C313.589 233.693 313.134 234.21 312.554 234.574C311.974 234.938 311.313 235.119 310.568 235.119C309.824 235.119 309.162 234.938 308.582 234.574C308.003 234.21 307.547 233.693 307.214 233.023C306.882 232.352 306.716 231.557 306.716 230.636C306.716 229.716 306.882 228.92 307.214 228.25C307.547 227.58 308.003 227.062 308.582 226.699C309.162 226.335 309.824 226.153 310.568 226.153C311.313 226.153 311.974 226.335 312.554 226.699C313.134 227.062 313.589 227.58 313.922 228.25C314.254 228.92 314.42 229.716 314.42 230.636ZM313.398 230.636C313.398 229.881 313.271 229.243 313.018 228.723C312.768 228.203 312.429 227.81 312 227.543C311.574 227.276 311.097 227.142 310.568 227.142C310.04 227.142 309.561 227.276 309.132 227.543C308.706 227.81 308.366 228.203 308.114 228.723C307.864 229.243 307.739 229.881 307.739 230.636C307.739 231.392 307.864 232.03 308.114 232.55C308.366 233.07 308.706 233.463 309.132 233.73C309.561 233.997 310.04 234.131 310.568 234.131C311.097 234.131 311.574 233.997 312 233.73C312.429 233.463 312.768 233.07 313.018 232.55C313.271 232.03 313.398 231.392 313.398 230.636ZM321.925 226.273H322.982V232.051C322.982 232.648 322.841 233.18 322.56 233.649C322.281 234.115 321.888 234.483 321.379 234.753C320.871 235.02 320.274 235.153 319.589 235.153C318.905 235.153 318.308 235.02 317.8 234.753C317.291 234.483 316.896 234.115 316.615 233.649C316.337 233.18 316.197 232.648 316.197 232.051V226.273H317.254V231.966C317.254 232.392 317.348 232.771 317.536 233.104C317.723 233.433 317.99 233.693 318.337 233.884C318.686 234.071 319.104 234.165 319.589 234.165C320.075 234.165 320.493 234.071 320.842 233.884C321.192 233.693 321.459 233.433 321.643 233.104C321.831 232.771 321.925 232.392 321.925 231.966V226.273ZM325.092 235V226.273H330.359V227.21H326.149V230.159H330.086V231.097H326.149V234.062H330.427V235H325.092ZM337.037 228.455C336.985 228.023 336.778 227.688 336.414 227.449C336.051 227.21 335.605 227.091 335.076 227.091C334.69 227.091 334.352 227.153 334.062 227.278C333.775 227.403 333.551 227.575 333.389 227.794C333.23 228.013 333.15 228.261 333.15 228.54C333.15 228.773 333.206 228.973 333.316 229.141C333.43 229.305 333.575 229.443 333.751 229.554C333.927 229.662 334.112 229.751 334.305 229.822C334.498 229.891 334.676 229.946 334.838 229.989L335.724 230.227C335.951 230.287 336.204 230.369 336.483 230.474C336.764 230.58 337.032 230.723 337.288 230.905C337.547 231.084 337.76 231.314 337.927 231.595C338.095 231.876 338.179 232.222 338.179 232.631C338.179 233.102 338.055 233.528 337.808 233.909C337.564 234.29 337.206 234.592 336.734 234.817C336.265 235.041 335.696 235.153 335.025 235.153C334.4 235.153 333.859 235.053 333.402 234.851C332.947 234.649 332.589 234.368 332.328 234.007C332.069 233.646 331.923 233.227 331.889 232.75H332.98C333.008 233.08 333.119 233.352 333.312 233.568C333.508 233.781 333.755 233.94 334.054 234.045C334.355 234.148 334.679 234.199 335.025 234.199C335.429 234.199 335.791 234.134 336.112 234.003C336.433 233.869 336.687 233.685 336.875 233.449C337.062 233.21 337.156 232.932 337.156 232.614C337.156 232.324 337.075 232.088 336.913 231.906C336.751 231.724 336.538 231.577 336.274 231.463C336.01 231.349 335.724 231.25 335.417 231.165L334.343 230.858C333.662 230.662 333.122 230.382 332.724 230.018C332.326 229.655 332.127 229.179 332.127 228.591C332.127 228.102 332.26 227.676 332.524 227.312C332.791 226.946 333.149 226.662 333.598 226.46C334.049 226.256 334.554 226.153 335.11 226.153C335.673 226.153 336.173 226.254 336.61 226.456C337.048 226.655 337.395 226.928 337.65 227.274C337.909 227.621 338.045 228.014 338.059 228.455H337.037ZM339.439 227.21V226.273H345.984V227.21H343.24V235H342.183V227.21H339.439ZM348.672 226.273V235H347.615V226.273H348.672ZM358.155 230.636C358.155 231.557 357.989 232.352 357.656 233.023C357.324 233.693 356.868 234.21 356.288 234.574C355.709 234.938 355.047 235.119 354.303 235.119C353.558 235.119 352.896 234.938 352.317 234.574C351.737 234.21 351.281 233.693 350.949 233.023C350.616 232.352 350.45 231.557 350.45 230.636C350.45 229.716 350.616 228.92 350.949 228.25C351.281 227.58 351.737 227.062 352.317 226.699C352.896 226.335 353.558 226.153 354.303 226.153C355.047 226.153 355.709 226.335 356.288 226.699C356.868 227.062 357.324 227.58 357.656 228.25C357.989 228.92 358.155 229.716 358.155 230.636ZM357.132 230.636C357.132 229.881 357.006 229.243 356.753 228.723C356.503 228.203 356.163 227.81 355.734 227.543C355.308 227.276 354.831 227.142 354.303 227.142C353.774 227.142 353.295 227.276 352.866 227.543C352.44 227.81 352.101 228.203 351.848 228.723C351.598 229.243 351.473 229.881 351.473 230.636C351.473 231.392 351.598 232.03 351.848 232.55C352.101 233.07 352.44 233.463 352.866 233.73C353.295 233.997 353.774 234.131 354.303 234.131C354.831 234.131 355.308 233.997 355.734 233.73C356.163 233.463 356.503 233.07 356.753 232.55C357.006 232.03 357.132 231.392 357.132 230.636ZM366.852 226.273V235H365.83L361.074 228.148H360.989V235H359.932V226.273H360.955L365.727 233.142H365.812V226.273H366.852Z" fill="black"/>
</svg>
